<svg xmlns="http://www.w3.org/2000/svg" xmlns:osb="http://www.openswatchbook.org/uri/2009/osb" xmlns:svg="http://www.w3.org/2000/svg" id="svg2" width="200" height="200" version="1.1" viewBox="0 0 187.5 187.5"><title id="title4801">Grunge Halftone 1</title><defs id="defs4"><linearGradient id="linearGradient4169" osb:paint="solid"><stop id="stop4171" offset="0" style="stop-color:#000;stop-opacity:1"/></linearGradient></defs><metadata id="metadata7"/><g id="layer1" transform="translate(-278.29724,-432.4311)"><g id="g4175" transform="translate(-18.802731,-199.67089)"><rect style="opacity:1;fill:none;fill-opacity:1;fill-rule:evenodd;stroke:none;stroke-width:10;stroke-linecap:square;stroke-linejoin:miter;stroke-miterlimit:4;stroke-dasharray:none;stroke-dashoffset:0;stroke-opacity:1" id="rect4153" width="187.5" height="187.5" x="297.1" y="632.102"/><path style="fill:#000" id="path4151" d="m 299.71618,816.67325 c -1.73114,-2.08589 0.33776,-5.12629 2.83595,-4.16765 1.10064,0.42235 2.00116,1.56914 2.00116,2.54842 0,2.41696 -3.26732,3.51071 -4.83711,1.61923 z m 27.79235,-0.18791 c -0.43296,-1.12827 -0.18781,-2.65078 0.54476,-3.38336 1.90451,-1.90451 5.51301,-0.16386 5.01553,2.41936 -0.55413,2.87735 -4.55958,3.57179 -5.56029,0.964 z m 10.40414,1.05935 c -1.7694,-1.7694 -0.76817,-4.19271 1.73228,-4.19271 1.74745,0 2.46,0.67881 2.1875,2.08391 -0.44618,2.3006 -2.58001,3.44858 -3.91978,2.1088 z m 7.33534,-0.32991 c -1.2058,-1.95103 0.76999,-5.25455 2.90007,-4.8489 1.11661,0.21265 2.20996,1.64651 2.42965,3.18637 0.30014,2.10373 -0.22532,2.79973 -2.11373,2.79973 -1.38224,0 -2.82944,-0.51174 -3.21599,-1.1372 z m 9.74436,-0.77157 c -0.91623,-2.38765 1.5895,-4.44367 4.19644,-3.44329 2.35977,0.90552 1.48231,4.59791 -1.21615,5.11759 -1.19731,0.23058 -2.53844,-0.52285 -2.98029,-1.6743 z m 20.02784,0.0725 c -0.37864,-0.98674 -0.33934,-2.35894 0.0874,-3.04934 1.02178,-1.6532 4.44574,-0.29729 4.44574,1.76061 0,2.34846 -3.72055,3.40624 -4.53309,1.28879 z m 18.36308,0.0576 c -1.94042,-2.33802 -0.70915,-4.47135 2.58072,-4.47135 1.86867,0 2.41073,0.69615 2.11372,2.71459 -0.49914,3.39217 -2.66464,4.20256 -4.69444,1.7568 z m 9.50334,0.94528 c -1.83144,-1.83141 -0.77712,-5.41663 1.59289,-5.41663 3.19073,0 4.41888,2.15179 2.52833,4.42975 -1.65021,1.98839 -2.83583,2.27231 -4.12122,0.98691 z m 18.75,0 c -1.83144,-1.83141 -0.77712,-5.41663 1.59289,-5.41663 3.19073,0 4.41888,2.15179 2.52834,4.42975 -1.65021,1.98839 -2.83584,2.27231 -4.12123,0.98691 z m 10.02604,0.026 c -1.7694,-1.76932 -0.76816,-4.19263 1.73228,-4.19263 1.74746,0 2.46001,0.67881 2.1875,2.08391 -0.44618,2.3006 -2.58,3.44858 -3.91978,2.1088 z m 9.03499,-1.19499 c -1.11064,-1.33824 -1.15941,-2.23268 -0.17541,-3.21668 1.72606,-1.72606 5.28105,-0.43292 5.28105,1.92099 0,2.60474 -3.31998,3.44726 -5.10564,1.29569 z m 37.69406,0.80692 c -2.06975,-1.27909 -0.8645,-5.05456 1.61361,-5.05456 0.97927,0 2.08849,0.80262 2.46493,1.78361 0.9071,2.36386 -1.90159,4.61647 -4.07854,3.27104 z m -169.53074,-1.41345 c -1.09085,-1.76503 1.31837,-4.17425 3.0834,-3.0834 1.98252,1.22526 1.66221,4.44231 -0.44232,4.44231 -0.99067,0 -2.17916,-0.61151 -2.64108,-1.35891 z m 9.67751,-0.81424 c 0.62752,-3.25841 4.7648,-3.62181 4.7648,-0.4185 0,1.78886 -0.80278,2.59165 -2.59165,2.59165 -1.78888,0 -2.46202,-0.67315 -2.17315,-2.17315 z m 47.50277,-0.0143 c 0.53125,-2.75855 2.75439,-2.69851 3.29119,0.0889 0.24627,1.27882 -0.39992,2.09863 -1.65415,2.09863 -1.28745,0 -1.90054,-0.81925 -1.63704,-2.1875 z m 16.5629,0.81755 c -1.102,-1.78307 2.54611,-5.43119 4.32918,-4.32919 2.38216,1.47225 1.59875,5.69914 -1.05627,5.69914 -1.33443,0 -2.80724,-0.61647 -3.27291,-1.36995 z m 29.1186,0.62274 c -1.17342,-1.17341 0.42357,-4.25279 2.20554,-4.25279 1.78196,0 3.37895,3.07938 2.20554,4.25279 -0.41097,0.41097 -1.40346,0.74721 -2.20554,0.74721 -0.80209,0 -1.79458,-0.33624 -2.20554,-0.74721 z m 38.04664,-1.32678 c 0.52681,-2.73551 4.1589,-3.12251 4.1589,-0.44314 0,1.02184 -1.03547,2.0573 -2.30102,2.30103 -1.6705,0.3217 -2.17958,-0.18739 -1.85788,-1.85789 z m 9.1589,0.82399 c -1.0463,-1.69295 0.36553,-3.75 2.57377,-3.75 0.99068,0 1.80123,1.125 1.80123,2.5 0,2.58789 -3.01564,3.4495 -4.375,1.25 z m 9.375,-1.25 c 0,-1.88269 0.65268,-2.55761 2.1875,-2.26204 1.20312,0.2317 2.1875,1.24962 2.1875,2.26204 0,1.01243 -0.98438,2.03034 -2.1875,2.26204 -1.53482,0.29557 -2.1875,-0.37935 -2.1875,-2.26204 z m -112.56167,-6.9493 c -1.15927,-1.39682 -1.15927,-2.20457 0,-3.6014 1.88823,-2.27517 5.06167,-1.14621 5.06167,1.8007 0,2.94691 -3.17344,4.07588 -5.06167,1.8007 z m 47.87417,1.07026 c -2.13565,-0.79178 -1.97701,-4.94442 0.2211,-5.78792 0.98099,-0.37644 2.47954,0.15411 3.33013,1.179 1.23864,1.49247 1.19462,2.19437 -0.22111,3.52582 -0.97219,0.91432 -2.47075,1.40172 -3.33012,1.0831 z m 45.87583,-1.07026 c -1.15926,-1.39682 -1.15926,-2.20457 0,-3.6014 1.88823,-2.27517 5.06167,-1.14621 5.06167,1.8007 0,2.94691 -3.17344,4.07588 -5.06167,1.8007 z m -150.3553,-1.08436 c -1.04418,-2.72109 2.45723,-5.15404 4.71766,-3.27805 2.27517,1.88822 1.14621,5.06166 -1.8007,5.06166 -1.22789,0 -2.54052,-0.80262 -2.91696,-1.78361 z m 9.16696,-0.71639 c 0,-1.66666 0.83333,-2.5 2.5,-2.5 1.66667,0 2.5,0.83334 2.5,2.5 0,1.66666 -0.83333,2.5 -2.5,2.5 -1.66667,0 -2.5,-0.83334 -2.5,-2.5 z m 10,0 c 0,-1.88269 0.65269,-2.55761 2.1875,-2.26204 1.20313,0.2317 2.1875,1.24962 2.1875,2.26204 0,1.01243 -0.98437,2.03034 -2.1875,2.26204 -1.53481,0.29557 -2.1875,-0.37935 -2.1875,-2.26204 z m 8.75,0 c 0,-1.66666 0.83334,-2.5 2.5,-2.5 1.66667,0 2.5,0.83334 2.5,2.5 0,1.66666 -0.83333,2.5 -2.5,2.5 -1.66666,0 -2.5,-0.83334 -2.5,-2.5 z m 9.375,1.25 c -1.0463,-1.69295 0.36554,-3.75 2.57377,-3.75 0.99068,0 1.80123,1.125 1.80123,2.5 0,2.58789 -3.01564,3.4495 -4.375,1.25 z m 9.375,-1.17622 c 0,-3.36587 2.36467,-4.49483 4.64286,-2.21664 2.27819,2.27819 1.14923,4.64286 -2.21663,4.64286 -1.5683,0 -2.42623,-0.85793 -2.42623,-2.42622 z m 20.79936,1.55891 c -1.49395,-1.49395 -0.80714,-4.13269 1.07565,-4.13269 1.03125,0 1.875,0.81055 1.875,1.80122 0,2.08832 -1.7841,3.49802 -2.95065,2.33147 z m 8.81002,0.06 c -1.7173,-1.71732 -0.82655,-4.3697 1.32813,-3.95475 1.20312,0.2317 2.1875,1.21045 2.1875,2.17499 0,1.97357 -2.20537,3.09001 -3.51563,1.77976 z m 7.89063,-1.61891 c 0,-3.36587 2.36467,-4.49483 4.64285,-2.21664 2.27819,2.27819 1.14923,4.64286 -2.21663,4.64286 -1.5683,0 -2.42622,-0.85793 -2.42622,-2.42622 z m 10.85937,1.61893 c -1.7173,-1.71731 -0.82655,-4.3697 1.32813,-3.95475 1.20312,0.2317 2.1875,1.21045 2.1875,2.17499 0,1.97358 -2.20537,3.09001 -3.51563,1.77976 z m 17.89063,-1.69271 c 0,-1.88269 0.65268,-2.55761 2.1875,-2.26204 1.20312,0.2317 2.1875,1.24962 2.1875,2.26204 0,1.01243 -0.98438,2.03034 -2.1875,2.26204 -1.53482,0.29557 -2.1875,-0.37935 -2.1875,-2.26204 z m 8.75,0.0737 c 0,-3.36586 2.36467,-4.49482 4.64286,-2.21664 2.27819,2.27822 1.14922,4.64289 -2.21664,4.64289 -1.5683,0 -2.42622,-0.85793 -2.42622,-2.42622 z m 10.85937,1.61894 c -1.7694,-1.76938 -0.76816,-4.19269 1.73228,-4.19269 1.74746,0 2.46001,0.67881 2.1875,2.08391 -0.44618,2.3006 -2.58,3.44858 -3.91978,2.1088 z m 8.75,0 c -1.7694,-1.76938 -0.76816,-4.19269 1.73228,-4.19269 1.74746,0 2.46001,0.67881 2.1875,2.08391 -0.44618,2.3006 -2.58,3.44858 -3.91978,2.1088 z m 18.29425,-1.19386 c -0.95865,-2.4982 2.08175,-4.56711 4.16765,-2.83596 1.89148,1.56978 0.79773,4.83711 -1.61924,4.83711 -0.97927,0 -2.12606,-0.90053 -2.54841,-2.00115 z m 10.45575,1.19386 c -1.7694,-1.76938 -0.76816,-4.19269 1.73228,-4.19269 1.74746,0 2.46001,0.67881 2.1875,2.08391 -0.44618,2.3006 -2.58,3.44858 -3.91978,2.1088 z m 8.5564,-0.37673 c -1.09905,-1.77827 0.30249,-3.81596 2.62465,-3.81596 1.09519,0 1.72256,0.8782 1.48873,2.08391 -0.4869,2.51059 -2.9827,3.56153 -4.11338,1.73208 z m -177.30641,-8.3732 c -1.76939,-1.7694 -0.76816,-4.19271 1.73228,-4.19271 1.74746,0 2.46001,0.67881 2.1875,2.08391 -0.44617,2.3006 -2.58,3.44858 -3.91978,2.1088 z m 8.72396,-0.026 c -1.83144,-1.83149 -0.77712,-5.41671 1.5929,-5.41671 3.19073,0 4.41888,2.15179 2.52833,4.42975 -1.65021,1.98839 -2.83583,2.27231 -4.12123,0.98691 z m 9.24667,-0.94527 c -1.94043,-2.33811 -0.70916,-4.47144 2.58071,-4.47144 1.86868,0 2.41074,0.69615 2.11373,2.71459 -0.49914,3.39217 -2.66464,4.20256 -4.69444,1.7568 z m 19.50334,0.94527 c -1.83144,-1.83149 -0.77712,-5.41671 1.59289,-5.41671 3.19073,0 4.41888,2.15179 2.52833,4.42975 -1.65021,1.98839 -2.83583,2.27231 -4.12122,0.98691 z m 18.26435,-0.56898 c -1.90229,-1.90233 -0.59456,-4.84773 2.15232,-4.84773 2.74687,0 4.0546,2.9454 2.15231,4.84767 -0.77127,0.77129 -1.73981,1.40233 -2.15231,1.40233 -0.4125,0 -1.38105,-0.63104 -2.15232,-1.40233 z m 9.74075,0.20697 c -2.06976,-1.27923 -0.86451,-5.0547 1.6136,-5.0547 0.97927,0 2.08849,0.80262 2.46493,1.78361 0.9071,2.36386 -1.90159,4.61647 -4.07853,3.27104 z m 8.35444,-0.3672 c -0.93079,-2.53107 0.34699,-4.6875 2.77756,-4.6875 2.43057,0 3.74916,2.15643 2.86626,4.6875 -0.29976,0.85938 -1.56297,1.5625 -2.80713,1.5625 -1.24415,0 -2.52066,-0.70312 -2.83669,-1.5625 z m 47.39046,0.72916 c -1.83144,-1.83144 -0.77712,-5.41666 1.59289,-5.41666 3.19073,0 4.41888,2.15179 2.52834,4.42975 -1.65021,1.98839 -2.83584,2.27231 -4.12123,0.98691 z m 19.25509,-0.36201 c -2.06975,-1.27918 -0.8645,-5.05465 1.61361,-5.05465 0.97927,0 2.08849,0.80262 2.46493,1.78361 0.9071,2.36386 -1.90159,4.61647 -4.07854,3.27104 z m 8.74158,-0.58326 c -1.94043,-2.33806 -0.70917,-4.47139 2.58071,-4.47139 1.86867,0 2.41072,0.69615 2.11372,2.71459 -0.49913,3.39217 -2.66463,4.20256 -4.69443,1.7568 z m 18.8329,0.0999 c -1.73115,-2.0859 0.33775,-5.1263 2.83595,-4.16765 1.10062,0.42235 2.00115,1.56914 2.00115,2.54841 0,2.41697 -3.26733,3.51072 -4.8371,1.61924 z m -140.85522,-0.9302 c -1.09085,-1.76503 1.31837,-4.17425 3.0834,-3.0834 1.98252,1.22526 1.66221,4.44231 -0.44232,4.44231 -0.99067,0 -2.17916,-0.61151 -2.64108,-1.35891 z m 18.97212,-0.5634 c -0.42746,-1.11396 0.0773,-2.23504 1.20029,-2.66599 2.3342,-0.89571 4.8884,1.32628 3.71222,3.22939 -1.2266,1.98467 -4.05939,1.65979 -4.91251,-0.5634 z m 36.7202,0.0473 c 0,-1.04166 1.11111,-1.875 2.5,-1.875 1.38888,0 2.5,0.83334 2.5,1.875 0,1.04166 -1.11112,1.875 -2.5,1.875 -1.38889,0 -2.5,-0.83334 -2.5,-1.875 z m 9.66946,1.12779 c -1.17342,-1.17341 0.42357,-4.25279 2.20554,-4.25279 1.78196,0 3.37895,3.07938 2.20554,4.25279 -0.41097,0.41097 -1.40346,0.74721 -2.20554,0.74721 -0.80209,0 -1.79458,-0.33624 -2.20554,-0.74721 z m 9.63822,-0.6117 c -1.09084,-1.76503 1.31837,-4.17425 3.0834,-3.0834 1.98253,1.22526 1.66221,4.44231 -0.44231,4.44231 -0.99068,0 -2.17917,-0.61151 -2.64109,-1.35891 z m 9.65842,-0.71508 c 0.52681,-2.73551 4.1589,-3.12251 4.1589,-0.44314 0,1.02184 -1.03546,2.0573 -2.30102,2.30103 -1.6705,0.3217 -2.17959,-0.18739 -1.85788,-1.85789 z m 18.75,0 c 0.52681,-2.73551 4.1589,-3.12251 4.1589,-0.44314 0,1.02184 -1.03547,2.0573 -2.30102,2.30103 -1.6705,0.3217 -2.17958,-0.18739 -1.85788,-1.85789 z m 27.9089,0.82399 c -1.0463,-1.69295 0.36553,-3.75 2.57377,-3.75 0.99068,0 1.80123,1.125 1.80123,2.5 0,2.58789 -3.01564,3.4495 -4.375,1.25 z m 18.68268,-0.10888 c -0.46192,-0.74741 -0.26287,-1.9359 0.44232,-2.64108 1.57703,-1.57704 4,-0.24515 4,2.19877 0,2.10453 -3.21705,2.42484 -4.44232,0.44231 z m -178.05769,-9.89111 c 0,-1.88269 0.65269,-2.55761 2.1875,-2.26204 1.20312,0.2317 2.1875,1.24962 2.1875,2.26204 0,1.01243 -0.98438,2.03034 -2.1875,2.26204 -1.53481,0.29557 -2.1875,-0.37935 -2.1875,-2.26204 z m 9.41578,1.31599 c -1.09905,-1.7783 0.30248,-3.81599 2.62465,-3.81599 1.09519,0 1.72256,0.8782 1.48873,2.08391 -0.48691,2.51059 -2.98271,3.56153 -4.11338,1.73208 z m 8.29667,-1.52844 c 0.27504,-1.9417 1.24589,-2.91255 2.91255,-2.91255 3.72267,0 3.35075,4.8795 -0.41255,5.41255 -2.42352,0.34328 -2.84328,-0.0765 -2.5,-2.5 z m 10.41255,1.46245 c -1.0463,-1.69295 0.36554,-3.75 2.57377,-3.75 0.99068,0 1.80123,1.125 1.80123,2.5 0,2.58789 -3.01564,3.4495 -4.375,1.25 z m 9.52544,-0.44374 c -1.08929,-1.31251 -1.01921,-2.06653 0.2933,-3.15582 1.31251,-1.08929 2.06654,-1.01921 3.15583,0.2933 1.08929,1.31251 1.01921,2.06653 -0.29331,3.15582 -1.31251,1.08929 -2.06653,1.01921 -3.15582,-0.2933 z m 10.16206,0.80833 c -2.18052,-0.79953 -1.9531,-3.69723 0.35982,-4.58478 1.11396,-0.42746 2.23504,0.0772 2.66598,1.20029 0.88075,2.2952 -0.81711,4.19434 -3.0258,3.38449 z m 9.29688,0.0781 c -1.71731,-1.71731 -0.82655,-4.3697 1.32813,-3.95475 1.20312,0.2317 2.1875,1.21045 2.1875,2.17499 0,1.97358 -2.20537,3.09001 -3.51563,1.77976 z m 8.55641,-0.37672 c -1.09905,-1.7783 0.30247,-3.81599 2.62464,-3.81599 1.09519,0 1.72257,0.8782 1.48873,2.08391 -0.4869,2.51059 -2.98271,3.56153 -4.11337,1.73208 z m 9.33422,-1.31599 c 0,-1.88269 0.65268,-2.55761 2.1875,-2.26204 2.83889,0.54673 2.83889,3.97735 0,4.52408 -1.53482,0.29557 -2.1875,-0.37935 -2.1875,-2.26204 z m 9.41578,1.31599 c -1.09905,-1.7783 0.30247,-3.81599 2.62464,-3.81599 1.09519,0 1.72257,0.8782 1.48873,2.08391 -0.4869,2.51059 -2.98271,3.56153 -4.11337,1.73208 z m 8.53946,-0.68263 c -0.43296,-1.12827 -0.18782,-2.65078 0.54476,-3.38336 1.90451,-1.90451 5.51301,-0.16386 5.01552,2.41936 -0.55412,2.87735 -4.55958,3.57179 -5.56028,0.964 z m 9.94838,-0.13451 c -0.95865,-2.4982 2.08175,-4.5671 4.16765,-2.83595 1.89148,1.56978 0.79773,4.8371 -1.61924,4.8371 -0.97927,0 -2.12606,-0.90052 -2.54841,-2.00115 z m 8.89724,0.6312 c -0.46567,-0.75347 0.01,-2.22629 1.05628,-3.27291 2.27819,-2.27819 4.64286,-1.14923 4.64286,2.21664 0,2.65501 -4.22689,3.43842 -5.69914,1.05627 z m 10.07414,0.11995 c -1.0463,-1.69295 0.36553,-3.75 2.57377,-3.75 0.99068,0 1.80123,1.125 1.80123,2.5 0,2.58789 -3.01564,3.4495 -4.375,1.25 z m 10.23437,0.44271 c -1.7173,-1.71731 -0.82655,-4.3697 1.32813,-3.95475 1.20312,0.2317 2.1875,1.21045 2.1875,2.17499 0,1.97358 -2.20537,3.09001 -3.51563,1.77976 z m 8.31041,-1.15173 c -1.04182,-2.71495 1.60305,-5.26814 3.49619,-3.375 1.60005,1.60005 0.60881,5.33402 -1.41597,5.33402 -0.73065,0 -1.66675,-0.88156 -2.08022,-1.95902 z m 9.16325,0.17541 c -0.9071,-2.36386 1.90159,-4.61647 4.07854,-3.27104 2.06975,1.27917 0.8645,5.05465 -1.61361,5.05465 -0.97926,0 -2.08849,-0.80262 -2.46493,-1.78361 z m 10.04352,0.99349 c -0.4821,-0.4821 -0.87655,-1.94692 -0.87655,-3.25515 0,-1.75172 0.74123,-2.27333 2.8125,-1.97917 1.83863,0.26113 2.8125,1.25916 2.8125,2.88231 0,2.47952 -3.09028,4.01018 -4.74845,2.35201 z m 9.54323,-1.1689 c -1.04182,-2.71495 1.60305,-5.26814 3.49619,-3.375 1.60005,1.60005 0.60881,5.33402 -1.41597,5.33402 -0.73065,0 -1.66675,-0.88156 -2.08022,-1.95902 z m 7.91325,0.17541 c -1.04418,-2.72109 2.45724,-5.15404 4.71767,-3.27805 2.27517,1.88822 1.14621,5.06166 -1.8007,5.06166 -1.22789,0 -2.54053,-0.80262 -2.91697,-1.78361 z m -177.00305,-8.745 c -1.94042,-2.33806 -0.70915,-4.47139 2.58072,-4.47139 1.86868,0 2.41073,0.69615 2.11373,2.71459 -0.49914,3.39217 -2.66464,4.20256 -4.69445,1.7568 z m 28.98251,0.8932 c -2.18052,-0.79953 -1.9531,-3.69723 0.35982,-4.58478 1.11396,-0.42746 2.23504,0.0772 2.66598,1.20029 0.88075,2.2952 -0.81711,4.19434 -3.0258,3.38449 z m 18.52593,-0.30994 c -2.06976,-1.27917 -0.86451,-5.05465 1.6136,-5.05465 0.97928,0 2.0885,0.80262 2.46493,1.78361 0.9071,2.36386 -1.90158,4.61647 -4.07853,3.27104 z m 17.75926,-0.20698 c -1.90229,-1.90227 -0.59456,-4.84767 2.15232,-4.84767 2.74687,0 4.0546,2.9454 2.15231,4.84767 -0.77127,0.77129 -1.73981,1.40233 -2.15231,1.40233 -0.4125,0 -1.38105,-0.63104 -2.15232,-1.40233 z m 17.62732,-0.41281 c -0.96926,-2.52585 0.47225,-4.43486 3.34877,-4.43486 1.75464,0 2.42623,0.865 2.42623,3.125 0,2.30776 -0.66406,3.125 -2.53924,3.125 -1.39657,0 -2.85267,-0.81681 -3.23576,-1.81514 z m 20.35833,0.9818 c -1.83144,-1.83144 -0.77712,-5.41666 1.59289,-5.41666 3.19073,0 4.41888,2.15179 2.52833,4.42975 -1.65021,1.98839 -2.83583,2.27231 -4.12122,0.98691 z m 9.24666,-0.94527 c -1.94042,-2.33806 -0.70915,-4.47139 2.58072,-4.47139 1.86867,0 2.41073,0.69615 2.11372,2.71459 -0.49914,3.39217 -2.66464,4.20256 -4.69444,1.7568 z m 19.13692,-0.0576 c -0.37864,-0.98674 -0.33934,-2.35893 0.0874,-3.04934 1.02175,-1.65323 4.44572,-0.29732 4.44572,1.76058 0,2.34846 -3.72054,3.40624 -4.53309,1.28879 z m 9.84559,0.95718 c -2.13565,-0.79179 -1.97702,-4.94443 0.22111,-5.78793 0.98097,-0.37644 2.47954,0.15411 3.33011,1.179 1.23865,1.49248 1.19463,2.19438 -0.2211,3.52583 -0.9722,0.91431 -2.47075,1.40171 -3.33012,1.0831 z m 8.78517,-0.52329 c -1.90227,-1.90225 -0.59455,-4.84765 2.15233,-4.84765 2.74687,0 4.0546,2.9454 2.15232,4.84767 -0.77129,0.77129 -1.73982,1.40233 -2.15232,1.40233 -0.4125,0 -1.38104,-0.63104 -2.15233,-1.40233 z m 18.34066,-0.54698 c -1.15926,-1.39682 -1.15926,-2.20457 0,-3.60139 1.88823,-2.27515 5.06167,-1.14619 5.06167,1.80072 0,2.94691 -3.17344,4.07588 -5.06167,1.8007 z m -159.38065,-0.65959 c -1.09085,-1.76503 1.31837,-4.17425 3.0834,-3.0834 0.7474,0.46192 1.35891,1.65041 1.35891,2.64109 0,2.10452 -3.21704,2.42483 -4.44231,0.44231 z m 9.44231,-0.51609 c 0,-1.25424 0.81982,-1.90042 2.09861,-1.65415 1.15424,0.22228 2.09861,0.96665 2.09861,1.65415 0,0.6875 -0.94437,1.43187 -2.09861,1.65415 -1.27879,0.24627 -2.09861,-0.39991 -2.09861,-1.65415 z m 18.98797,-0.3125 c 0.53124,-2.75855 2.75438,-2.69851 3.29119,0.0889 0.24627,1.27882 -0.39992,2.09863 -1.65416,2.09863 -1.28745,0 -1.90054,-0.81925 -1.63703,-2.1875 z m 18.72814,0.1135 c 0.24372,-1.26555 1.27918,-2.30101 2.30101,-2.30101 2.67939,0 2.29238,3.63208 -0.44313,4.1589 -1.6705,0.3217 -2.17959,-0.18739 -1.85788,-1.85789 z m 18.75,0 c 0.24372,-1.26555 1.27918,-2.30101 2.30101,-2.30101 2.67939,0 2.29238,3.63208 -0.44313,4.1589 -1.6705,0.3217 -2.17959,-0.18739 -1.85788,-1.85789 z m 18.5339,-0.426 c 0,-1.66666 0.83333,-2.5 2.5,-2.5 1.66666,0 2.5,0.83334 2.5,2.5 0,1.66666 -0.83334,2.5 -2.5,2.5 -1.66667,0 -2.5,-0.83334 -2.5,-2.5 z m 28.125,1.25 c -1.0463,-1.69295 0.36553,-3.75 2.57377,-3.75 0.99068,0 1.80123,1.125 1.80123,2.5 0,2.58789 -3.01564,3.4495 -4.375,1.25 z m 37.47546,-0.0398 c -0.48545,-0.78547 -0.29445,-2.01631 0.42442,-2.73519 1.67988,-1.67987 5.59643,-0.21461 4.91298,1.83805 -0.69575,2.0896 -4.23296,2.68415 -5.3374,0.89714 z m 19.39954,-1.21025 c 0,-1.88269 0.65268,-2.55761 2.1875,-2.26204 1.20312,0.2317 2.1875,1.24962 2.1875,2.26204 0,1.01243 -0.98438,2.03034 -2.1875,2.26204 -1.53482,0.29557 -2.1875,-0.37935 -2.1875,-2.26204 z m -168.43751,-5.87899 c -2.13564,-0.79179 -1.97701,-4.94442 0.22111,-5.78792 0.98099,-0.37644 2.47954,0.15411 3.33012,1.179 1.23864,1.49247 1.19463,2.19437 -0.22111,3.52582 -0.97219,0.91432 -2.47074,1.40171 -3.33012,1.0831 z m 27.12584,-1.07026 c -1.15927,-1.39683 -1.15927,-2.20458 0,-3.6014 1.88822,-2.27517 5.06166,-1.14621 5.06166,1.8007 0,2.94691 -3.17344,4.07588 -5.06166,1.8007 z m -38.06334,-0.5507 c -1.0463,-1.69295 0.36553,-3.75 2.57377,-3.75 0.99068,0 1.80123,1.125 1.80123,2.5 0,2.58789 -3.01564,3.4495 -4.375,1.25 z m 18.72546,-0.0398 c -0.48544,-0.78547 -0.29445,-2.01631 0.42444,-2.73519 1.67987,-1.67987 5.59642,-0.21461 4.91297,1.83805 -0.69576,2.0896 -4.23297,2.68415 -5.33741,0.89714 z m 8.98258,-0.49391 c -1.04418,-2.72109 2.45723,-5.15404 4.71766,-3.27805 2.27517,1.88827 1.14622,5.06171 -1.8007,5.06171 -1.22789,0 -2.54052,-0.80262 -2.91696,-1.78361 z m 20.72946,0.89825 c -2.18052,-0.79953 -1.9531,-3.69723 0.35982,-4.58478 1.11396,-0.42746 2.23504,0.0772 2.66598,1.20029 0.88075,2.2952 -0.81711,4.19434 -3.0258,3.38449 z m 8.4375,-1.61459 c 0,-1.88269 0.65269,-2.55761 2.18751,-2.26204 1.20312,0.2317 2.1875,1.24962 2.1875,2.26204 0,1.01243 -0.98438,2.03034 -2.1875,2.26204 -1.53482,0.29557 -2.18751,-0.37935 -2.18751,-2.26204 z m 8.75001,0.0737 c 0,-3.36586 2.36467,-4.49483 4.64285,-2.21664 2.27819,2.27822 1.14923,4.64289 -2.21663,4.64289 -1.5683,0 -2.42622,-0.85793 -2.42622,-2.42622 z m 9.30086,1.05627 c -1.102,-1.78307 2.54611,-5.43118 4.32918,-4.32918 0.75348,0.4657 1.36996,1.93851 1.36996,3.27294 0,2.65501 -4.22689,3.43842 -5.69914,1.05627 z m 9.44914,-1.13002 c 0,-1.66666 0.83333,-2.5 2.5,-2.5 1.66666,0 2.5,0.83334 2.5,2.5 0,1.66666 -0.83334,2.5 -2.5,2.5 -1.66667,0 -2.5,-0.83334 -2.5,-2.5 z m 10,-0.625 c 0,-2.70607 0.5054,-3.2271 2.8125,-2.89944 1.84602,0.26218 2.8125,1.25853 2.8125,2.89944 0,1.64091 -0.96648,2.63726 -2.8125,2.89944 -2.3071,0.32766 -2.8125,-0.19336 -2.8125,-2.89944 z m 9.41578,1.94099 c -1.09905,-1.7783 0.30247,-3.81599 2.62464,-3.81599 1.09519,0 1.72257,0.8782 1.48873,2.08391 -0.4869,2.51059 -2.98271,3.56153 -4.11337,1.73208 z m 8.91725,-0.5996 c -1.04418,-2.72109 2.45724,-5.15404 4.71766,-3.27805 2.27518,1.88822 1.14622,5.06166 -1.80069,5.06166 -1.22789,0 -2.54053,-0.80262 -2.91697,-1.78361 z m 9.83275,0.5996 c -1.09905,-1.7783 0.30247,-3.81599 2.62464,-3.81599 1.09519,0 1.72256,0.8782 1.48873,2.08391 -0.4869,2.51059 -2.9827,3.56153 -4.11337,1.73208 z m 8.91725,-0.5996 c -0.9071,-2.36386 1.90159,-4.61647 4.07854,-3.27104 2.06975,1.27917 0.8645,5.05465 -1.61361,5.05465 -0.97926,0 -2.08849,-0.80262 -2.46493,-1.78361 z m 11.21632,0.9163 c -1.49395,-1.49395 -0.80714,-4.13269 1.07565,-4.13269 1.03125,0 1.875,0.81055 1.875,1.80122 0,2.08832 -1.7841,3.49802 -2.95065,2.33147 z m 8.41756,-0.9689 c -0.37864,-0.98674 -0.33934,-2.35894 0.0874,-3.04934 1.02175,-1.65326 4.44572,-0.29735 4.44572,1.76055 0,2.34846 -3.72054,3.40624 -4.53309,1.28879 z m 19.14246,1.02892 c -1.7173,-1.71731 -0.82655,-4.3697 1.32813,-3.95475 1.20312,0.2317 2.1875,1.21045 2.1875,2.17499 0,1.97358 -2.20537,3.09001 -3.51563,1.77976 z m 7.89063,-1.61893 c 0,-3.36587 2.36467,-4.49483 4.64286,-2.21664 2.27819,2.27819 1.14922,4.64286 -2.21664,4.64286 -1.5683,0 -2.42622,-0.85793 -2.42622,-2.42622 z m -17.88269,0.37687 c -1.16655,-1.16655 0.24315,-2.95065 2.33146,-2.95065 0.99068,0 1.80123,0.84375 1.80123,1.875 0,1.88279 -2.63874,2.5696 -4.13269,1.07565 z m -159.26964,-8.10288 c -1.90228,-1.90227 -0.59456,-4.84767 2.15232,-4.84767 2.74687,0 4.0546,2.9454 2.15232,4.84767 -0.77128,0.77129 -1.73982,1.40233 -2.15232,1.40233 -0.4125,0 -1.38104,-0.63104 -2.15232,-1.40233 z m 8.82211,-0.55669 c -1.04182,-2.71495 1.60305,-5.26815 3.49619,-3.375 1.60004,1.60005 0.60881,5.33402 -1.41598,5.33402 -0.73065,0 -1.66675,-0.88156 -2.08021,-1.95902 z m 8.75,0 c -0.41346,-1.07747 -0.15236,-2.5584 0.58021,-3.29098 1.94432,-1.94432 5.25,-0.23747 5.25,2.71078 0,3.08276 -4.69075,3.54957 -5.83021,0.5802 z m 10.91864,0.76367 c -2.06976,-1.27917 -0.86451,-5.05465 1.6136,-5.05465 0.97928,0 2.0885,0.80262 2.46493,1.78361 0.9071,2.36386 -1.90158,4.61647 -4.07853,3.27104 z m 9.08136,-0.76367 c -1.04182,-2.71495 1.60305,-5.26815 3.49619,-3.375 1.60004,1.60005 0.60881,5.33402 -1.41598,5.33402 -0.73065,0 -1.66675,-0.88156 -2.08021,-1.95902 z m 27.91355,1.12568 c -1.83144,-1.83144 -0.77712,-5.41666 1.59289,-5.41666 3.19073,0 4.41888,2.15179 2.52833,4.42975 -1.65021,1.98839 -2.83583,2.27231 -4.12122,0.98691 z m 9.32956,-0.84538 c -1.73114,-2.08591 0.33775,-5.1263 2.83595,-4.16766 1.10064,0.42236 2.00116,1.56914 2.00116,2.54842 0,2.41696 -3.26732,3.51071 -4.83711,1.61924 z m 9.04235,-0.18792 c -0.43296,-1.12827 -0.18782,-2.65078 0.54476,-3.38336 1.90451,-1.90451 5.51301,-0.16386 5.01552,2.41936 -0.55412,2.87735 -4.55958,3.57179 -5.56028,0.964 z m 47.51167,0.0304 c -0.37864,-0.98674 -0.33934,-2.35894 0.0874,-3.04934 1.02175,-1.65322 4.44572,-0.2973 4.44572,1.7606 0,2.34846 -3.72054,3.40624 -4.53309,1.28879 z m 9.68352,0.14247 c -1.08928,-1.31251 -1.01921,-2.06653 0.2933,-3.15582 1.31252,-1.08929 2.06654,-1.01922 3.15583,0.2933 1.08929,1.31251 1.01921,2.06653 -0.2933,3.15582 -1.31251,1.08929 -2.06654,1.01921 -3.15583,-0.2933 z m 17.86002,-0.029 c -1.01172,-2.63645 0.40837,-4.52721 3.40026,-4.52721 1.88841,0 2.41386,0.69599 2.11372,2.79973 -0.46617,3.26747 -4.44473,4.51393 -5.51398,1.72751 z m -112.45277,-0.88617 c -1.09085,-1.76502 1.31837,-4.17424 3.0834,-3.0834 1.98252,1.22529 1.66221,4.44234 -0.44232,4.44234 -0.99067,0 -2.17916,-0.61151 -2.64108,-1.35891 z m 9.44231,-1.14106 c 0,-1.88269 0.65269,-2.55761 2.18751,-2.26204 1.20312,0.2317 2.1875,1.24962 2.1875,2.26204 0,1.01243 -0.98438,2.03034 -2.1875,2.26204 -1.53482,0.29557 -2.18751,-0.37935 -2.18751,-2.26204 z m 37.71611,0.42601 c 0.24372,-1.26555 1.27918,-2.30101 2.30101,-2.30101 2.67939,0 2.29238,3.63209 -0.44313,4.1589 -1.6705,0.3217 -2.17959,-0.18739 -1.85788,-1.85789 z m 9.1589,0.82399 c -1.0463,-1.69295 0.36553,-3.75 2.57377,-3.75 0.99067,0 1.80123,1.125 1.80123,2.5 0,2.58789 -3.01564,3.4495 -4.375,1.25 z m 9.5911,-0.82399 c 0.24372,-1.26555 1.27918,-2.30101 2.30101,-2.30101 2.67939,0 2.29238,3.63209 -0.44313,4.1589 -1.6705,0.3217 -2.17959,-0.18739 -1.85788,-1.85789 z m 9.09158,0.71508 c -0.46192,-0.74741 -0.26288,-1.9359 0.44232,-2.64109 1.57703,-1.57704 4,-0.24515 4,2.19878 0,2.10452 -3.21705,2.42483 -4.44232,0.44231 z m 28.19232,-1.14109 c 0,-1.88269 0.65268,-2.55761 2.1875,-2.26204 2.83888,0.54672 2.83888,3.97735 0,4.52408 -1.53482,0.29557 -2.1875,-0.37935 -2.1875,-2.26204 z m 18.9661,0.42601 c 0.52681,-2.73551 4.1589,-3.12251 4.1589,-0.44314 0,1.02184 -1.03547,2.05731 -2.30102,2.30103 -1.6705,0.3217 -2.17958,-0.18739 -1.85788,-1.85789 z m 9.1589,0.82399 c -1.0463,-1.69295 0.36553,-3.75 2.57377,-3.75 0.99068,0 1.80123,1.125 1.80123,2.5 0,2.58789 -3.01564,3.4495 -4.375,1.25 z m -177.26564,-8.30729 c -1.7173,-1.71731 -0.82654,-4.3697 1.32813,-3.95475 1.20312,0.2317 2.1875,1.21045 2.1875,2.17499 0,1.97357 -2.20537,3.09002 -3.51563,1.77976 z m 8.29425,-1.19387 c -0.95865,-2.49819 2.08176,-4.56709 4.16766,-2.83594 1.89147,1.56978 0.79773,4.8371 -1.61925,4.8371 -0.97927,0 -2.12605,-0.90052 -2.54841,-2.00116 z m 9.59638,-0.49884 c 0,-1.88269 0.65269,-2.55761 2.1875,-2.26204 1.20313,0.2317 2.1875,1.24962 2.1875,2.26204 0,1.01242 -0.98437,2.03034 -2.1875,2.26204 -1.53481,0.29557 -2.1875,-0.37935 -2.1875,-2.26204 z m 8.75,0.0738 c 0,-3.36586 2.36467,-4.49482 4.64286,-2.21663 2.27819,2.27818 1.14923,4.64285 -2.21663,4.64285 -1.5683,0 -2.42623,-0.85792 -2.42623,-2.42623 z m 9.58304,0.64261 c -0.9071,-2.36386 1.90159,-4.61647 4.07853,-3.27104 2.06976,1.27918 0.86451,5.05465 -1.6136,5.05465 -0.97927,0 -2.08849,-0.80262 -2.46493,-1.78361 z m 9.83274,0.5996 c -1.09905,-1.77831 0.30248,-3.81599 2.62465,-3.81599 1.09519,0 1.72256,0.8782 1.48873,2.08392 -0.48691,2.51058 -2.98271,3.56152 -4.11338,1.73206 z m 8.63509,-0.18594 c -1.102,-1.78308 2.54611,-5.43118 4.32918,-4.32918 0.75348,0.46567 1.36996,1.93848 1.36996,3.2729 0,2.65502 -4.22689,3.43843 -5.69914,1.05628 z m 10.11492,0.18594 c -1.09905,-1.77831 0.30247,-3.81599 2.62464,-3.81599 1.09519,0 1.72257,0.8782 1.48873,2.08392 -0.4869,2.51058 -2.98271,3.56152 -4.11337,1.73206 z m 10.19359,0.37672 c -1.7173,-1.7173 -0.82655,-4.36969 1.32813,-3.95474 1.20312,0.2317 2.1875,1.21044 2.1875,2.17499 0,1.97356 -2.20537,3.09001 -3.51563,1.77975 z m 8.67044,-1.11502 c -0.79484,-2.07131 2.02905,-3.80689 4.10573,-2.52343 1.65327,1.02178 0.29736,4.44574 -1.76054,4.44574 -0.88414,0 -1.93948,-0.86504 -2.34519,-1.92232 z m 17.66306,0.35981 c -0.93079,-2.53108 0.34699,-4.6875 2.77756,-4.6875 2.43057,0 3.74916,2.15642 2.86626,4.6875 -0.29976,0.85938 -1.56297,1.5625 -2.80713,1.5625 -1.24415,0 -2.52066,-0.70312 -2.83669,-1.5625 z m 9.89016,-0.22111 c -0.9071,-2.36386 1.90159,-4.61647 4.07854,-3.27104 2.06975,1.27918 0.86451,5.05465 -1.61361,5.05465 -0.97927,0 -2.08849,-0.80262 -2.46493,-1.78361 z m 8.75,0 c -1.04418,-2.72109 2.45724,-5.15404 4.71767,-3.27805 2.27517,1.88822 1.14621,5.06166 -1.8007,5.06166 -1.22789,0 -2.54053,-0.80262 -2.91697,-1.78361 z m 9.79197,0.53361 c -1.02005,-1.65047 0.34607,-3.75 2.44003,-3.75 1.82835,0 3.4584,3.0599 2.2655,4.25279 -1.16562,1.16563 -3.85178,0.87861 -4.70553,-0.50279 z m 8.67586,-0.11995 c -0.46568,-0.75347 0.01,-2.22628 1.05627,-3.27291 2.27819,-2.27818 4.64287,-1.14922 4.64287,2.21663 0,2.65502 -4.22689,3.43843 -5.69914,1.05628 z m 11.55851,0.56266 c -1.7173,-1.7173 -0.82655,-4.3697 1.32813,-3.95475 1.20312,0.23171 2.1875,1.21045 2.1875,2.17499 0,1.97357 -2.20537,3.09002 -3.51563,1.77976 z m 7.89063,-1.61894 c 0,-3.36586 2.36467,-4.49481 4.64286,-2.21663 2.27819,2.27819 1.14922,4.64286 -2.21664,4.64286 -1.5683,0 -2.42622,-0.85792 -2.42622,-2.42623 z m 9.30086,1.05628 c -1.102,-1.78308 2.54611,-5.43118 4.32919,-4.32918 0.75347,0.46567 1.36995,1.93848 1.36995,3.2729 0,2.65502 -4.22689,3.43843 -5.69914,1.05628 z M 393.3033,748.977 c 0,-1.04167 1.11111,-1.875 2.5,-1.875 1.38888,0 2.5,0.83333 2.5,1.875 0,1.04167 -1.11112,1.875 -2.5,1.875 -1.38889,0 -2.5,-0.83333 -2.5,-1.875 z m 83.98796,-0.3125 c 0.2317,-1.20312 1.24961,-2.1875 2.26204,-2.1875 1.01242,0 2.03033,0.98438 2.26203,2.1875 0.29558,1.53481 -0.37935,2.1875 -2.26203,2.1875 -1.88269,0 -2.55762,-0.65269 -2.26204,-2.1875 z m -158.82507,-6.99124 c -1.73114,-2.0859 0.33775,-5.1263 2.83595,-4.16766 1.10063,0.42236 2.00115,1.56914 2.00115,2.54841 0,2.41697 -3.26732,3.51072 -4.8371,1.61925 z m 10.1496,0.79968 c -2.13564,-0.79179 -1.977,-4.94443 0.22111,-5.78792 0.98099,-0.37644 2.47954,0.15411 3.33012,1.179 1.23864,1.49247 1.19463,2.19437 -0.22111,3.52582 -0.97219,0.91432 -2.47074,1.40171 -3.33012,1.0831 z m 27.2675,-0.89957 c -1.94043,-2.33807 -0.70916,-4.47139 2.58072,-4.47139 1.86867,0 2.41073,0.69614 2.11372,2.71459 -0.49914,3.39217 -2.66464,4.20256 -4.69444,1.7568 z m 18.60834,-0.17069 c -1.15926,-1.39683 -1.15926,-2.20457 0,-3.6014 1.88823,-2.27517 5.06167,-1.14621 5.06167,1.8007 0,2.94691 -3.17344,4.07587 -5.06167,1.8007 z m 18.89166,0.17069 c -1.94042,-2.33807 -0.70915,-4.47139 2.58072,-4.47139 1.86867,0 2.41073,0.69614 2.11372,2.71459 -0.49914,3.39217 -2.66464,4.20256 -4.69444,1.7568 z m 28.98251,0.89957 c -2.13565,-0.79179 -1.97701,-4.94443 0.22111,-5.78792 0.98097,-0.37644 2.47954,0.15411 3.33011,1.179 1.23865,1.49247 1.19463,2.19437 -0.2211,3.52582 -0.9722,0.91432 -2.47075,1.40171 -3.33012,1.0831 z m 8.5175,-0.89957 c -1.94043,-2.33807 -0.70917,-4.47139 2.58071,-4.47139 1.86867,0 2.41072,0.69614 2.11372,2.71459 -0.49913,3.39217 -2.66463,4.20256 -4.69443,1.7568 z m 46.51767,0.37629 c -1.90227,-1.90228 -0.59455,-4.84768 2.15233,-4.84768 2.74687,0 4.0546,2.9454 2.15232,4.84768 -0.77129,0.77128 -1.73982,1.40232 -2.15232,1.40232 -0.4125,0 -1.38104,-0.63104 -2.15233,-1.40232 z M 299.76939,740.028 c 0.24373,-1.26556 1.27918,-2.30102 2.30102,-2.30102 2.67938,0 2.29238,3.63209 -0.44314,4.1589 -1.67049,0.32171 -2.17959,-0.18739 -1.85788,-1.85788 z m 8.77186,-0.11352 c 0.23171,-1.20312 1.24962,-2.1875 2.26204,-2.1875 1.01242,0 2.03034,0.98438 2.26204,2.1875 0.29558,1.53481 -0.37935,2.1875 -2.26204,2.1875 -1.88268,0 -2.55761,-0.65269 -2.26204,-2.1875 z m 28.75001,0 c 0.2317,-1.20312 1.24961,-2.1875 2.26203,-2.1875 1.01242,0 2.03034,0.98438 2.26204,2.1875 0.29558,1.53481 -0.37935,2.1875 -2.26204,2.1875 -1.88268,0 -2.55761,-0.65269 -2.26203,-2.1875 z m 8.75,0 c 0.54672,-2.83889 3.97735,-2.83889 4.52407,0 0.29558,1.53481 -0.37935,2.1875 -2.26204,2.1875 -1.88268,0 -2.55761,-0.65269 -2.26203,-2.1875 z m 19.13704,0.9375 c -1.0463,-1.69295 0.36553,-3.75 2.57377,-3.75 0.99067,0 1.80123,1.125 1.80123,2.5 0,2.58788 -3.01564,3.44949 -4.375,1.25 z m 18.68268,-0.10891 c -0.46192,-0.74741 -0.26288,-1.9359 0.44232,-2.64109 1.57703,-1.57704 4,-0.24515 4,2.19877 0,2.10453 -3.21705,2.42484 -4.44232,0.44232 z m 18.75,0 c -0.46192,-0.74741 -0.26288,-1.9359 0.44232,-2.64109 1.57703,-1.57704 4,-0.24515 4,2.19877 0,2.10453 -3.21705,2.42484 -4.44232,0.44232 z m 9.68028,-0.82859 c 0.53125,-2.75855 2.75439,-2.69851 3.29119,0.0889 0.24627,1.27879 -0.39992,2.09861 -1.65415,2.09861 -1.28745,0 -1.90054,-0.81925 -1.63704,-2.1875 z m 28.51204,-0.3125 c 0,-1.88269 0.65268,-2.55761 2.1875,-2.26204 2.83888,0.54672 2.83888,3.97736 0,4.52408 -1.53482,0.29557 -2.1875,-0.37935 -2.1875,-2.26204 z m 8.75,0 c 0,-1.66667 0.83333,-2.5 2.5,-2.5 1.66666,0 2.5,0.83333 2.5,2.5 0,1.66667 -0.83334,2.5 -2.5,2.5 -1.66667,0 -2.5,-0.83333 -2.5,-2.5 z m 9.375,1.25 c -1.0463,-1.69295 0.36553,-3.75 2.57377,-3.75 0.99068,0 1.80123,1.125 1.80123,2.5 0,2.58788 -3.01564,3.44949 -4.375,1.25 z m 9.375,-1.25 c 0,-1.66667 0.83333,-2.5 2.5,-2.5 1.66666,0 2.5,0.83333 2.5,2.5 0,1.66667 -0.83334,2.5 -2.5,2.5 -1.66667,0 -2.5,-0.83333 -2.5,-2.5 z m -74.16667,-5.83333 c -1.83144,-1.83144 -0.77712,-5.41667 1.59289,-5.41667 3.19073,0 4.41888,2.15178 2.52833,4.42976 -1.65021,1.98838 -2.83583,2.2723 -4.12122,0.98691 z m -95.0003,-2.20028 c -0.9071,-2.36386 1.90158,-4.61647 4.07853,-3.27104 2.06976,1.27918 0.86451,5.05465 -1.6136,5.05465 -0.97928,0 -2.08849,-0.80262 -2.46493,-1.78361 z m 9.79196,0.53361 c -1.0463,-1.69295 0.36553,-3.75 2.57377,-3.75 0.99068,0 1.80123,1.125 1.80123,2.5 0,2.58788 -3.01564,3.44949 -4.375,1.25 z m 9.375,-1.25 c 0,-1.88269 0.65269,-2.55761 2.1875,-2.26204 1.20313,0.2317 2.1875,1.24962 2.1875,2.26204 0,1.01242 -0.98437,2.03034 -2.1875,2.26204 -1.53481,0.29557 -2.1875,-0.37935 -2.1875,-2.26204 z m 9.41578,1.31598 c -1.09905,-1.7783 0.30248,-3.81598 2.62465,-3.81598 1.09519,0 1.72256,0.8782 1.48873,2.08392 -0.48691,2.51058 -2.98271,3.56152 -4.11338,1.73206 z m 8.48784,-0.81714 c -1.06565,-2.77704 2.26333,-4.61633 4.43179,-2.44859 0.94072,0.94042 1.3294,2.32633 0.86373,3.0798 -1.25754,2.03474 -4.41701,1.65814 -5.29552,-0.63121 z m 18.89725,0.63121 c -1.102,-1.78308 2.54611,-5.43118 4.32918,-4.32918 0.75348,0.46567 1.36996,1.93848 1.36996,3.2729 0,2.65502 -4.22689,3.43843 -5.69914,1.05628 z m 10.22895,-0.55237 c -0.79484,-2.0713 2.02905,-3.80688 4.10573,-2.52342 1.65327,1.02178 0.29736,4.44574 -1.76054,4.44574 -0.88414,0 -1.93948,-0.86504 -2.34519,-1.92232 z m 8.52105,0.55237 c -1.102,-1.78308 2.54611,-5.43118 4.32918,-4.32918 0.75348,0.46567 1.36996,1.93848 1.36996,3.2729 0,2.65502 -4.22689,3.43843 -5.69914,1.05628 z m 9.44914,-1.05628 c 0,-3.36586 2.36467,-4.49481 4.64285,-2.21663 2.27819,2.27819 1.14923,4.64286 -2.21663,4.64286 -1.5683,0 -2.42622,-0.85792 -2.42622,-2.42623 z m 20.3125,1.54081 c -2.18052,-0.79952 -1.95311,-3.69722 0.35981,-4.58477 1.11396,-0.42746 2.23504,0.0773 2.66598,1.20029 0.88075,2.2952 -0.81711,4.19434 -3.02579,3.38448 z m 9.23685,0.0181 c -1.49395,-1.49394 -0.80714,-4.13268 1.07565,-4.13268 1.03125,0 1.875,0.81055 1.875,1.80123 0,2.0883 -1.7841,3.49801 -2.95065,2.33145 z m 9.21765,-0.37217 c -2.26881,-1.4022 -0.51671,-5.29005 2.15236,-4.77604 1.19731,0.23058 2.35162,1.32638 2.56515,2.4351 0.45699,2.37293 -2.3844,3.78288 -4.71751,2.34094 z m 9.56633,0.40616 c -1.83143,-1.83144 -0.77712,-5.41667 1.59289,-5.41667 2.94523,0 4.093,1.59396 3.0691,4.2622 -0.78319,2.04094 -3.1816,2.63486 -4.66199,1.15447 z m 17.1219,-1.03331 c -0.43295,-1.12827 -0.18781,-2.65078 0.54477,-3.38336 1.90451,-1.90451 5.51301,-0.16386 5.01552,2.41936 -0.55412,2.87736 -4.55957,3.57179 -5.56029,0.964 z m 9.54477,-0.5417 c 0,-1.78888 0.80278,-2.59166 2.59165,-2.59166 3.20331,0 2.83991,4.13729 -0.4185,4.7648 -1.5,0.28888 -2.17315,-0.38427 -2.17315,-2.17314 z m 10.85937,1.60105 c -1.7173,-1.7173 -0.82655,-4.3697 1.32813,-3.95475 1.20312,0.2317 2.1875,1.21045 2.1875,2.17499 0,1.97357 -2.20537,3.09002 -3.51563,1.77976 z m 8.29425,-1.19387 c -0.95865,-2.49819 2.08175,-4.56709 4.16765,-2.83594 1.89148,1.56978 0.79773,4.8371 -1.61924,4.8371 -0.97927,0 -2.12606,-0.90052 -2.54841,-2.00116 z m -131.41566,-1.43634 c 0.54672,-2.83889 3.97735,-2.83889 4.52407,0 0.29558,1.53481 -0.37935,2.1875 -2.26204,2.1875 -1.88268,0 -2.55761,-0.65269 -2.26203,-2.1875 z m 93.75,0 c 0.54672,-2.83889 3.97735,-2.83889 4.52407,0 0.29558,1.53481 -0.37935,2.1875 -2.26203,2.1875 -1.88269,0 -2.55762,-0.65269 -2.26204,-2.1875 z m -140.15798,-7.09111 c -1.94042,-2.33807 -0.70915,-4.47139 2.58072,-4.47139 1.86868,0 2.41073,0.69614 2.11373,2.71459 -0.49914,3.39217 -2.66464,4.20256 -4.69445,1.7568 z m 9.50334,0.94528 c -1.83144,-1.83144 -0.77712,-5.41667 1.5929,-5.41667 3.19073,0 4.41888,2.15178 2.52833,4.42976 -1.65021,1.98838 -2.83583,2.2723 -4.12123,0.98691 z m 18.75001,0 c -1.83144,-1.83144 -0.77712,-5.41667 1.59289,-5.41667 3.19073,0 4.41888,2.15178 2.52833,4.42976 -1.65021,1.98838 -2.83583,2.2723 -4.12122,0.98691 z m 10.02604,0.026 c -1.7694,-1.76939 -0.76817,-4.1927 1.73228,-4.1927 1.74745,0 2.46,0.67881 2.1875,2.08392 -0.44618,2.3006 -2.58001,3.44857 -3.91978,2.10879 z m 9.03499,-1.19498 c -1.11064,-1.33824 -1.15941,-2.23267 -0.17541,-3.21667 1.72605,-1.72606 5.28104,-0.43293 5.28104,1.92098 0,2.60474 -3.31998,3.44727 -5.10563,1.29569 z m 37.69407,0.80693 c -2.06976,-1.27918 -0.86451,-5.05465 1.6136,-5.05465 0.97927,0 2.08849,0.80262 2.46493,1.78361 0.9071,2.36386 -1.90159,4.61647 -4.07853,3.27104 z m 8.82446,-0.48338 c -1.73114,-2.08589 0.33775,-5.12629 2.83595,-4.16765 1.10064,0.42236 2.00116,1.56914 2.00116,2.54841 0,2.41697 -3.26732,3.51072 -4.83711,1.61925 z m 28.89961,0.79969 c -2.13565,-0.79179 -1.97701,-4.94443 0.22111,-5.78792 0.98097,-0.37644 2.47954,0.15411 3.33011,1.179 1.23865,1.49247 1.19463,2.19437 -0.2211,3.52582 -0.9722,0.91432 -2.47075,1.40171 -3.33012,1.0831 z m 9.29687,0.0718 c -1.7694,-1.7694 -0.76816,-4.19271 1.73228,-4.19271 1.74746,0 2.46001,0.67881 2.1875,2.08392 -0.44618,2.3006 -2.58,3.44857 -3.91978,2.10879 z m 8.72396,-0.026 c -1.83143,-1.83144 -0.77712,-5.41667 1.59289,-5.41667 3.19073,0 4.41888,2.15178 2.52834,4.42976 -1.65021,1.98838 -2.83584,2.2723 -4.12123,0.98691 z m 27.855,-1.11596 c -1.15926,-1.39683 -1.15926,-2.20457 0,-3.6014 1.88823,-2.27518 5.06167,-1.14622 5.06167,1.80069 0,2.94691 -3.17344,4.07587 -5.06167,1.8007 z m 10.15009,0.75395 c -2.06975,-1.27919 -0.8645,-5.05466 1.61361,-5.05466 0.97927,0 2.08849,0.80262 2.46493,1.78361 0.9071,2.36386 -1.90159,4.61647 -4.07854,3.27104 z m -160.41897,-0.80193 c -1.17342,-1.17342 0.42358,-4.25279 2.20554,-4.25279 1.78197,0 3.37896,3.07937 2.20554,4.25279 -0.41096,0.41097 -1.40345,0.74721 -2.20554,0.74721 -0.80208,0 -1.79457,-0.33624 -2.20554,-0.74721 z M 356.0194,721.278 c 0.24372,-1.26556 1.27918,-2.30102 2.30101,-2.30102 2.67939,0 2.29238,3.63209 -0.44313,4.1589 -1.6705,0.32171 -2.17959,-0.18739 -1.85788,-1.85788 z m 9.1589,0.82398 c -1.0463,-1.69295 0.36553,-3.75 2.57377,-3.75 0.99067,0 1.80123,1.125 1.80123,2.5 0,2.58788 -3.01564,3.44949 -4.375,1.25 z m 9.375,-1.25 c 0,-1.88269 0.65268,-2.55761 2.1875,-2.26204 2.83889,0.54672 2.83889,3.97736 0,4.52408 -1.53482,0.29557 -2.1875,-0.37935 -2.1875,-2.26204 z m 28.05768,1.14109 c -0.46192,-0.74741 -0.26288,-1.9359 0.44232,-2.64109 1.57703,-1.57704 4,-0.24515 4,2.19877 0,2.10453 -3.21705,2.42484 -4.44232,0.44232 z m 9.65842,-0.71507 c 0.24372,-1.26556 1.27918,-2.30102 2.30101,-2.30102 2.67939,0 2.29238,3.63209 -0.44313,4.1589 -1.6705,0.32171 -2.17959,-0.18739 -1.85788,-1.85788 z m 37.52186,-0.11352 c 0.54672,-2.83889 3.97735,-2.83889 4.52407,0 0.29558,1.53481 -0.37935,2.1875 -2.26203,2.1875 -1.88269,0 -2.55762,-0.65269 -2.26204,-2.1875 z m 9.76204,-0.3125 c 0,-1.88269 0.65268,-2.55761 2.1875,-2.26204 1.20312,0.2317 2.1875,1.24962 2.1875,2.26204 0,1.01242 -0.98438,2.03034 -2.1875,2.26204 -1.53482,0.29557 -2.1875,-0.37935 -2.1875,-2.26204 z m -149.68751,-5.87904 c -2.13564,-0.79178 -1.97701,-4.94443 0.22111,-5.78792 0.98099,-0.37644 2.47954,0.15411 3.33012,1.179 1.23864,1.49247 1.19463,2.19437 -0.22111,3.52582 -0.97219,0.91432 -2.47074,1.40171 -3.33012,1.0831 z m 45.87584,-1.07026 c -1.15927,-1.39683 -1.15927,-2.20457 0,-3.6014 1.88823,-2.27517 5.06167,-1.14621 5.06167,1.8007 0,2.94691 -3.17344,4.07587 -5.06167,1.8007 z m -55.32897,-0.10799 c -1.7173,-1.7173 -0.82654,-4.3697 1.32813,-3.95475 1.20312,0.2317 2.1875,1.21045 2.1875,2.17499 0,1.97357 -2.20537,3.09002 -3.51563,1.77976 z m 17.89063,-1.69271 c 0,-1.88269 0.65269,-2.55761 2.1875,-2.26204 1.20313,0.2317 2.1875,1.24962 2.1875,2.26204 0,1.01242 -0.98437,2.03034 -2.1875,2.26204 -1.53481,0.29557 -2.1875,-0.37935 -2.1875,-2.26204 z m 8.75,0.0738 c 0,-3.36586 2.36467,-4.49482 4.64286,-2.21663 2.27819,2.27818 1.14923,4.64285 -2.21663,4.64285 -1.5683,0 -2.42623,-0.85792 -2.42623,-2.42623 z m 10.85938,1.61893 c -1.7694,-1.7694 -0.76817,-4.19271 1.73228,-4.19271 1.74745,0 2.46,0.67881 2.1875,2.08392 -0.44618,2.3006 -2.58001,3.44857 -3.91978,2.10879 z m 8.75,0 c -1.7694,-1.7694 -0.76817,-4.19271 1.73228,-4.19271 1.74745,0 2.46,0.67881 2.1875,2.08392 -0.44618,2.3006 -2.58001,3.44857 -3.91978,2.10879 z m 18.29425,-1.19387 c -0.95865,-2.49819 2.08175,-4.56709 4.16765,-2.83594 1.89148,1.56978 0.79773,4.8371 -1.61924,4.8371 -0.97927,0 -2.12606,-0.90052 -2.54841,-2.00116 z m 10.45575,1.19387 c -1.76939,-1.7694 -0.76816,-4.19271 1.73228,-4.19271 1.74745,0 2.46001,0.67881 2.1875,2.08392 -0.44618,2.3006 -2.58,3.44857 -3.91978,2.10879 z m 8.55641,-0.37673 c -1.09905,-1.7783 0.30247,-3.81598 2.62464,-3.81598 1.09519,0 1.72257,0.8782 1.48873,2.08392 -0.4869,2.51058 -2.98271,3.56152 -4.11337,1.73206 z m 10.19359,0.37673 c -1.76939,-1.7694 -0.76816,-4.19271 1.73228,-4.19271 1.74745,0 2.46001,0.67881 2.1875,2.08392 -0.44618,2.3006 -2.58,3.44857 -3.91978,2.10879 z m 8.51563,-0.44271 c -1.0463,-1.69295 0.36553,-3.75 2.57377,-3.75 0.99067,0 1.80123,1.125 1.80123,2.5 0,2.58788 -3.01564,3.44949 -4.375,1.25 z m 8.95803,-0.53361 c -0.9071,-2.36386 1.90159,-4.61647 4.07854,-3.27104 2.06975,1.27918 0.86451,5.05465 -1.61361,5.05465 -0.97927,0 -2.08849,-0.80262 -2.46493,-1.78361 z m 9.76743,0.49391 c -0.48545,-0.78547 -0.29446,-2.01631 0.42443,-2.73519 1.67987,-1.67988 5.59642,-0.21461 4.91297,1.83805 -0.69575,2.0896 -4.23296,2.68416 -5.3374,0.89714 z m 8.98257,-0.49391 c -1.04418,-2.72109 2.45724,-5.15404 4.71767,-3.27805 2.27517,1.88822 1.14621,5.06166 -1.8007,5.06166 -1.22789,0 -2.54053,-0.80262 -2.91697,-1.78361 z m 9.83274,0.59959 c -1.09905,-1.7783 0.30249,-3.81598 2.62465,-3.81598 1.09519,0 1.72256,0.8782 1.48873,2.08392 -0.4869,2.51058 -2.9827,3.56152 -4.11338,1.73206 z m 10.1936,0.37673 c -1.7173,-1.7173 -0.82655,-4.3697 1.32813,-3.95475 1.20312,0.2317 2.1875,1.21045 2.1875,2.17499 0,1.97357 -2.20537,3.09002 -3.51563,1.77976 z m 7.89063,-1.61894 c 0,-3.36586 2.36467,-4.49481 4.64286,-2.21663 2.27819,2.27819 1.14922,4.64286 -2.21664,4.64286 -1.5683,0 -2.42622,-0.85792 -2.42622,-2.42623 z m 10,-0.0738 c 0,-1.66667 0.83333,-2.5 2.5,-2.5 1.66666,0 2.5,0.83333 2.5,2.5 0,1.66667 -0.83334,2.5 -2.5,2.5 -1.66667,0 -2.5,-0.83333 -2.5,-2.5 z m 9.41577,1.31598 c -1.09905,-1.7783 0.30249,-3.81598 2.62465,-3.81598 1.09519,0 1.72256,0.8782 1.48873,2.08392 -0.4869,2.51058 -2.9827,3.56152 -4.11338,1.73206 z m -149.83244,-8.3993 c -1.83144,-1.83144 -0.77712,-5.41667 1.59289,-5.41667 3.19073,0 4.41888,2.15178 2.52833,4.42976 -1.65021,1.98838 -2.83583,2.2723 -4.12122,0.98691 z m 19.25509,-0.36202 c -2.06976,-1.27918 -0.86451,-5.05465 1.6136,-5.05465 0.97928,0 2.0885,0.80262 2.46493,1.78361 0.9071,2.36386 -1.90158,4.61647 -4.07853,3.27104 z m 8.74157,-0.58326 c -1.94043,-2.33807 -0.70916,-4.47139 2.58072,-4.47139 1.86867,0 2.41073,0.69614 2.11372,2.71459 -0.49914,3.39217 -2.66464,4.20256 -4.69444,1.7568 z m 18.8329,0.0999 c -1.73114,-2.0859 0.33775,-5.1263 2.83595,-4.16766 1.10064,0.42236 2.00116,1.56914 2.00116,2.54841 0,2.41697 -3.26732,3.51072 -4.83711,1.61925 z m 28.67554,0.48337 c -2.06976,-1.27918 -0.86451,-5.05465 1.6136,-5.05465 0.97927,0 2.08849,0.80262 2.46493,1.78361 0.9071,2.36386 -1.90159,4.61647 -4.07853,3.27104 z m 17.92202,-0.52741 c -1.01172,-2.63648 0.40837,-4.52724 3.40026,-4.52724 1.88841,0 2.41386,0.69599 2.11372,2.79973 -0.46617,3.26747 -4.44473,4.51394 -5.51398,1.72751 z m 9.90933,-0.23626 c -1.04182,-2.71495 1.60305,-5.26815 3.49619,-3.375 1.60005,1.60004 0.60881,5.33402 -1.41597,5.33402 -0.73065,0 -1.66675,-0.88156 -2.08022,-1.95902 z m 17.5,0 c -0.41346,-1.07746 -0.15236,-2.5584 0.58022,-3.29098 1.94431,-1.94432 5.25,-0.23747 5.25,2.71077 0,3.08277 -4.69075,3.54958 -5.83022,0.58021 z m 10.41355,1.12569 c -1.83143,-1.83144 -0.77712,-5.41667 1.59289,-5.41667 3.19073,0 4.41888,2.15178 2.52834,4.42976 -1.65021,1.98838 -2.83584,2.2723 -4.12123,0.98691 z m -159.91388,-1.16389 c -1.17342,-1.17341 0.42358,-4.25279 2.20554,-4.25279 1.78196,0 3.37896,3.07938 2.20554,4.25279 -0.41096,0.41097 -1.40346,0.74721 -2.20554,0.74721 -0.80208,0 -1.79458,-0.33624 -2.20554,-0.74721 z m 9.63823,-0.6117 c -1.09085,-1.76503 1.31837,-4.17425 3.0834,-3.0834 1.98252,1.22527 1.66221,4.44231 -0.44232,4.44231 -0.99067,0 -2.17916,-0.61151 -2.64108,-1.35891 z m 9.65841,-0.71507 c 0.52682,-2.73552 4.1589,-3.12252 4.1589,-0.44314 0,1.02184 -1.03546,2.05729 -2.30101,2.30102 -1.6705,0.3217 -2.17959,-0.18739 -1.85789,-1.85788 z m 18.75,0 c 0.52682,-2.73552 4.1589,-3.12252 4.1589,-0.44314 0,1.02184 -1.03546,2.05729 -2.30101,2.30102 -1.6705,0.3217 -2.17959,-0.18739 -1.85789,-1.85788 z m 27.90891,0.82398 c -1.0463,-1.69295 0.36553,-3.75 2.57377,-3.75 0.99067,0 1.80123,1.125 1.80123,2.5 0,2.58788 -3.01564,3.44949 -4.375,1.25 z m 18.68268,-0.10891 c -1.09084,-1.76503 1.31837,-4.17425 3.0834,-3.0834 0.7474,0.46192 1.35892,1.65041 1.35892,2.64108 0,2.10453 -3.21705,2.42484 -4.44232,0.44231 z m 9.68028,-0.82859 c 0.2317,-1.20312 1.24962,-2.1875 2.26204,-2.1875 1.01241,0 2.03033,0.98438 2.26203,2.1875 0.29558,1.53481 -0.37935,2.1875 -2.26203,2.1875 -1.88269,0 -2.55762,-0.65269 -2.26204,-2.1875 z m 18.75,0 c 0.2317,-1.20312 1.24962,-2.1875 2.26204,-2.1875 1.01241,0 2.03033,0.98438 2.26203,2.1875 0.29558,1.53481 -0.37935,2.1875 -2.26203,2.1875 -1.88269,0 -2.55762,-0.65269 -2.26204,-2.1875 z m 28.75,0 c 0.53125,-2.75855 2.75439,-2.69851 3.29119,0.0889 0.24627,1.27879 -0.39992,2.09861 -1.65415,2.09861 -1.28745,0 -1.90054,-0.81925 -1.63704,-2.1875 z m 27.5,0 c 0.2317,-1.20312 1.24961,-2.1875 2.26204,-2.1875 1.01242,0 2.03033,0.98438 2.26203,2.1875 0.29558,1.53481 -0.37935,2.1875 -2.26203,2.1875 -1.88269,0 -2.55762,-0.65269 -2.26204,-2.1875 z m 9.34537,1.35417 c -1.72071,-1.72071 -0.74232,-4.16667 1.66667,-4.16667 1.66666,0 2.5,0.83333 2.5,2.5 0,2.40899 -2.44597,3.38737 -4.16667,1.66667 z m -47.145,-8.61597 c -1.15926,-1.39683 -1.15926,-2.20457 0,-3.6014 1.88823,-2.27517 5.06167,-1.14621 5.06167,1.8007 0,2.94691 -3.17344,4.07587 -5.06167,1.8007 z m -131.9831,-1.16734 c -0.43296,-1.12827 -0.18782,-2.65078 0.54476,-3.38336 1.90451,-1.90451 5.51301,-0.16386 5.01553,2.41937 -0.55413,2.87735 -4.55959,3.57178 -5.56029,0.96399 z m 9.94838,-0.13452 c -0.95865,-2.49819 2.08176,-4.56709 4.16766,-2.83594 1.89147,1.56978 0.79773,4.8371 -1.61925,4.8371 -0.97927,0 -2.12605,-0.90052 -2.54841,-2.00116 z m 8.89725,0.63121 c -1.102,-1.78308 2.5461,-5.43118 4.32918,-4.32918 2.38215,1.47225 1.59874,5.69913 -1.05628,5.69913 -1.33442,0 -2.80723,-0.61648 -3.2729,-1.36995 z m 10.07413,0.11995 c -1.0463,-1.69295 0.36554,-3.75 2.57377,-3.75 0.99068,0 1.80123,1.125 1.80123,2.5 0,2.58788 -3.01564,3.44949 -4.375,1.25 z m 10.23438,0.44271 c -1.71731,-1.71731 -0.82655,-4.3697 1.32812,-3.95475 1.20313,0.2317 2.1875,1.21045 2.1875,2.17499 0,1.97357 -2.20536,3.09002 -3.51562,1.77976 z m 8.31041,-1.15173 c -1.04182,-2.71495 1.60305,-5.26815 3.49619,-3.375 1.60004,1.60004 0.60881,5.33402 -1.41598,5.33402 -0.73065,0 -1.66675,-0.88156 -2.08021,-1.95902 z m 9.16325,0.17541 c -0.9071,-2.36386 1.90159,-4.61647 4.07854,-3.27104 2.06975,1.27918 0.86451,5.05465 -1.61361,5.05465 -0.97927,0 -2.08849,-0.80262 -2.46493,-1.78361 z m 10.04351,0.99349 c -0.4821,-0.4821 -0.87654,-1.94692 -0.87654,-3.25515 0,-1.75172 0.74123,-2.27333 2.8125,-1.97917 1.83863,0.26113 2.8125,1.25917 2.8125,2.88232 0,2.4795 -3.09028,4.01017 -4.74846,2.352 z m 9.54325,-1.1689 c -1.04183,-2.71495 1.60304,-5.26815 3.49618,-3.375 1.60005,1.60004 0.60882,5.33402 -1.41597,5.33402 -0.73066,0 -1.66675,-0.88156 -2.08021,-1.95902 z m 7.91324,0.17541 c -1.04418,-2.72109 2.45724,-5.15404 4.71766,-3.27805 2.27518,1.88822 1.14622,5.06166 -1.80069,5.06166 -1.22789,0 -2.54053,-0.80262 -2.91697,-1.78361 z m 11.27634,0.97632 c -1.7173,-1.71731 -0.82655,-4.3697 1.32813,-3.95475 1.20312,0.2317 2.1875,1.21045 2.1875,2.17499 0,1.97357 -2.20537,3.09002 -3.51563,1.77976 z m 7.47366,-0.97632 c -1.04418,-2.72109 2.45724,-5.15404 4.71766,-3.27805 2.27518,1.88822 1.14622,5.06166 -1.80069,5.06166 -1.22789,0 -2.54053,-0.80262 -2.91697,-1.78361 z m 9.71783,0.41366 c -1.102,-1.78308 2.54611,-5.43118 4.32918,-4.32918 2.38216,1.47225 1.59875,5.69913 -1.05627,5.69913 -1.33443,0 -2.80724,-0.61648 -3.27291,-1.36995 z m 9.85276,-0.63121 c -0.95865,-2.49819 2.08175,-4.56709 4.16765,-2.83594 1.89148,1.56978 0.79773,4.8371 -1.61924,4.8371 -0.97927,0 -2.12606,-0.90052 -2.54841,-2.00116 z m 19.12619,0.0788 c -0.79484,-2.0713 2.02905,-3.80688 4.10574,-2.52342 1.65326,1.02178 0.29735,4.44574 -1.76055,4.44574 -0.88414,0 -1.93948,-0.86504 -2.34519,-1.92232 z m 10.07956,1.11503 c -1.7694,-1.7694 -0.76816,-4.19271 1.73228,-4.19271 1.74746,0 2.46001,0.67881 2.1875,2.08392 -0.44618,2.3006 -2.58,3.44857 -3.91978,2.10879 z m 8.5564,-0.37673 c -1.09905,-1.7783 0.30249,-3.81598 2.62465,-3.81598 1.09519,0 1.72256,0.8782 1.48873,2.08392 -0.4869,2.51058 -2.9827,3.56152 -4.11338,1.73206 z m 9.33423,-1.31598 c 0,-1.66667 0.83333,-2.5 2.5,-2.5 1.66666,0 2.5,0.83333 2.5,2.5 0,1.66667 -0.83334,2.5 -2.5,2.5 -1.66667,0 -2.5,-0.83333 -2.5,-2.5 z m 9.20523,0.63336 c -0.43295,-1.12827 -0.18781,-2.65078 0.54477,-3.38336 1.90451,-1.90451 5.51301,-0.16386 5.01552,2.41936 -0.55412,2.87736 -4.55957,3.57179 -5.56029,0.964 z m -168.37191,-7.71665 c -1.83144,-1.83144 -0.77712,-5.41667 1.5929,-5.41667 3.19073,0 4.41888,2.15178 2.52833,4.42976 -1.65021,1.98838 -2.83583,2.2723 -4.12123,0.98691 z m 9.24667,-0.94528 c -1.94043,-2.33807 -0.70916,-4.47139 2.58071,-4.47139 1.86868,0 2.41074,0.69614 2.11373,2.71459 -0.49914,3.39217 -2.66464,4.20256 -4.69444,1.7568 z m 19.13692,-0.0576 c -0.37865,-0.98674 -0.33934,-2.35894 0.0873,-3.04934 1.02177,-1.65327 4.44573,-0.29735 4.44573,1.76055 0,2.34846 -3.72054,3.40624 -4.53308,1.28879 z m 9.84558,0.95717 c -2.13564,-0.79178 -1.977,-4.94443 0.22111,-5.78792 0.98099,-0.37644 2.47954,0.15411 3.33012,1.179 1.23864,1.49247 1.19463,2.19437 -0.22111,3.52582 -0.97219,0.91432 -2.47074,1.40171 -3.33012,1.0831 z m 8.78519,-0.52328 c -1.90229,-1.90228 -0.59456,-4.84768 2.15232,-4.84768 2.74687,0 4.0546,2.9454 2.15231,4.84768 -0.77127,0.77128 -1.73981,1.40232 -2.15231,1.40232 -0.4125,0 -1.38105,-0.63104 -2.15232,-1.40232 z m 18.34065,-0.54698 c -1.15926,-1.39683 -1.15926,-2.20457 0,-3.6014 1.88823,-2.27517 5.06167,-1.14621 5.06167,1.8007 0,2.94691 -3.17344,4.07587 -5.06167,1.8007 z m 18.3947,0.16569 c -0.95317,-2.48392 2.58111,-5.30224 4.38592,-3.49743 1.72606,1.72605 0.43292,5.28104 -1.92099,5.28104 -0.97927,0 -2.08849,-0.80262 -2.46493,-1.78361 z m 19.32986,0.10489 c -1.73114,-2.0859 0.33775,-5.1263 2.83595,-4.16766 1.10064,0.42236 2.00116,1.56914 2.00116,2.54841 0,2.41697 -3.26732,3.51072 -4.83711,1.61925 z m 18.93478,0.2764 c -1.90227,-1.90228 -0.59455,-4.84768 2.15233,-4.84768 2.74687,0 4.0546,2.9454 2.15232,4.84768 -0.77129,0.77128 -1.73982,1.40232 -2.15232,1.40232 -0.4125,0 -1.38104,-0.63104 -2.15233,-1.40232 z m 18.55276,-0.29141 c -1.08928,-1.31252 -1.01921,-2.06654 0.2933,-3.15583 1.31252,-1.08929 2.06654,-1.01921 3.15583,0.2933 1.08929,1.31251 1.01921,2.06654 -0.2933,3.15583 -1.31251,1.08929 -2.06654,1.01921 -3.15583,-0.2933 z m 19.45894,0.88644 c -1.7694,-1.7694 -0.76816,-4.19271 1.73228,-4.19271 1.74746,0 2.46001,0.67881 2.1875,2.08392 -0.44618,2.3006 -2.58,3.44857 -3.91978,2.10879 z m -169.60938,-2.94271 c 0,-1.66667 0.83333,-2.5 2.5,-2.5 1.66667,0 2.5,0.83333 2.5,2.5 0,1.66667 -0.83333,2.5 -2.5,2.5 -1.66667,0 -2.5,-0.83333 -2.5,-2.5 z m 28.125,1.25 c -1.0463,-1.69295 0.36554,-3.75 2.57377,-3.75 0.99068,0 1.80123,1.125 1.80123,2.5 0,2.58788 -3.01564,3.44949 -4.375,1.25 z m 37.47547,-0.0397 c -0.48545,-0.78547 -0.29446,-2.0163 0.42443,-2.73519 1.67987,-1.67987 5.59642,-0.2146 4.91297,1.83805 -0.69575,2.08961 -4.23296,2.68416 -5.3374,0.89714 z m 19.39954,-1.2103 c 0,-1.88269 0.65268,-2.55761 2.1875,-2.26204 2.83889,0.54672 2.83889,3.97736 0,4.52408 -1.53482,0.29557 -2.1875,-0.37935 -2.1875,-2.26204 z m 18.125,1.25 c -1.0463,-1.69295 0.36553,-3.75 2.57377,-3.75 0.99067,0 1.80123,1.125 1.80123,2.5 0,2.58788 -3.01564,3.44949 -4.375,1.25 z m 18.72546,-0.0397 c -0.48545,-0.78547 -0.29446,-2.0163 0.42443,-2.73519 1.67987,-1.67987 5.59642,-0.2146 4.91297,1.83805 -0.69575,2.08961 -4.23296,2.68416 -5.3374,0.89714 z m 19.01685,0.49035 c -1.16655,-1.16655 0.24315,-2.95065 2.33146,-2.95065 0.99068,0 1.80123,0.84375 1.80123,1.875 0,1.88279 -2.63874,2.5696 -4.13269,1.07565 z m 17.88269,-1.62688 c 0,-3.36586 2.36467,-4.49481 4.64286,-2.21663 2.27819,2.27819 1.14922,4.64286 -2.21664,4.64286 -1.5683,0 -2.42622,-0.85792 -2.42622,-2.42623 z m 20,-0.0738 c 0,-1.88269 0.65268,-2.55761 2.1875,-2.26204 1.20312,0.2317 2.1875,1.24962 2.1875,2.26204 0,1.01242 -0.98438,2.03034 -2.1875,2.26204 -1.53482,0.29557 -2.1875,-0.37935 -2.1875,-2.26204 z m 0.13035,-6.14416 c -2.43923,-1.54286 -0.75234,-5.10584 2.41736,-5.10584 1.98465,0 2.52859,0.66311 2.22672,2.71459 -0.45871,3.11739 -2.13306,3.97952 -4.64408,2.39125 z m -178.88036,-3.23081 c 0,-2.70608 0.5054,-3.2271 2.8125,-2.89944 3.85639,0.5477 3.85639,5.25119 0,5.79888 -2.3071,0.32766 -2.8125,-0.19336 -2.8125,-2.89944 z m 9.41578,1.94098 c -1.09905,-1.7783 0.30248,-3.81598 2.62465,-3.81598 1.09519,0 1.72256,0.8782 1.48873,2.08392 -0.48691,2.51058 -2.98271,3.56152 -4.11338,1.73206 z m 8.91726,-0.59959 c -1.04418,-2.72109 2.45723,-5.15404 4.71766,-3.27805 2.27517,1.88822 1.14622,5.06166 -1.8007,5.06166 -1.22789,0 -2.54052,-0.80262 -2.91696,-1.78361 z m 9.83274,0.59959 c -1.09905,-1.7783 0.30248,-3.81598 2.62465,-3.81598 1.09519,0 1.72256,0.8782 1.48873,2.08392 -0.48691,2.51058 -2.98271,3.56152 -4.11338,1.73206 z m 8.91726,-0.59959 c -0.9071,-2.36386 1.90159,-4.61647 4.07853,-3.27104 2.06976,1.27918 0.86451,5.05465 -1.6136,5.05465 -0.97927,0 -2.08849,-0.80262 -2.46493,-1.78361 z m 11.21631,0.91629 c -1.49394,-1.49394 -0.80714,-4.13268 1.07565,-4.13268 1.03125,0 1.875,0.81055 1.875,1.80123 0,2.0883 -1.78409,3.49801 -2.95065,2.33145 z m 8.41757,-0.96889 c -0.37864,-0.98674 -0.33934,-2.35894 0.0874,-3.04934 1.02178,-1.65327 4.44574,-0.29735 4.44574,1.76055 0,2.34846 -3.72055,3.40624 -4.53309,1.28879 z m 19.14246,1.02892 c -1.7173,-1.71731 -0.82655,-4.3697 1.32813,-3.95475 1.20312,0.2317 2.1875,1.21045 2.1875,2.17499 0,1.97357 -2.20537,3.09002 -3.51563,1.77976 z m 7.89063,-1.61894 c 0,-3.36586 2.36467,-4.49481 4.64285,-2.21663 2.27819,2.27819 1.14923,4.64286 -2.21663,4.64286 -1.5683,0 -2.42622,-0.85792 -2.42622,-2.42623 z m 9.375,1.17623 c -1.0463,-1.69295 0.36553,-3.75 2.57377,-3.75 0.99067,0 1.80123,1.125 1.80123,2.5 0,2.58788 -3.01564,3.44949 -4.375,1.25 z m 10,0 c -1.0463,-1.69295 0.36553,-3.75 2.57377,-3.75 0.99067,0 1.80123,1.125 1.80123,2.5 0,2.58788 -3.01564,3.44949 -4.375,1.25 z m 10.23437,0.44271 c -1.7173,-1.71731 -0.82655,-4.3697 1.32813,-3.95475 1.20312,0.2317 2.1875,1.21045 2.1875,2.17499 0,1.97357 -2.20537,3.09002 -3.51563,1.77976 z m 8.55641,-0.37673 c -1.09905,-1.7783 0.30247,-3.81598 2.62464,-3.81598 1.09519,0 1.72256,0.8782 1.48873,2.08392 -0.4869,2.51058 -2.9827,3.56152 -4.11337,1.73206 z m 8.86403,-0.7383 c -0.79484,-2.0713 2.02905,-3.80688 4.10574,-2.52342 1.65326,1.02178 0.29735,4.44574 -1.76055,4.44574 -0.88414,0 -1.93948,-0.86504 -2.34519,-1.92232 z m 9.62381,-0.0788 c -0.95865,-2.4982 2.08175,-4.56709 4.16765,-2.83595 1.89148,1.56978 0.79773,4.8371 -1.61924,4.8371 -0.97927,0 -2.12606,-0.90052 -2.54841,-2.00116 z m 9.12619,0.0788 c -0.79484,-2.0713 2.02905,-3.80688 4.10574,-2.52342 1.65326,1.02178 0.29735,4.44574 -1.76055,4.44574 -0.88414,0 -1.93948,-0.86504 -2.34519,-1.92232 z m 9.63189,-0.0578 c -0.89572,-2.3342 1.32627,-4.88841 3.22938,-3.71222 1.98468,1.2266 1.65979,4.05938 -0.5634,4.9125 -1.11396,0.42747 -2.23503,-0.0773 -2.66598,-1.20028 z m 8.88916,0.61014 c -1.102,-1.78308 2.54611,-5.43118 4.32919,-4.32918 0.75347,0.46567 1.36995,1.93848 1.36995,3.2729 0,2.65502 -4.22689,3.43843 -5.69914,1.05628 z m -102.18355,-0.6794 c -1.16655,-1.16655 0.24315,-2.95065 2.33146,-2.95065 0.99067,0 1.80123,0.84375 1.80123,1.875 0,1.88279 -2.63874,2.5696 -4.13269,1.07565 z m -27.9004,-8.53686 c -0.37865,-0.98674 -0.33934,-2.35894 0.0873,-3.04934 1.02177,-1.65327 4.44573,-0.29735 4.44573,1.76055 0,2.34846 -3.72054,3.40624 -4.53308,1.28879 z m 9.68352,0.14247 c -1.08929,-1.31251 -1.01921,-2.06654 0.2933,-3.15582 1.31251,-1.08929 2.06654,-1.01922 3.15583,0.2933 1.08929,1.31251 1.01921,2.06654 -0.29331,3.15582 -1.31251,1.08929 -2.06653,1.01922 -3.15582,-0.2933 z m 17.86002,-0.029 c -1.01172,-2.63648 0.40837,-4.52724 3.40026,-4.52724 1.88841,0 2.41387,0.69599 2.11372,2.79973 -0.46617,3.26747 -4.44473,4.51394 -5.51398,1.72751 z m 28.31954,-0.0559 c -1.94042,-2.33807 -0.70915,-4.47139 2.58072,-4.47139 1.86867,0 2.41073,0.69614 2.11372,2.71459 -0.49914,3.39217 -2.66464,4.20256 -4.69444,1.7568 z m 9.50334,0.94528 c -1.83144,-1.83144 -0.77712,-5.41667 1.59289,-5.41667 3.19073,0 4.41888,2.15178 2.52833,4.42976 -1.65021,1.98838 -2.83583,2.2723 -4.12122,0.98691 z m 9.24666,-0.94528 c -1.94042,-2.33807 -0.70915,-4.47139 2.58072,-4.47139 1.86867,0 2.41073,0.69614 2.11372,2.71459 -0.49914,3.39217 -2.66464,4.20256 -4.69444,1.7568 z m 47.73251,0.89957 c -2.13565,-0.79178 -1.97702,-4.94443 0.22111,-5.78792 0.98097,-0.37644 2.47954,0.15411 3.33011,1.179 1.23865,1.49247 1.19463,2.19437 -0.2211,3.52582 -0.9722,0.91432 -2.47075,1.40171 -3.33012,1.0831 z m 8.78517,-0.52328 c -1.90227,-1.90228 -0.59455,-4.84768 2.15233,-4.84768 2.74687,0 4.0546,2.9454 2.15232,4.84768 -0.77129,0.77128 -1.73982,1.40232 -2.15232,1.40232 -0.4125,0 -1.38104,-0.63104 -2.15233,-1.40232 z m 9.30026,-0.21217 c -0.36665,-0.95547 -0.21295,-2.4713 0.34157,-3.36851 1.40218,-2.26881 5.29005,-0.51671 4.77602,2.15237 -0.51967,2.69846 -4.21206,3.57592 -5.11759,1.21614 z M 299.76939,665.028 c 0.52681,-2.73552 4.1589,-3.12252 4.1589,-0.44314 0,1.02184 -1.03546,2.05729 -2.30102,2.30102 -1.67049,0.32171 -2.17959,-0.18739 -1.85788,-1.85788 z m 9.1589,0.82398 c -1.0463,-1.69295 0.36553,-3.75 2.57377,-3.75 0.99068,0 1.80123,1.125 1.80123,2.5 0,2.58788 -3.01564,3.44949 -4.375,1.25 z m 9.5911,-0.82398 c 0.52682,-2.73552 4.1589,-3.12252 4.1589,-0.44314 0,1.02184 -1.03546,2.05729 -2.30101,2.30102 -1.6705,0.32171 -2.17959,-0.18739 -1.85789,-1.85788 z m 9.09159,0.71506 c -0.46192,-0.7474 -0.26288,-1.93589 0.44231,-2.64108 1.57704,-1.57704 4,-0.24515 4,2.19877 0,2.10453 -3.21704,2.42484 -4.44231,0.44231 z m 28.19231,-1.14108 c 0,-1.88269 0.65269,-2.55761 2.18751,-2.26204 1.20312,0.2317 2.1875,1.24962 2.1875,2.26204 0,1.01242 -0.98438,2.03034 -2.1875,2.26204 -1.53482,0.29557 -2.18751,-0.37935 -2.18751,-2.26204 z m 18.96611,0.42602 c 0.52681,-2.73552 4.1589,-3.12252 4.1589,-0.44314 0,1.02184 -1.03546,2.05729 -2.30102,2.30102 -1.6705,0.32171 -2.17959,-0.18739 -1.85788,-1.85788 z m 9.1589,0.82398 c -1.0463,-1.69295 0.36553,-3.75 2.57377,-3.75 0.99067,0 1.80123,1.125 1.80123,2.5 0,2.58788 -3.01564,3.44949 -4.375,1.25 z m 37.11296,-0.9375 c 0.2317,-1.20312 1.24961,-2.1875 2.26204,-2.1875 1.01242,0 2.03033,0.98438 2.26203,2.1875 0.29558,1.53481 -0.37935,2.1875 -2.26203,2.1875 -1.88269,0 -2.55762,-0.65269 -2.26204,-2.1875 z m 10,0 c 0.2317,-1.20312 1.24961,-2.1875 2.26204,-2.1875 1.01242,0 2.03033,0.98438 2.26203,2.1875 0.29558,1.53481 -0.37935,2.1875 -2.26203,2.1875 -1.88269,0 -2.55762,-0.65269 -2.26204,-2.1875 z m 9.06972,0.82858 c -1.09085,-1.76502 1.31838,-4.17424 3.0834,-3.08339 1.98253,1.22527 1.66222,4.44231 -0.44231,4.44231 -0.99067,0 -2.17916,-0.61151 -2.64109,-1.35892 z m 9.65842,-0.71506 c 0.52681,-2.73552 4.1589,-3.12252 4.1589,-0.44314 0,1.02184 -1.03547,2.05729 -2.30102,2.30102 -1.6705,0.32171 -2.17958,-0.18739 -1.85788,-1.85788 z m -8.6536,-6.30506 c -2.13565,-0.79178 -1.97702,-4.94443 0.22111,-5.78792 0.98097,-0.37644 2.47954,0.15411 3.33011,1.179 1.23865,1.49247 1.19463,2.19437 -0.2211,3.52582 -0.9722,0.91432 -2.47075,1.40171 -3.33012,1.0831 z m -133.11964,-1.93346 c -0.93079,-2.53108 0.34699,-4.6875 2.77756,-4.6875 2.43057,0 3.74916,2.15642 2.86627,4.6875 -0.29977,0.85938 -1.56298,1.5625 -2.80713,1.5625 -1.24415,0 -2.52067,-0.70312 -2.8367,-1.5625 z m 9.89017,-0.22111 c -0.9071,-2.36386 1.90159,-4.61647 4.07853,-3.27104 2.06976,1.27918 0.86451,5.05465 -1.6136,5.05465 -0.97927,0 -2.08849,-0.80262 -2.46493,-1.78361 z m 8.75,0 c -1.04418,-2.72109 2.45723,-5.15404 4.71766,-3.27805 2.27517,1.88822 1.14622,5.06166 -1.8007,5.06166 -1.22789,0 -2.54052,-0.80262 -2.91696,-1.78361 z m 9.79196,0.53361 c -1.02004,-1.65047 0.34607,-3.75 2.44004,-3.75 1.82835,0 3.45839,3.0599 2.2655,4.25279 -1.16563,1.16563 -3.85178,0.87861 -4.70554,-0.50279 z m 8.67587,-0.11995 c -1.102,-1.78308 2.5461,-5.43118 4.32918,-4.32918 0.75347,0.46567 1.36995,1.93848 1.36995,3.2729 0,2.65502 -4.22688,3.43843 -5.69913,1.05628 z m 11.55851,0.56266 c -1.71731,-1.7173 -0.82655,-4.3697 1.32813,-3.95475 1.20312,0.23171 2.1875,1.21045 2.1875,2.17499 0,1.97357 -2.20537,3.09002 -3.51563,1.77976 z m 7.89063,-1.61894 c 0,-3.36586 2.36467,-4.49481 4.64285,-2.21663 2.27819,2.27819 1.14923,4.64286 -2.21663,4.64286 -1.5683,0 -2.42622,-0.85792 -2.42622,-2.42623 z m 9.30086,1.05628 c -1.102,-1.78308 2.54611,-5.43118 4.32918,-4.32918 0.75348,0.46567 1.36996,1.93848 1.36996,3.2729 0,2.65502 -4.22689,3.43843 -5.69914,1.05628 z m 19.91605,-0.46626 c -0.37864,-0.98674 -0.33934,-2.35894 0.0873,-3.04934 1.02178,-1.65327 4.44574,-0.29735 4.44574,1.76055 0,2.34846 -3.72055,3.40624 -4.53309,1.28879 z m 9.14246,1.02892 c -1.76939,-1.7694 -0.76816,-4.19271 1.73228,-4.19271 1.74745,0 2.46001,0.67881 2.1875,2.08392 -0.44618,2.3006 -2.58,3.44857 -3.91978,2.10879 z m 10,0 c -1.7173,-1.7173 -0.82655,-4.3697 1.32813,-3.95475 1.20312,0.2317 2.1875,1.21045 2.1875,2.17499 0,1.97357 -2.20537,3.09002 -3.51563,1.77976 z m 7.89063,-1.61894 c 0,-3.36586 2.36467,-4.49481 4.64286,-2.21663 2.27819,2.27819 1.14922,4.64286 -2.21664,4.64286 -1.5683,0 -2.42622,-0.85792 -2.42622,-2.42623 z m 9.30086,1.05628 c -1.102,-1.78308 2.54611,-5.43118 4.32919,-4.32918 2.38215,1.47225 1.59873,5.69913 -1.05628,5.69913 -1.33442,0 -2.80724,-0.61648 -3.27291,-1.36995 z m 20.30851,0.56266 c -1.7173,-1.7173 -0.82655,-4.3697 1.32813,-3.95475 1.20312,0.2317 2.1875,1.21045 2.1875,2.17499 0,1.97357 -2.20537,3.09002 -3.51563,1.77976 z m 8.29425,-1.19387 c -0.95865,-2.49819 2.08175,-4.56709 4.16765,-2.83594 1.89148,1.56978 0.79773,4.8371 -1.61924,4.8371 -0.97927,0 -2.12606,-0.90052 -2.54841,-2.00116 z m -159.15363,-1.12384 c 0,-1.04167 1.11111,-1.875 2.5,-1.875 1.38889,0 2.5,0.83333 2.5,1.875 0,1.04167 -1.11111,1.875 -2.5,1.875 -1.38889,0 -2.5,-0.83333 -2.5,-1.875 z m 83.98797,-0.3125 c 0.2317,-1.20312 1.24962,-2.1875 2.26204,-2.1875 1.01241,0 2.03033,0.98438 2.26203,2.1875 0.29558,1.53481 -0.37935,2.1875 -2.26203,2.1875 -1.88269,0 -2.55762,-0.65269 -2.26204,-2.1875 z m 84.76204,0.3125 c 0,-1.25423 0.81981,-1.90043 2.09861,-1.65415 1.15424,0.22228 2.0986,0.96665 2.0986,1.65415 0,0.6875 -0.94436,1.43187 -2.0986,1.65416 -1.2788,0.24627 -2.09861,-0.39992 -2.09861,-1.65416 z m 9.61731,1.07565 c -1.16655,-1.16655 0.24315,-2.95065 2.33146,-2.95065 0.99068,0 1.80123,0.84375 1.80123,1.875 0,1.88279 -2.63874,2.5696 -4.13269,1.07565 z m -178.28733,-8.47926 c -1.94042,-2.33807 -0.70915,-4.47139 2.58072,-4.47139 1.86868,0 2.41073,0.69614 2.11373,2.71459 -0.49914,3.39217 -2.66464,4.20256 -4.69445,1.7568 z m 28.98251,0.89957 c -2.13564,-0.79178 -1.977,-4.94443 0.22111,-5.78792 0.98099,-0.37644 2.47954,0.15411 3.33012,1.179 1.23864,1.49247 1.19463,2.19437 -0.22111,3.52582 -0.97219,0.91432 -2.47074,1.40171 -3.33012,1.0831 z m 8.5175,-0.89957 c -1.94043,-2.33807 -0.70916,-4.47139 2.58071,-4.47139 1.86868,0 2.41074,0.69614 2.11373,2.71459 -0.49914,3.39217 -2.66464,4.20256 -4.69444,1.7568 z m 46.51769,0.37629 c -1.90229,-1.90228 -0.59456,-4.84768 2.15232,-4.84768 2.74687,0 4.0546,2.9454 2.15231,4.84768 -0.77127,0.77128 -1.73981,1.40232 -2.15231,1.40232 -0.4125,0 -1.38105,-0.63104 -2.15232,-1.40232 z m 9.73231,-0.37629 c -1.94042,-2.33807 -0.70915,-4.47139 2.58072,-4.47139 1.86867,0 2.41073,0.69614 2.11372,2.71459 -0.49914,3.39217 -2.66464,4.20256 -4.69444,1.7568 z m 9.01769,0.37629 c -1.90229,-1.90228 -0.59456,-4.84768 2.15232,-4.84768 2.74687,0 4.0546,2.9454 2.15231,4.84768 -0.77127,0.77128 -1.73981,1.40232 -2.15231,1.40232 -0.4125,0 -1.38105,-0.63104 -2.15232,-1.40232 z m 19.74074,0.20697 c -2.06975,-1.27918 -0.8645,-5.05465 1.61361,-5.05465 0.97927,0 2.08849,0.80262 2.46493,1.78361 0.9071,2.36386 -1.90159,4.61647 -4.07854,3.27104 z m 8.74158,-0.58326 c -1.94043,-2.33807 -0.70917,-4.47139 2.58071,-4.47139 1.86867,0 2.41072,0.69614 2.11372,2.71459 -0.49913,3.39217 -2.66463,4.20256 -4.69443,1.7568 z m 28.9825,0.86531 c -0.85938,-0.29977 -1.5625,-1.56298 -1.5625,-2.80713 0,-2.43057 2.15642,-3.74916 4.6875,-2.86627 0.85937,0.29977 1.5625,1.56298 1.5625,2.80713 0,2.43057 -2.15643,3.74916 -4.6875,2.86627 z m -151.00482,-1.69562 c -0.46192,-0.7474 -0.26288,-1.93589 0.44231,-2.64108 1.57704,-1.57704 4,-0.24515 4,2.19877 0,2.10453 -3.21704,2.42484 -4.44231,0.44231 z m 9.68028,-0.82858 c 0.53124,-2.75855 2.75438,-2.69851 3.29119,0.0889 0.24627,1.27879 -0.39992,2.09861 -1.65416,2.09861 -1.28745,0 -1.90054,-0.81925 -1.63703,-2.1875 z m 28.51203,-0.3125 c 0,-1.88269 0.65269,-2.55761 2.1875,-2.26204 1.20313,0.2317 2.1875,1.24962 2.1875,2.26204 0,1.01242 -0.98437,2.03034 -2.1875,2.26204 -1.53481,0.29557 -2.1875,-0.37935 -2.1875,-2.26204 z m 8.75,0 c 0,-1.66667 0.83334,-2.5 2.50001,-2.5 1.66666,0 2.5,0.83333 2.5,2.5 0,1.66667 -0.83334,2.5 -2.5,2.5 -1.66667,0 -2.50001,-0.83333 -2.50001,-2.5 z m 9.37501,1.25 c -1.0463,-1.69295 0.36553,-3.75 2.57377,-3.75 0.99067,0 1.80123,1.125 1.80123,2.5 0,2.58788 -3.01564,3.44949 -4.375,1.25 z m 9.375,-1.25 c 0,-1.66667 0.83333,-2.5 2.5,-2.5 1.66666,0 2.5,0.83333 2.5,2.5 0,1.66667 -0.83334,2.5 -2.5,2.5 -1.66667,0 -2.5,-0.83333 -2.5,-2.5 z m 37.7161,0.42602 c 0.52681,-2.73552 4.1589,-3.12252 4.1589,-0.44314 0,1.02184 -1.03546,2.05729 -2.30102,2.30102 -1.6705,0.32171 -2.17959,-0.18739 -1.85788,-1.85788 z m 27.84158,0.71506 c -1.09085,-1.76502 1.31838,-4.17424 3.0834,-3.08339 1.98253,1.22527 1.66222,4.44231 -0.44231,4.44231 -0.99067,0 -2.17916,-0.61151 -2.64109,-1.35892 z m 9.68028,-0.82858 c 0.2317,-1.20312 1.24961,-2.1875 2.26204,-2.1875 1.01242,0 2.03033,0.98438 2.26203,2.1875 0.29558,1.53481 -0.37935,2.1875 -2.26203,2.1875 -1.88269,0 -2.55762,-0.65269 -2.26204,-2.1875 z m 18.72814,0.11351 c 0.24372,-1.26555 1.27918,-2.30101 2.30102,-2.30101 2.67938,0 2.29238,3.63209 -0.44314,4.1589 -1.6705,0.32171 -2.17958,-0.18739 -1.85788,-1.85788 z m 9.45336,1.32678 c -1.17343,-1.17341 0.42357,-4.25279 2.20554,-4.25279 1.78196,0 3.37896,3.07938 2.20553,4.25279 -0.41096,0.41097 -1.40345,0.74721 -2.20553,0.74721 -0.80209,0 -1.79458,-0.33624 -2.20554,-0.74721 z m -177.58614,-7.58612 c -1.83144,-1.83144 -0.77712,-5.41667 1.5929,-5.41667 3.19072,0 4.41888,2.15178 2.52833,4.42976 -1.65022,1.98838 -2.83583,2.2723 -4.12123,0.98691 z m 140.04323,0.0432 c -0.4821,-0.4821 -0.87655,-1.9078 -0.87655,-3.16821 0,-1.62766 0.93066,-2.29167 3.21193,-2.29167 2.61212,0 3.13735,0.52284 2.8125,2.79973 -0.39535,2.77107 -3.4556,4.35244 -5.14788,2.66015 z m 36.70345,-0.98849 c -1.94043,-2.33807 -0.70917,-4.47139 2.58071,-4.47139 1.86867,0 2.41072,0.69614 2.11372,2.71459 -0.49913,3.39217 -2.66463,4.20256 -4.69443,1.7568 z m -167.26751,-0.3568 c -2.18052,-0.79952 -1.95311,-3.69722 0.35982,-4.58477 1.11396,-0.42747 2.23504,0.0773 2.66598,1.20029 0.88075,2.2952 -0.81711,4.19434 -3.0258,3.38448 z m 9.23685,0.0181 c -1.49394,-1.49394 -0.80714,-4.13268 1.07565,-4.13268 1.03125,0 1.875,0.81055 1.875,1.80123 0,2.0883 -1.78409,3.49801 -2.95065,2.33145 z m 9.21765,-0.37217 c -2.26881,-1.4022 -0.51671,-5.29006 2.15237,-4.77604 1.19731,0.23058 2.35162,1.32638 2.56514,2.4351 0.45699,2.37292 -2.38439,3.78288 -4.71751,2.34094 z m 9.56634,0.40616 c -1.83144,-1.83144 -0.77712,-5.41667 1.59289,-5.41667 2.94523,0 4.09299,1.59396 3.06909,4.2622 -0.78318,2.04093 -3.18159,2.63486 -4.66198,1.15447 z m 17.1219,-1.03331 c -0.43296,-1.12827 -0.18781,-2.65078 0.54476,-3.38336 1.90452,-1.90451 5.51302,-0.16386 5.01553,2.41937 -0.55412,2.87735 -4.55958,3.57178 -5.56029,0.96399 z m 9.54477,-0.5417 c 0,-1.78888 0.80278,-2.59166 2.59165,-2.59166 1.78887,0 2.46202,0.67315 2.17315,2.17315 -0.62752,3.25842 -4.7648,3.62181 -4.7648,0.41851 z m 10.85937,1.60105 c -1.7173,-1.7173 -0.82655,-4.3697 1.32813,-3.95475 1.20312,0.2317 2.1875,1.21045 2.1875,2.17499 0,1.97357 -2.20537,3.09002 -3.51563,1.77976 z m 8.29425,-1.19387 c -0.95865,-2.49819 2.08175,-4.56709 4.16765,-2.83595 1.89148,1.56979 0.79773,4.83711 -1.61924,4.83711 -0.97927,0 -2.12606,-0.90052 -2.54841,-2.00116 z m 8.89724,0.63121 c -1.102,-1.78308 2.54611,-5.43119 4.32918,-4.32918 0.75348,0.46567 1.36996,1.93848 1.36996,3.2729 0,2.65502 -4.22689,3.43843 -5.69914,1.05628 z m 10.11492,0.18593 c -1.09905,-1.7783 0.30247,-3.81598 2.62464,-3.81598 1.09519,0 1.72257,0.8782 1.48873,2.08392 -0.4869,2.51058 -2.98271,3.56152 -4.11337,1.73206 z m 9.80113,-0.65219 c -0.37864,-0.98674 -0.33934,-2.35894 0.0873,-3.04934 1.02178,-1.65327 4.44574,-0.29735 4.44574,1.76055 0,2.34846 -3.72055,3.40624 -4.53309,1.28879 z m 8.73833,-0.0304 c -0.43296,-1.12827 -0.18782,-2.65078 0.54476,-3.38336 1.90451,-1.90451 5.51301,-0.16386 5.01552,2.41937 -0.55412,2.87735 -4.55957,3.57178 -5.56028,0.96399 z m 9.54476,-0.63336 c 0,-1.66667 0.83333,-2.5 2.5,-2.5 1.66666,0 2.5,0.83333 2.5,2.5 0,1.66667 -0.83334,2.5 -2.5,2.5 -1.66667,0 -2.5,-0.83333 -2.5,-2.5 z m 19.60937,1.69271 c -1.7173,-1.7173 -0.82655,-4.3697 1.32813,-3.95475 1.20312,0.2317 2.1875,1.21045 2.1875,2.17499 0,1.97357 -2.20537,3.09002 -3.51563,1.77976 z m 9.14063,-1.69271 c 0,-1.38889 0.83333,-2.5 1.875,-2.5 1.04166,0 1.875,1.11111 1.875,2.5 0,1.38889 -0.83334,2.5 -1.875,2.5 -1.04167,0 -1.875,-1.11111 -1.875,-2.5 z m 8.05086,1.13005 c -1.102,-1.78308 2.54611,-5.43119 4.32919,-4.32918 0.75347,0.46567 1.36995,1.93848 1.36995,3.2729 0,2.65502 -4.22689,3.43843 -5.69914,1.05628 z m -121.5629,-2.06758 c 0.54672,-2.83889 3.97735,-2.83889 4.52407,0 0.29558,1.53481 -0.37935,2.1875 -2.26204,2.1875 -1.88268,0 -2.55761,-0.65269 -2.26203,-2.1875 z"/></g></g></svg>