<svg width="576" height="91" viewBox="0 0 576 91" fill="none" xmlns="http://www.w3.org/2000/svg">
<g clip-path="url(#clip0_70_532)">
<path fill-rule="evenodd" clip-rule="evenodd" d="M93.6478 4.29106C94.3993 2.64477 95.2597 1.03476 95.5462 0.677089C96.6205 -0.576263 97.839 -0.110788 99.6668 2.25083C101.458 4.61246 101.673 5.39933 100.777 6.29401C100.025 7.08088 98.879 7.00934 97.9116 6.11467L97.1238 5.39933L96.7294 6.54488C96.1565 8.22743 95.2961 9.01431 94.1139 9.01431C93.3614 9.01431 92.9669 8.76343 92.6805 8.11963C92.3224 7.36802 92.4656 6.83202 93.6478 4.29106ZM104.109 10.8038C101.744 10.8038 100.777 9.65825 101.708 7.90517C102.066 7.29663 102.496 7.22509 106.112 7.2261C108.8 7.2261 110.305 7.36917 110.591 7.6553C111.343 8.40691 111.057 9.65926 109.732 11.6632L108.478 13.5956L110.269 17.2096C113.35 23.3293 112.705 24.1877 106.185 22.5777L103.14 21.826L100.919 23.6507C97.5151 26.4425 96.7626 26.1201 95.4372 21.3606C94.6484 18.4619 94.6131 18.068 95.1144 17.3527C96.1534 15.7064 98.2313 16.6363 98.6973 18.9627C98.8406 19.6075 99.0201 20.1082 99.1634 20.1082C99.2703 20.072 99.9512 19.6065 100.632 19.0342C101.958 17.8887 102.89 17.7456 105.039 18.3541C105.827 18.5697 106.508 18.6765 106.579 18.605C106.651 18.5335 106.221 17.4595 105.648 16.2071C104.431 13.6309 104.359 12.9145 105.147 11.6985L105.721 10.8038H104.109ZM71.5067 15.3486L74.552 12.3422C76.7732 10.1599 77.8475 9.37201 78.5284 9.37201C79.1013 9.37201 80.5337 10.1952 82.3614 11.5906C83.9744 12.8429 85.4783 13.9875 85.7295 14.1668C86.017 14.3814 86.6969 14.0953 87.7005 13.3799C91.4257 10.6606 96.8354 9.98055 100.562 11.6984C102.173 12.449 102.425 12.6998 102.425 13.5945C102.425 15.4907 101.314 15.8846 98.4836 14.8821C95.8317 13.9522 91.9986 14.7038 89.383 16.7077C88.7385 17.1732 88.8101 17.3163 90.3151 19.1056C93.0023 22.2541 94.1845 24.115 94.1845 25.0812C94.1845 25.7966 93.433 26.7991 91.1755 29.0176L88.1302 32.024L88.9543 33.6703C89.4204 34.565 90.2798 36.8551 90.889 38.716C98.1255 61.5101 83.3651 85.6281 59.6837 89.7438C54.9186 90.5659 47.5025 90.2798 42.8806 89.0637C27.8691 85.1283 16.4051 72.6028 13.7179 57.216C12.3925 49.6647 13.6463 40.6474 16.9781 33.7781C19.2345 29.0902 20.7748 26.8716 24.4294 23.0783C29.2308 18.1042 34.3894 14.8479 40.6232 12.8439C45.5315 11.2692 47.4662 10.983 53.3419 11.0183C58.1071 11.0546 59.3972 11.1976 62.4062 11.9845C64.3409 12.4852 67.1713 13.4515 68.7116 14.1315L71.5067 15.3486ZM49.5442 22.3619C53.3783 22.0758 54.7037 20.7519 52.9839 19.0341C52.5178 18.5686 51.838 18.3178 51.1208 18.354C44.0275 18.6402 36.898 21.431 32.0613 25.8328C29.947 27.8015 29.5526 28.8745 30.6279 29.9123C31.5236 30.8432 32.3114 30.5924 34.7121 28.5169C38.9043 24.9744 44.1698 22.7911 49.5442 22.3619ZM73.9649 35.5776C73.173 34.8262 72.4999 34.4505 71.9456 34.4505C71.1933 34.4505 70.4806 34.6284 69.8075 34.9843C69.1344 35.3007 68.6197 35.6962 68.2633 36.1708C66.7984 38.5041 65.4324 40.5012 64.1653 42.1622C62.9379 43.8232 61.374 45.6226 59.4734 47.5604C58.3648 48.6678 56.9394 50.3288 55.1973 52.5434C53.2572 49.7355 51.2775 46.7299 49.2582 43.5266C47.2389 40.3233 46.0708 38.0295 45.7541 36.6453C45.3581 35.8939 44.7444 35.3205 43.913 34.925C43.1211 34.5295 42.3292 34.3318 41.5373 34.3318C38.9637 34.3318 37.6769 35.5182 37.6769 37.8911C37.6769 39.8289 37.6967 41.6283 37.7363 43.2893C37.7759 44.9108 37.8155 46.3345 37.8551 47.5604L37.9738 51.7129L38.0926 54.9163C38.2906 59.3456 38.3896 63.1026 38.3896 66.1873C38.3896 67.7296 38.3698 68.837 38.3302 69.5093C38.3698 70.3002 38.7063 70.8934 39.3398 71.2889C40.0129 71.6844 40.8642 71.8821 41.8937 71.8821C42.9231 71.8821 43.6754 71.5657 44.1505 70.933C44.6257 70.2607 44.8632 69.45 44.8632 68.5008C44.8632 66.6816 44.7246 63.9726 44.4475 60.3738C44.0911 54.1253 43.913 49.1819 43.913 45.5435C44.8236 46.9672 46.2688 49.0632 48.2485 51.8316L51.0993 55.8654C51.7328 56.8541 52.3861 57.6055 53.0592 58.1196C53.7323 58.6337 54.5836 58.8908 55.613 58.8908C56.0486 58.8908 56.6029 58.5942 57.276 58.001L58.345 57.2891C60.879 53.8485 64.4227 49.5971 68.976 44.535C68.8177 50.9417 68.7385 57.9614 68.7385 65.5941C68.7385 67.6505 68.976 69.2324 69.4512 70.3398C69.9659 71.4471 71.0151 72.0008 72.5989 72.0008C73.3116 72.0008 74.0243 71.803 74.737 71.4075C75.4497 70.9725 75.8258 70.2804 75.8654 69.3313C75.1527 66.4839 74.7964 62.0546 74.7964 56.0434C74.7964 54.1451 74.8162 52.4841 74.8558 51.0604C74.8954 49.5971 74.9349 48.3514 74.9745 47.3231C75.1329 43.1311 75.2121 39.8289 75.2121 37.4165C75.2121 36.9024 74.7964 36.2894 73.9649 35.5776ZM347.855 59.3212C347.855 55.8058 347.887 53.138 347.95 51.3175L348.044 42.3723C348.044 38.7314 347.95 34.7453 347.761 30.4139C347.698 29.0956 347.478 27.2752 347.101 24.9526C346.598 21.4372 346.347 18.8007 346.347 17.0431C346.347 14.1555 347.793 12.7117 350.684 12.7117C352.506 12.7117 353.794 13.2139 354.549 14.2182C355.366 15.1599 355.931 16.6664 356.246 18.738C356.874 23.0693 357.188 28.154 357.188 33.992C357.188 35.7496 357.125 38.3861 357 41.9015C358.194 40.0182 359.734 38.5431 361.619 37.4759C363.567 36.4088 365.484 35.8752 367.37 35.8752C372.837 35.8752 377.551 38.135 381.51 42.6547C382.579 44.2241 383.521 46.1073 384.338 48.3044C385.218 50.4387 385.658 52.2905 385.658 53.8598C385.658 56.6219 385.344 59.1642 384.716 61.4869C384.15 63.8095 383.113 66.0693 381.605 68.2664C380.096 70.4635 378.179 72.2525 375.854 73.6336C373.592 75.0146 370.952 75.7051 367.935 75.7051C365.296 75.7051 362.907 75.1715 360.771 74.1044C358.697 73.0372 357.031 71.6248 355.774 69.8671C355.46 71.4365 354.769 73.0058 353.7 74.5752C352.632 76.0817 351.406 76.835 350.024 76.835C348.892 76.835 347.95 76.5525 347.195 75.9876C346.441 75.3598 346.064 74.4496 346.064 73.2569C346.064 72.3781 346.253 71.2796 346.63 69.9613C347.007 68.1409 347.29 66.4774 347.478 64.9708C347.73 63.4015 347.855 61.5182 347.855 59.3212ZM365.578 67.8898C368.658 67.8898 371.235 66.8226 373.309 64.6883C375.383 62.4912 376.42 59.5409 376.42 55.8372C376.42 52.4474 375.508 49.5285 373.686 47.0803C373.057 46.2642 372.146 45.6051 370.952 45.1029C369.821 44.6007 368.689 44.3496 367.558 44.3496C364.919 44.3496 362.687 45.1343 360.865 46.7036C359.042 48.2102 358.005 50.3131 357.754 53.0124C357.503 56.6533 357.377 59.792 357.377 62.4285C358.131 63.8723 359.262 65.1591 360.771 66.289C362.342 67.3562 363.944 67.8898 365.578 67.8898ZM188.638 18.5496C187.381 17.3569 186.312 16.7606 185.433 16.7606C184.239 16.7606 183.107 17.0431 182.039 17.608C180.97 18.1102 180.153 18.738 179.588 19.4912C177.262 23.1949 175.094 26.365 173.083 29.0015C171.135 31.638 168.652 34.4942 165.636 37.5701C163.876 39.3277 161.613 41.9642 158.848 45.4796C155.768 41.0226 152.626 36.2518 149.421 31.1672C146.216 26.0825 144.362 22.4416 143.859 20.2445C143.23 19.0518 142.256 18.1416 140.936 17.5139C139.679 16.8861 138.422 16.5723 137.166 16.5723C133.08 16.5723 131.038 18.4555 131.038 22.2219C131.038 25.2978 131.069 28.154 131.132 30.7905C131.195 33.3642 131.258 35.6241 131.321 37.5701L131.509 44.1613L131.698 49.246C132.012 56.2766 132.169 62.2401 132.169 67.1365C132.169 69.5847 132.138 71.3423 132.075 72.4095C132.138 73.665 132.672 74.6066 133.677 75.2343C134.746 75.862 136.097 76.1759 137.731 76.1759C139.365 76.1759 140.559 75.6737 141.313 74.6693C142.068 73.6022 142.445 72.3153 142.445 70.8088C142.445 67.9212 142.225 63.6212 141.785 57.9088C141.219 47.9905 140.936 40.1438 140.936 34.3686C142.382 36.6285 144.676 39.9555 147.818 44.3496L152.343 50.7525C153.349 52.3219 154.386 53.5146 155.454 54.3307C156.523 55.1467 157.874 55.5547 159.508 55.5547C160.199 55.5547 161.079 55.0839 162.148 54.1423L163.844 53.0124C167.867 47.5511 173.492 40.8029 180.719 32.7679C180.468 42.9372 180.342 54.0796 180.342 66.1949C180.342 69.4591 180.719 71.9701 181.473 73.7277C182.29 75.4854 183.956 76.3642 186.47 76.3642C187.601 76.3642 188.732 76.0504 189.863 75.4226C190.995 74.7321 191.592 73.6336 191.655 72.127C190.523 67.6073 189.958 60.5766 189.958 51.035C189.958 48.0219 189.989 45.3854 190.052 43.1255C190.115 40.8029 190.178 38.8255 190.24 37.1934C190.492 30.5394 190.618 25.2978 190.618 21.4686C190.618 20.6526 189.958 19.6796 188.638 18.5496ZM243.988 75.2343C245.496 74.2927 246.25 73.1314 246.25 71.7504C246.25 70.9971 246.062 70.3693 245.685 69.8671C245.308 69.365 244.773 69.1139 244.082 69.1139L241.443 69.208C240.688 69.208 240.028 68.9569 239.463 68.4547C238.897 67.8898 238.614 67.2307 238.614 66.4774C238.614 65.6613 238.677 64.5628 238.803 63.1817C238.929 62.0518 238.991 61.2044 238.991 60.6394C238.991 59.3839 239.054 57.8774 239.18 56.1197C239.306 54.4876 239.369 53.2635 239.369 52.4474C239.369 49.8737 238.834 47.5197 237.766 45.3854C236.76 43.1883 235.315 41.2737 233.429 39.6416C231.858 38.3861 229.847 37.4131 227.396 36.7226C224.945 35.9693 222.777 35.5927 220.891 35.5927C219.006 35.5927 216.869 35.938 214.481 36.6285C212.093 37.2562 210.019 38.2292 208.259 39.5474C206.562 40.8657 205.714 42.435 205.714 44.2555C205.714 44.8832 205.965 45.6051 206.468 46.4212C206.971 47.1745 207.505 47.5511 208.07 47.5511C209.642 47.5511 211.307 47.0803 213.067 46.1387C214.387 45.3854 215.549 44.789 216.555 44.3496C217.623 43.9102 218.692 43.6905 219.76 43.6905C223.405 43.6905 226.045 44.3496 227.679 45.6679C229.313 46.9234 230.13 49.246 230.13 52.6358V54.1423C229.124 53.5774 227.71 53.0438 225.888 52.5416C224.065 52.0394 222.494 51.7883 221.174 51.7883C218.66 51.7883 216.241 52.1336 213.915 52.8241C211.59 53.4518 209.516 54.362 207.693 55.5547C206.059 56.6847 204.771 58.0029 203.828 59.5095C202.885 60.9533 202.414 62.554 202.414 64.3117C202.414 68.392 203.671 71.4993 206.185 73.6336C208.699 75.7051 211.904 76.7409 215.801 76.7409C218.189 76.7409 220.797 76.3956 223.625 75.7051C226.453 74.9518 228.684 73.8533 230.318 72.4095C231.513 74.0416 232.801 75.1715 234.184 75.7993C235.629 76.3642 237.546 76.6467 239.934 76.6467C241.191 76.6467 242.542 76.1759 243.988 75.2343ZM222.682 68.4547C220.86 69.0197 218.597 69.3022 215.895 69.3022C214.826 69.3022 213.789 68.8942 212.784 68.0781C211.778 67.262 211.276 66.2577 211.276 65.065C211.276 62.6796 212.281 61.0161 214.292 60.0745C216.303 59.1328 218.597 58.662 221.174 58.662C223.437 58.662 226.296 59.4781 229.753 61.1102C229.69 62.8679 229.533 64.2803 229.281 65.3474C226.705 66.854 224.505 67.8898 222.682 68.4547ZM284.382 34.7453C285.639 34.7453 286.613 35.0591 287.304 35.6869C288.058 36.2518 288.435 36.9737 288.435 37.8526C288.435 38.4803 288.31 39.1394 288.058 39.8299C287.87 40.4577 287.65 41.1168 287.398 41.8073C285.953 45.1971 282.905 49.9365 278.254 56.0255C283.031 62.1774 286.896 66.1321 289.85 67.8898C290.101 68.0153 290.572 68.235 291.264 68.5489C291.955 68.8628 292.489 69.2394 292.866 69.6788C293.306 70.1182 293.526 70.6204 293.526 71.1854C293.526 72.5664 292.992 73.6963 291.924 74.5752C290.918 75.3912 289.692 75.7993 288.247 75.7993C285.796 75.7993 283.125 74.4496 280.234 71.7504C277.343 68.9883 274.892 66.1007 272.881 63.0876C271.435 65.2847 269.77 67.4817 267.884 69.6788C266.062 71.8131 264.365 73.6336 262.794 75.1401C262.165 75.8307 261.411 76.3642 260.531 76.7409C259.714 77.1175 258.897 77.3058 258.08 77.3058C256.949 77.3058 255.943 77.0547 255.063 76.5526C254.183 76.0504 253.744 75.1715 253.744 73.9161C253.744 73.6022 253.963 73.1 254.403 72.4095C254.843 71.6562 255.095 71.2168 255.158 71.0912C255.912 69.773 256.917 68.4233 258.174 67.0423C259.431 65.5985 260.217 64.6883 260.531 64.3117C261.285 63.3701 262.102 62.4599 262.982 61.581C263.485 61.0161 264.239 60.1372 265.245 58.9445C266.25 57.7518 266.942 56.8102 267.319 56.1197L264.019 51.6C262.448 49.7796 261.097 48.3358 259.965 47.2686C258.834 46.1387 257.923 45.5737 257.232 45.5737C256.226 45.5737 255.283 45.8562 254.403 46.4212C253.649 46.9234 252.895 47.1744 252.141 47.1744C251.324 47.1744 250.695 46.9861 250.255 46.6095C249.816 46.1701 249.596 45.6993 249.596 45.1971C249.596 43.0628 250.444 41.2423 252.141 39.7358C253.838 38.1664 255.975 37.3817 258.551 37.3817C261.002 37.3817 263.171 38.2292 265.056 39.9241C267.004 41.5562 268.921 43.7533 270.807 46.5153C271.058 46.7664 271.341 47.1744 271.655 47.7394C271.969 48.3044 272.284 48.7752 272.598 49.1518C273.289 48.1474 274.546 46.2015 276.369 43.3139C278.317 39.8613 279.48 37.8839 279.857 37.3817C281.177 35.6241 282.685 34.7453 284.382 34.7453ZM330.115 75.7051C331.246 76.3328 332.88 76.6467 335.017 76.6467C335.771 76.6467 336.525 76.2073 337.279 75.3285C338.096 74.3869 338.505 73.6022 338.505 72.9744C338.505 72.3467 338.379 71.7817 338.128 71.2796C337.876 70.7774 337.342 70.3066 336.525 69.8671C335.645 69.365 334.954 68.7372 334.451 67.9839C333.948 67.2307 333.697 66.446 333.697 65.6299C333.697 64.8766 333.76 63.935 333.885 62.8051C334.011 61.9263 334.074 61.2044 334.074 60.6394C334.074 59.4467 334.137 57.9088 334.263 56.0255C334.388 54.3934 334.451 53.1693 334.451 52.3533C334.451 49.7796 333.917 47.4255 332.849 45.2912C331.843 43.0942 330.397 41.1796 328.512 39.5474C326.941 38.292 324.898 37.2876 322.384 36.5343C319.87 35.781 317.702 35.4044 315.88 35.4044C313.994 35.4044 311.952 35.7496 309.752 36.4401C307.552 37.0679 305.667 38.0409 304.096 39.3591C302.587 40.6774 301.833 42.2467 301.833 44.0672C301.833 44.946 302.053 45.8248 302.493 46.7036C302.996 47.5197 303.75 47.9277 304.756 47.9277C306.767 47.9277 308.086 47.5197 308.715 46.7036C310.412 44.6321 312.423 43.5964 314.748 43.5964C318.394 43.5964 321.033 44.2555 322.667 45.5737C324.364 46.8292 325.212 49.1518 325.212 52.5416V52.6358C322.573 52.008 319.556 51.6942 316.162 51.6942C314.151 51.6942 311.92 52.0394 309.469 52.7299C307.081 53.4204 305.007 54.362 303.247 55.5547C301.676 56.6847 300.388 58.0029 299.382 59.5095C298.439 60.9533 297.968 62.554 297.968 64.3117C297.968 68.392 299.131 71.4993 301.456 73.6336C303.844 75.7051 306.955 76.7409 310.789 76.7409C313.114 76.7409 315.88 76.3015 319.085 75.4226C322.353 74.5438 324.804 73.3825 326.438 71.9387C327.758 73.7591 328.983 75.0146 330.115 75.7051ZM309.658 60.0745C311.543 59.1328 313.711 58.662 316.162 58.662C318.613 58.662 321.536 58.9445 324.93 59.5095C324.867 59.8861 324.835 60.4197 324.835 61.1102C324.773 62.9307 324.584 64.3431 324.27 65.3474C321.693 66.854 319.493 67.8898 317.671 68.4547C315.848 69.0197 313.586 69.3022 310.883 69.3022C309.878 69.3022 308.935 68.8942 308.055 68.0781C307.238 67.262 306.83 66.2577 306.83 65.065C306.83 62.6796 307.772 61.0161 309.658 60.0745ZM432.938 49.9051C432.624 48.2102 432.216 46.9234 431.713 46.0445C429.576 42.2781 427.157 39.5788 424.454 37.9467C421.814 36.3146 418.326 35.4985 413.99 35.4985C411.665 35.4985 408.993 36.0321 405.977 37.0993C402.96 38.1036 400.918 39.3277 399.849 40.7715C398.215 42.7803 396.77 45.4796 395.513 48.8693C394.256 52.2591 393.627 55.2409 393.627 57.8146C393.627 58.6934 393.91 59.9803 394.476 61.6752C395.104 63.3073 395.45 64.2489 395.513 64.5L396.173 66.3832C397.429 69.1452 399.535 71.562 402.489 73.6336C405.443 75.6423 408.459 76.6467 411.539 76.6467C421.217 76.6467 427.754 73.1314 431.147 66.1007C431.524 65.2219 431.996 63.4956 432.561 60.9219C433.127 58.2854 433.41 56.0883 433.41 54.3307C433.41 53.0124 433.253 51.5372 432.938 49.9051ZM423.7 58.8504C423.511 59.9803 423.291 60.765 423.04 61.2044C422.034 63.527 420.715 65.3474 419.081 66.6657C417.509 67.9839 415.31 68.6431 412.482 68.6431C410.659 68.6431 409.025 68.0781 407.579 66.9482C406.134 65.7555 405.16 64.7197 404.657 63.8409C404.468 63.3387 404.186 62.2088 403.809 60.4511C403.431 58.6934 403.243 57.5321 403.243 56.9671C403.243 54.8956 403.651 52.7927 404.468 50.6584C405.348 48.5241 406.637 46.735 408.334 45.2912C410.03 43.8474 412.104 43.1255 414.556 43.1255C415.812 43.1255 416.849 43.2825 417.666 43.5964C418.484 43.8474 419.081 44.1299 419.458 44.4438C419.835 44.6949 420.055 44.8832 420.118 45.0088C421.375 46.2642 422.317 47.7708 422.946 49.5285C423.637 51.2861 423.983 53.0752 423.983 54.8956C423.983 56.4022 423.888 57.7204 423.7 58.8504ZM479.774 46.0445C480.277 46.9234 480.685 48.2102 480.999 49.9051C481.314 51.5372 481.471 53.0124 481.471 54.3307C481.471 56.7788 480.937 60.2628 479.868 64.7825C475.532 72.692 469.121 76.6467 460.637 76.6467C457.494 76.6467 454.289 75.6109 451.021 73.5394C447.753 71.4679 445.49 69.0825 444.233 66.3832C442.537 60.9847 441.688 57.5635 441.688 56.1197C441.688 53.6088 442.222 50.9409 443.291 48.1161C444.422 45.2912 445.836 42.8431 447.533 40.7715C448.601 39.3277 450.518 38.1036 453.284 37.0993C456.049 36.0321 458.563 35.4985 460.825 35.4985C465.225 35.4985 468.964 36.346 472.044 38.0409C475.123 39.673 477.7 42.3409 479.774 46.0445ZM471.572 61.2044C471.886 60.3883 472.044 58.2854 472.044 54.8956C472.044 53.0752 471.698 51.2861 471.007 49.5285C470.378 47.7708 469.435 46.2642 468.178 45.0088C468.053 44.8832 467.707 44.6949 467.141 44.4438C466.576 44.1299 465.79 43.8474 464.785 43.5964C463.842 43.2825 462.742 43.1255 461.485 43.1255C457.966 43.1255 455.389 44.5379 453.755 47.3628C452.121 50.1876 451.304 53.389 451.304 56.9671C451.304 57.5949 451.461 58.7876 451.775 60.5452C452.152 62.3029 452.467 63.4015 452.718 63.8409C452.906 64.2803 453.378 64.908 454.132 65.7241C454.949 66.4774 455.923 67.1679 457.054 67.7956C458.248 68.3606 459.474 68.6431 460.731 68.6431C463.559 68.6431 465.822 67.9839 467.519 66.6657C469.215 65.2847 470.567 63.4642 471.572 61.2044ZM548.094 52.4474L547.717 59.6978L547.434 66.1949C547.434 69.5847 548.22 72.1898 549.791 74.0102C551.425 75.7679 553.782 76.6467 556.862 76.6467C558.496 76.6467 559.973 76.2387 561.292 75.4226C562.612 74.5438 563.272 73.3825 563.272 71.9387C563.272 70.6832 562.204 69.8044 560.067 69.3022C558.998 69.1139 558.119 68.6117 557.427 67.7956C556.799 66.9796 556.485 65.9124 556.485 64.5942C556.485 63.527 556.516 62.5226 556.579 61.581C556.642 60.5766 556.704 59.6664 556.767 58.8504C557.082 53.954 557.239 50.7839 557.239 49.3401C557.239 47.0803 556.642 44.9146 555.448 42.8431C554.316 40.7088 552.777 39.0139 550.828 37.7584C548.88 36.4401 546.837 35.781 544.701 35.781C541.747 35.781 538.73 36.4088 535.65 37.6642C532.634 38.9197 530.403 40.7088 528.957 43.0314C526.506 38.1978 522.578 35.781 517.173 35.781C514.219 35.781 511.705 36.5657 509.631 38.135C507.62 39.6416 505.861 41.7445 504.352 44.4438C503.472 41.8073 502.153 39.7044 500.393 38.135C498.696 36.5657 496.685 35.781 494.359 35.781C492.663 35.781 491.029 36.346 489.457 37.4759C487.949 38.5431 487.195 39.8613 487.195 41.4307C487.195 41.9328 487.509 42.5606 488.138 43.3139C488.829 44.0672 489.583 44.4438 490.4 44.4438C490.714 44.4438 491.186 44.3182 491.814 44.0672C492.505 43.8161 492.977 43.6905 493.228 43.6905C494.234 43.6905 495.082 44.4124 495.774 45.8562C496.528 47.2372 496.905 48.681 496.905 50.1876C496.905 53.5146 496.811 57.0613 496.622 60.8277C496.433 64.5942 496.182 67.4504 495.868 69.3963C495.616 70.589 495.491 71.7817 495.491 72.9744C495.491 74.1044 496.088 75.0146 497.282 75.7051C498.476 76.3328 499.67 76.6467 500.864 76.6467C502.498 76.6467 503.598 76.0817 504.164 74.9518C504.792 73.8219 505.106 72.3467 505.106 70.5263C505.106 66.6343 505.515 62.7109 506.332 58.7562C507.149 54.7387 508.437 51.3803 510.197 48.681C511.957 45.9817 514.188 44.6321 516.89 44.6321C519.216 44.6321 520.85 45.354 521.793 46.7978C522.735 48.2416 523.207 50.5328 523.207 53.6715C523.207 54.8642 523.049 56.9671 522.735 59.9803C522.358 64.2489 522.17 67.0737 522.17 68.4547C522.17 71.154 522.61 73.1942 523.489 74.5752C524.369 75.9562 526.066 76.6467 528.58 76.6467C529.586 76.6467 530.277 76.3328 530.654 75.7051C531.094 75.0774 531.283 74.1985 531.22 73.0686V70.7146C531.22 62.2401 532.225 55.8058 534.236 51.4117C536.248 46.9547 539.233 44.7263 543.192 44.7263C545.266 44.7263 546.586 45.354 547.152 46.6095C547.78 47.865 548.094 49.8109 548.094 52.4474Z" fill="#8B5000"/>
</g>
<defs>
<clipPath id="clip0_70_532">
<rect width="576" height="90.3942" fill="white"/>
</clipPath>
</defs>
</svg>
