<svg xmlns="http://www.w3.org/2000/svg" width="576" height="91" fill="none" viewBox="0 0 576 91"><g clip-path="url(#clip0_227_1993)"><path fill="#FFB86B" fill-rule="evenodd" d="M104.828 1.0625L97.437 5.50328C97.4316 4.95479 97.298 4.39919 96.9966 3.89763C96.0843 2.37921 94.0913 1.90282 92.5431 2.83307C90.9949 3.76332 90.4799 5.74662 91.3923 7.26504C92.3047 8.78346 94.2976 9.25986 95.8458 8.32961L102.851 4.12034L104.503 6.86861L107.305 5.18491L104.828 1.0625ZM106.624 11.4545L110.546 8.60541L112.135 10.7927L110.648 11.8729L109.588 10.4147L105.871 13.1153C105.05 13.7121 103.911 13.5429 103.325 12.7373C102.74 11.9316 102.931 10.7957 103.753 10.1989C104.574 9.60205 105.713 9.77119 106.299 10.5768C106.492 10.843 106.594 11.1476 106.624 11.4545ZM71.4434 15.7059L74.4634 12.721C76.666 10.5543 77.7313 9.77207 78.4065 9.77207C78.9747 9.77207 80.3951 10.5893 82.2077 11.9747C83.8072 13.2181 85.2986 14.3545 85.5477 14.5325C85.8328 14.7456 86.507 14.4615 87.5023 13.7513C91.1964 11.0515 96.561 10.3763 100.256 12.0818C101.855 12.827 102.104 13.0761 102.104 13.9643C102.104 15.8469 101.002 16.238 98.1955 15.2427C95.5657 14.3194 91.7646 15.0657 89.1708 17.0553C88.5316 17.5174 88.6026 17.6594 90.0951 19.436C92.7599 22.5619 93.9322 24.4095 93.9322 25.3688C93.9322 26.079 93.187 27.0743 90.9483 29.2769L87.9284 32.2618L88.7457 33.8963C89.2078 34.7846 90.06 37.0583 90.6642 38.9058C97.8404 61.5367 83.203 85.4819 59.7189 89.5681C54.9935 90.3843 47.6393 90.1003 43.0559 88.8929C28.1694 84.9857 16.801 72.55 14.1362 57.2734C12.8218 49.7761 14.0652 40.8234 17.3692 34.0034C19.6068 29.349 21.1343 27.1463 24.7584 23.3802C29.5198 18.4417 34.6354 15.2087 40.8172 13.2191C45.6847 11.6556 47.6033 11.3716 53.43 11.4066C58.1554 11.4426 59.4348 11.5846 62.4187 12.3659C64.3373 12.863 67.1441 13.8223 68.6716 14.4975L71.4434 15.7059ZM49.6639 22.669C53.466 22.3849 54.7804 21.0705 53.0749 19.365C52.6128 18.9028 51.9386 18.6537 51.2274 18.6898C44.1932 18.9738 37.1231 21.7447 32.3267 26.115C30.23 28.0696 29.8389 29.1349 30.9052 30.1652C31.7935 31.0895 32.5747 30.8404 34.9555 28.7798C39.1127 25.2627 44.3343 23.0951 49.6639 22.669ZM73.8811 35.7899C73.0958 35.0439 72.4283 34.6709 71.8786 34.6709C71.1326 34.6709 70.4259 34.8476 69.7584 35.2009C69.0909 35.515 68.5804 35.9077 68.2271 36.3789C66.7743 38.6954 65.4197 40.6783 64.1632 42.3274C62.946 43.9765 61.3951 45.763 59.5104 47.6869C58.411 48.7863 56.9975 50.4354 55.2699 52.6342C53.346 49.8465 51.3827 46.8624 49.3803 43.682C47.3778 40.5016 46.2195 38.2243 45.9054 36.85C45.5128 36.104 44.9042 35.5347 44.0796 35.142C43.2943 34.7494 42.509 34.5531 41.7238 34.5531C39.1716 34.5531 37.8955 35.731 37.8955 38.0869C37.8955 40.0108 37.9151 41.7973 37.9544 43.4464C37.9937 45.0562 38.0329 46.4697 38.0722 47.6869L38.19 51.8097L38.3078 54.9901C38.5041 59.3877 38.6023 63.1178 38.6023 66.1804C38.6023 67.7117 38.5826 68.8111 38.5434 69.4786C38.5826 70.2638 38.9164 70.8528 39.5446 71.2454C40.2121 71.6381 41.0563 71.8344 42.0771 71.8344C43.098 71.8344 43.844 71.5203 44.3152 70.8921C44.7864 70.2246 45.0219 69.4197 45.0219 68.4773C45.0219 66.6712 44.8845 63.9816 44.6097 60.4085C44.2563 54.2048 44.0796 49.2968 44.0796 45.6845C44.9827 47.098 46.4158 49.179 48.379 51.9275L51.2061 55.9324C51.8343 56.914 52.4821 57.66 53.1496 58.1705C53.8171 58.6809 54.6613 58.9361 55.6822 58.9361C56.1141 58.9361 56.6638 58.6416 57.3313 58.0527L58.3914 57.3459C60.9043 53.9299 64.4184 49.709 68.9338 44.6832C68.7768 51.044 68.6982 58.0134 68.6982 65.5914C68.6982 67.6331 68.9338 69.2037 69.405 70.3031C69.9154 71.4025 70.9559 71.9522 72.5265 71.9522C73.2333 71.9522 73.94 71.7559 74.6468 71.3632C75.3535 70.9313 75.7265 70.2442 75.7658 69.3019C75.059 66.4748 74.7057 62.0773 74.7057 56.1091C74.7057 54.2244 74.7253 52.5753 74.7645 51.1618C74.8038 49.709 74.8431 48.4722 74.8823 47.4514C75.0394 43.2894 75.1179 40.0108 75.1179 37.6157C75.1179 37.1052 74.7057 36.4967 73.8811 35.7899ZM108.682 15.953L101.706 21.0211C101.653 20.4751 101.472 19.9333 101.128 19.4599C100.087 18.0268 98.0596 17.7259 96.5984 18.7875C95.1372 19.8492 94.797 21.8698 95.8382 23.3029C96.8795 24.7361 98.9063 25.037 100.368 23.9753L106.979 19.1715L108.864 21.7654L111.509 19.8439L108.682 15.953ZM347.855 59.3906C347.855 55.8711 347.887 53.2001 347.949 51.3775L348.044 42.4217C348.044 38.7765 347.949 34.7857 347.761 30.4492C347.698 29.1294 347.478 27.3068 347.101 24.9814C346.598 21.4619 346.347 18.8223 346.347 17.0626C346.347 14.1716 347.792 12.7261 350.683 12.7261C352.506 12.7261 353.794 13.2289 354.548 14.2344C355.365 15.1772 355.931 16.6855 356.245 18.7595C356.874 23.096 357.188 28.1866 357.188 34.0315C357.188 35.7912 357.125 38.4308 357 41.9503C358.194 40.0649 359.733 38.588 361.619 37.5195C363.567 36.4511 365.484 35.9169 367.369 35.9169C372.837 35.9169 377.551 38.1794 381.51 42.7045C382.579 44.2757 383.521 46.1611 384.338 48.3608C385.218 50.4976 385.658 52.3516 385.658 53.9228C385.658 56.6881 385.344 59.2335 384.715 61.5588C384.15 63.8842 383.113 66.1467 381.604 68.3464C380.096 70.5461 378.179 72.3372 375.854 73.7199C373.591 75.1025 370.952 75.7938 367.935 75.7938C365.295 75.7938 362.907 75.2596 360.77 74.1912C358.696 73.1228 357.031 71.7087 355.774 69.949C355.46 71.5202 354.768 73.0914 353.7 74.6626C352.632 76.1709 351.406 76.9251 350.023 76.9251C348.892 76.9251 347.949 76.6423 347.195 76.0767C346.441 75.4482 346.064 74.5369 346.064 73.3428C346.064 72.4629 346.253 71.3631 346.63 70.0433C347.007 68.2207 347.29 66.5552 347.478 65.0469C347.729 63.4757 347.855 61.5902 347.855 59.3906ZM365.578 67.9693C368.658 67.9693 371.235 66.9009 373.309 64.7641C375.383 62.5644 376.419 59.6105 376.419 55.9025C376.419 52.5087 375.508 49.5863 373.686 47.1353C373.057 46.3182 372.146 45.6583 370.952 45.1556C369.82 44.6528 368.689 44.4014 367.558 44.4014C364.918 44.4014 362.687 45.187 360.865 46.7582C359.042 48.2665 358.005 50.3719 357.754 53.0744C357.502 56.7195 357.377 59.8619 357.377 62.5015C358.131 63.947 359.262 65.2354 360.77 66.3667C362.342 67.4351 363.944 67.9693 365.578 67.9693ZM188.638 18.5709C187.381 17.3768 186.312 16.7798 185.432 16.7798C184.238 16.7798 183.107 17.0626 182.039 17.6282C180.97 18.131 180.153 18.7595 179.588 19.5136C177.262 23.2217 175.094 26.3955 173.083 29.0351C171.135 31.6747 168.652 34.5343 165.635 37.6138C163.876 39.3736 161.613 42.0132 158.848 45.5326C155.768 41.0704 152.626 36.294 149.421 31.2033C146.215 26.1127 144.361 22.4675 143.859 20.2678C143.23 19.0737 142.256 18.1624 140.936 17.5339C139.679 16.9055 138.422 16.5912 137.165 16.5912C133.08 16.5912 131.038 18.4767 131.038 22.2475C131.038 25.3271 131.069 28.1866 131.132 30.8263C131.195 33.403 131.258 35.6655 131.32 37.6138L131.509 44.2128L131.698 49.3035C132.012 56.3425 132.169 62.313 132.169 67.2151C132.169 69.6662 132.137 71.4259 132.075 72.4943C132.137 73.7513 132.672 74.694 133.677 75.3225C134.746 75.951 136.097 76.2652 137.731 76.2652C139.365 76.2652 140.559 75.7624 141.313 74.7569C142.067 73.6884 142.445 72.4001 142.445 70.8917C142.445 68.0007 142.225 63.6956 141.785 57.9765C141.219 48.0465 140.936 40.1906 140.936 34.4086C142.382 36.6711 144.676 40.002 147.818 44.4014L152.343 50.8118C153.349 52.383 154.386 53.5771 155.454 54.3942C156.522 55.2112 157.874 55.6197 159.508 55.6197C160.199 55.6197 161.079 55.1483 162.147 54.2056L163.844 53.0744C167.866 47.6066 173.491 40.8505 180.719 32.806C180.467 42.9873 180.342 54.1428 180.342 66.2724C180.342 69.5405 180.719 72.0544 181.473 73.8141C182.29 75.5739 183.956 76.4537 186.469 76.4537C187.601 76.4537 188.732 76.1395 189.863 75.511C190.994 74.8197 191.592 73.7199 191.654 72.2115C190.523 67.6865 189.957 60.6475 189.957 51.0947C189.957 48.078 189.989 45.4384 190.052 43.1758C190.115 40.8505 190.177 38.8708 190.24 37.2367C190.492 30.5749 190.617 25.3271 190.617 21.4934C190.617 20.6763 189.957 19.7022 188.638 18.5709ZM243.988 75.3225C245.496 74.3798 246.25 73.2171 246.25 71.8344C246.25 71.0803 246.062 70.4518 245.685 69.949C245.307 69.4462 244.773 69.1948 244.082 69.1948L241.442 69.2891C240.688 69.2891 240.028 69.0377 239.463 68.5349C238.897 67.9693 238.614 67.3094 238.614 66.5552C238.614 65.7382 238.677 64.6384 238.803 63.2557C238.928 62.1245 238.991 61.276 238.991 60.7104C238.991 59.4534 239.054 57.9451 239.18 56.1853C239.306 54.5513 239.368 53.3258 239.368 52.5087C239.368 49.932 238.834 47.5752 237.766 45.4384C236.76 43.2387 235.315 41.3218 233.429 39.6878C231.858 38.4308 229.847 37.4567 227.396 36.7654C224.945 36.0112 222.777 35.6341 220.891 35.6341C219.006 35.6341 216.869 35.9798 214.481 36.6711C212.092 37.2996 210.018 38.2737 208.259 39.5935C206.562 40.9133 205.713 42.4845 205.713 44.3071C205.713 44.9356 205.965 45.6583 206.468 46.4754C206.97 47.2295 207.505 47.6066 208.07 47.6066C209.641 47.6066 211.307 47.1353 213.067 46.1925C214.386 45.4384 215.549 44.8413 216.555 44.4014C217.623 43.9614 218.691 43.7415 219.76 43.7415C223.405 43.7415 226.045 44.4014 227.679 45.7212C229.313 46.9781 230.13 49.3035 230.13 52.6973V54.2056C229.124 53.64 227.71 53.1058 225.887 52.603C224.065 52.1002 222.494 51.8488 221.174 51.8488C218.66 51.8488 216.24 52.1945 213.915 52.8858C211.59 53.5143 209.516 54.4256 207.693 55.6197C206.059 56.751 204.771 58.0708 203.828 59.5791C202.885 61.0246 202.414 62.6272 202.414 64.387C202.414 68.4721 203.671 71.583 206.185 73.7199C208.699 75.7938 211.904 76.8308 215.8 76.8308C218.189 76.8308 220.797 76.4852 223.625 75.7938C226.453 75.0397 228.684 73.9398 230.318 72.4943C231.512 74.1284 232.801 75.2596 234.183 75.8881C235.629 76.4538 237.546 76.7366 239.934 76.7366C241.191 76.7366 242.542 76.2652 243.988 75.3225ZM222.682 68.5349C220.86 69.1006 218.597 69.3834 215.895 69.3834C214.826 69.3834 213.789 68.9749 212.784 68.1578C211.778 67.3408 211.275 66.3353 211.275 65.1411C211.275 62.7529 212.281 61.0875 214.292 60.1447C216.303 59.202 218.597 58.7307 221.174 58.7307C223.436 58.7307 226.296 59.5477 229.753 61.1817C229.69 62.9415 229.533 64.3555 229.281 65.424C226.705 66.9323 224.505 67.9693 222.682 68.5349ZM284.382 34.7857C285.639 34.7857 286.613 35.0999 287.304 35.7284C288.058 36.294 288.435 37.0168 288.435 37.8966C288.435 38.5251 288.31 39.185 288.058 39.8763C287.87 40.5048 287.65 41.1647 287.398 41.856C285.953 45.2498 282.905 49.9948 278.254 56.0911C283.03 62.2501 286.896 66.2096 289.849 67.9693C290.101 68.095 290.572 68.315 291.263 68.6292C291.955 68.9434 292.489 69.3205 292.866 69.7605C293.306 70.2004 293.526 70.7032 293.526 71.2688C293.526 72.6515 292.992 73.7827 291.923 74.6626C290.918 75.4796 289.692 75.8881 288.247 75.8881C285.796 75.8881 283.125 74.5369 280.234 71.8344C277.343 69.0691 274.892 66.1781 272.88 63.1614C271.435 65.3611 269.77 67.5608 267.884 69.7605C266.061 71.8973 264.365 73.7199 262.793 75.2282C262.165 75.9195 261.411 76.4538 260.531 76.8308C259.714 77.2079 258.897 77.3965 258.08 77.3965C256.949 77.3965 255.943 77.1451 255.063 76.6423C254.183 76.1395 253.743 75.2596 253.743 74.0027C253.743 73.6884 253.963 73.1857 254.403 72.4943C254.843 71.7402 255.095 71.3002 255.157 71.1745C255.912 69.8547 256.917 68.5035 258.174 67.1208C259.431 65.6753 260.217 64.7641 260.531 64.387C261.285 63.4443 262.102 62.533 262.982 61.6531C263.485 61.0875 264.239 60.2076 265.244 59.0135C266.25 57.8194 266.941 56.8767 267.318 56.1853L264.019 51.6603C262.448 49.8377 261.096 48.3922 259.965 47.3238C258.834 46.1925 257.923 45.6269 257.231 45.6269C256.226 45.6269 255.283 45.9097 254.403 46.4754C253.649 46.9781 252.895 47.2295 252.141 47.2295C251.324 47.2295 250.695 47.041 250.255 46.6639C249.815 46.224 249.595 45.7526 249.595 45.2498C249.595 43.113 250.444 41.2904 252.141 39.7821C253.838 38.2109 255.974 37.4253 258.551 37.4253C261.002 37.4253 263.17 38.2737 265.056 39.9706C267.004 41.6046 268.921 43.8043 270.806 46.5696C271.058 46.821 271.341 47.2295 271.655 47.7952C271.969 48.3608 272.283 48.8321 272.598 49.2092C273.289 48.2037 274.546 46.2554 276.369 43.3644C278.317 39.9078 279.479 37.9281 279.857 37.4253C281.176 35.6655 282.685 34.7857 284.382 34.7857ZM330.114 75.7938C331.246 76.4223 332.88 76.7366 335.017 76.7366C335.771 76.7366 336.525 76.2966 337.279 75.4168C338.096 74.474 338.505 73.6884 338.505 73.06C338.505 72.4315 338.379 71.8659 338.128 71.3631C337.876 70.8603 337.342 70.3889 336.525 69.949C335.645 69.4462 334.954 68.8177 334.451 68.0636C333.948 67.3094 333.697 66.5238 333.697 65.7068C333.697 64.9526 333.76 64.0099 333.885 62.8786C334.011 61.9988 334.074 61.276 334.074 60.7104C334.074 59.5163 334.137 57.9765 334.262 56.0911C334.388 54.457 334.451 53.2315 334.451 52.4145C334.451 49.8377 333.917 47.4809 332.848 45.3441C331.843 43.1444 330.397 41.2276 328.512 39.5935C326.941 38.3366 324.898 37.331 322.384 36.5768C319.87 35.8227 317.702 35.4456 315.879 35.4456C313.994 35.4456 311.951 35.7912 309.752 36.4826C307.552 37.111 305.667 38.0852 304.095 39.405C302.587 40.7248 301.833 42.296 301.833 44.1186C301.833 44.9984 302.053 45.8783 302.493 46.7582C302.996 47.5752 303.75 47.9837 304.755 47.9837C306.766 47.9837 308.086 47.5752 308.715 46.7582C310.412 44.6842 312.423 43.6472 314.748 43.6472C318.393 43.6472 321.033 44.3071 322.667 45.6269C324.364 46.8839 325.212 49.2092 325.212 52.603V52.6973C322.573 52.0688 319.556 51.7546 316.162 51.7546C314.151 51.7546 311.92 52.1002 309.469 52.7916C307.081 53.4829 305.007 54.4256 303.247 55.6197C301.676 56.751 300.387 58.0708 299.382 59.5791C298.439 61.0246 297.968 62.6272 297.968 64.387C297.968 68.4721 299.13 71.583 301.456 73.7199C303.844 75.7938 306.955 76.8308 310.789 76.8308C313.114 76.8308 315.879 76.3909 319.085 75.511C322.353 74.6312 324.804 73.4685 326.438 72.023C327.758 73.8456 328.983 75.1025 330.114 75.7938ZM309.657 60.1447C311.543 59.202 313.711 58.7307 316.162 58.7307C318.613 58.7307 321.536 59.0135 324.93 59.5791C324.867 59.9562 324.835 60.4904 324.835 61.1817C324.772 63.0043 324.584 64.4184 324.27 65.424C321.693 66.9323 319.493 67.9693 317.671 68.5349C315.848 69.1006 313.585 69.3834 310.883 69.3834C309.877 69.3834 308.935 68.9749 308.055 68.1578C307.238 67.3408 306.829 66.3353 306.829 65.1411C306.829 62.7529 307.772 61.0875 309.657 60.1447ZM432.938 49.9634C432.624 48.2665 432.216 46.9781 431.713 46.0983C429.576 42.3274 427.156 39.6249 424.454 37.9909C421.814 36.3569 418.326 35.5398 413.99 35.5398C411.664 35.5398 408.993 36.074 405.977 37.1425C402.96 38.148 400.917 39.3736 399.849 40.8191C398.215 42.8302 396.769 45.5326 395.512 48.9264C394.255 52.3202 393.627 55.3055 393.627 57.8822C393.627 58.7621 393.91 60.0505 394.475 61.7474C395.104 63.3814 395.45 64.3241 395.512 64.5755L396.172 66.461C397.429 69.2262 399.535 71.6459 402.489 73.7199C405.442 75.731 408.459 76.7366 411.539 76.7366C421.217 76.7366 427.753 73.2171 431.147 66.1781C431.524 65.2983 431.996 63.5699 432.561 60.9932C433.127 58.3536 433.41 56.1539 433.41 54.3942C433.41 53.0744 433.253 51.5974 432.938 49.9634ZM423.7 58.9192C423.511 60.0505 423.291 60.8361 423.04 61.276C422.034 63.6014 420.714 65.424 419.08 66.7438C417.509 68.0636 415.31 68.7235 412.481 68.7235C410.659 68.7235 409.025 68.1578 407.579 67.0266C406.134 65.8325 405.16 64.7955 404.657 63.9156C404.468 63.4128 404.185 62.2816 403.808 60.5218C403.431 58.7621 403.243 57.5994 403.243 57.0338C403.243 54.9598 403.651 52.8544 404.468 50.7176C405.348 48.5807 406.637 46.7896 408.333 45.3441C410.03 43.8986 412.104 43.1758 414.555 43.1758C415.812 43.1758 416.849 43.333 417.666 43.6472C418.483 43.8986 419.08 44.1814 419.457 44.4956C419.835 44.747 420.055 44.9356 420.117 45.0613C421.374 46.3182 422.317 47.8266 422.945 49.5863C423.637 51.3461 423.983 53.1372 423.983 54.9598C423.983 56.4681 423.888 57.788 423.7 58.9192ZM479.774 46.0983C480.276 46.9781 480.685 48.2665 480.999 49.9634C481.313 51.5974 481.471 53.0744 481.471 54.3942C481.471 56.8452 480.936 60.3333 479.868 64.8583C475.531 72.7771 469.121 76.7366 460.637 76.7366C457.494 76.7366 454.289 75.6996 451.021 73.6256C447.753 71.5516 445.49 69.1634 444.233 66.461C442.536 61.056 441.688 57.6308 441.688 56.1853C441.688 53.6714 442.222 51.0004 443.291 48.1722C444.422 45.3441 445.836 42.893 447.533 40.8191C448.601 39.3736 450.518 38.148 453.283 37.1425C456.049 36.074 458.563 35.5398 460.825 35.5398C465.224 35.5398 468.964 36.3883 472.043 38.0852C475.123 39.7192 477.7 42.3902 479.774 46.0983ZM471.572 61.276C471.886 60.459 472.043 58.3536 472.043 54.9598C472.043 53.1372 471.698 51.3461 471.006 49.5863C470.378 47.8266 469.435 46.3182 468.178 45.0613C468.053 44.9356 467.707 44.747 467.141 44.4956C466.576 44.1814 465.79 43.8986 464.784 43.6472C463.842 43.333 462.742 43.1758 461.485 43.1758C457.965 43.1758 455.389 44.5899 453.755 47.4181C452.121 50.2462 451.304 53.4515 451.304 57.0338C451.304 57.6623 451.461 58.8564 451.775 60.6161C452.152 62.3758 452.466 63.4757 452.718 63.9156C452.906 64.3556 453.378 64.984 454.132 65.801C454.949 66.5552 455.923 67.2465 457.054 67.875C458.248 68.4407 459.474 68.7235 460.731 68.7235C463.559 68.7235 465.821 68.0636 467.518 66.7438C469.215 65.3611 470.566 63.5385 471.572 61.276ZM548.094 52.5087L547.717 59.7677L547.434 66.2724C547.434 69.6662 548.22 72.2744 549.791 74.097C551.425 75.8567 553.782 76.7366 556.861 76.7366C558.495 76.7366 559.972 76.328 561.292 75.511C562.612 74.6312 563.272 73.4685 563.272 72.023C563.272 70.766 562.203 69.8862 560.067 69.3834C558.998 69.1948 558.118 68.692 557.427 67.875C556.799 67.058 556.484 65.9896 556.484 64.6698C556.484 63.6014 556.516 62.5958 556.579 61.6531C556.641 60.6475 556.704 59.7362 556.767 58.9192C557.081 54.0171 557.238 50.8433 557.238 49.3978C557.238 47.1353 556.641 44.967 555.447 42.893C554.316 40.7562 552.776 39.0593 550.828 37.8024C548.88 36.4826 546.837 35.8227 544.7 35.8227C541.747 35.8227 538.73 36.4511 535.65 37.7081C532.634 38.965 530.402 40.7562 528.957 43.0816C526.506 38.2423 522.578 35.8227 517.173 35.8227C514.219 35.8227 511.705 36.6082 509.631 38.1794C507.62 39.6878 505.86 41.7932 504.352 44.4956C503.472 41.856 502.152 39.7506 500.393 38.1794C498.696 36.6082 496.685 35.8227 494.359 35.8227C492.662 35.8227 491.028 36.3883 489.457 37.5195C487.949 38.588 487.195 39.9078 487.195 41.479C487.195 41.9817 487.509 42.6102 488.137 43.3644C488.829 44.1186 489.583 44.4956 490.4 44.4956C490.714 44.4956 491.185 44.37 491.814 44.1186C492.505 43.8672 492.977 43.7415 493.228 43.7415C494.234 43.7415 495.082 44.4642 495.773 45.9097C496.528 47.2924 496.905 48.7379 496.905 50.2462C496.905 53.5771 496.81 57.1281 496.622 60.8989C496.433 64.6698 496.182 67.5294 495.868 69.4776C495.616 70.6717 495.491 71.8659 495.491 73.06C495.491 74.1912 496.088 75.1025 497.282 75.7938C498.476 76.4223 499.67 76.7366 500.864 76.7366C502.498 76.7366 503.598 76.1709 504.164 75.0397C504.792 73.9084 505.106 72.4315 505.106 70.6089C505.106 66.7123 505.515 62.7844 506.332 58.8249C507.149 54.8027 508.437 51.4403 510.197 48.7379C511.957 46.0354 514.188 44.6842 516.89 44.6842C519.216 44.6842 520.85 45.4069 521.792 46.8524C522.735 48.2979 523.206 50.5919 523.206 53.7343C523.206 54.9284 523.049 57.0338 522.735 60.0505C522.358 64.3241 522.169 67.1523 522.169 68.5349C522.169 71.2374 522.609 73.2799 523.489 74.6626C524.369 76.0452 526.066 76.7366 528.58 76.7366C529.585 76.7366 530.277 76.4223 530.654 75.7938C531.094 75.1654 531.282 74.2855 531.219 73.1542V70.7974C531.219 62.313 532.225 55.8711 534.236 51.4717C536.247 47.0096 539.233 44.7785 543.192 44.7785C545.266 44.7785 546.586 45.4069 547.151 46.6639C547.78 47.9209 548.094 49.8691 548.094 52.5087Z" clip-rule="evenodd"/></g><defs><clipPath id="clip0_227_1993"><rect width="576" height="90.501" fill="#fff"/></clipPath></defs></svg>