<svg xmlns="http://www.w3.org/2000/svg" viewBox="0 0 64 64"><g id="outline"><path d="M43,44V62H41V44a1,1,0,0,0-2,0v7H37V42a1,1,0,0,0-2,0v8H33V40a1,1,0,0,0-2,0V50H29V41a1,1,0,0,0-2,0V52H25V49a1,1,0,0,0-1-1H23v7.59l3.71,3.7A1,1,0,0,1,27,60v2H25V60.41l-3.71-3.7A1,1,0,0,1,21,56V47a1,1,0,0,1,1-1h2a3,3,0,0,1,1,.18V41a3,3,0,0,1,3-3,2.94,2.94,0,0,1,1.47.4,3,3,0,0,1,5.41.82,3,3,0,0,1,4,2A3,3,0,0,1,43,44Zm8.75-15.16-2,.32A19.19,19.19,0,0,1,50,32a17.86,17.86,0,0,1-5.68,13.13l1.36,1.46A20.08,20.08,0,0,0,52,32,19.61,19.61,0,0,0,51.75,28.84ZM32,14a17.9,17.9,0,0,1,15.31,8.53L49,21.48A20,20,0,1,0,18.32,46.59l1.36-1.46A18,18,0,0,1,32,14ZM18,32a14,14,0,0,1,.8-4.67l-1.89-.66A16,16,0,0,0,16,32ZM32,18V16a15.87,15.87,0,0,0-12.79,6.4l1.6,1.2A13.87,13.87,0,0,1,32,18Zm6.06,17.5A6.93,6.93,0,0,0,39,32a7,7,0,0,0-14,0,6.93,6.93,0,0,0,.94,3.5l1.73-1a5,5,0,1,1,8.66,0ZM32,29a3,3,0,1,1-3,3A3,3,0,0,1,32,29Zm0,2a1,1,0,1,0,1,1A1,1,0,0,0,32,31ZM52,8a4,4,0,1,1,5,3.86V20a1,1,0,0,1-.29.71L47,30.41V34a1,1,0,0,1-1,1H42a1,1,0,0,1-1-1V30a1,1,0,0,1,1-1h3.59L55,19.59V11.86A4,4,0,0,1,52,8ZM45,31H43v2h2ZM54,8a2,2,0,1,0,2-2A2,2,0,0,0,54,8ZM6,8H2v2H6ZM5,2H3V6H5ZM5,16V12H3v4Zm7-6H8v2h4ZM11,2H9V8h2Zm0,14V14H9v2ZM18,6H14V8h4ZM17,2H15V4h2Zm0,14V10H15v6ZM14,56a6,6,0,1,1-6-6A6,6,0,0,1,14,56Zm-2,0a4,4,0,0,0-.57-2L9.71,55.71,8.29,54.29,10,52.57A4,4,0,1,0,12,56Zm42,1v4a1,1,0,0,1-1,1H49a1,1,0,0,1-1-1V57a1,1,0,0,1,1-1h4A1,1,0,0,1,54,57Zm-2,1H50v2h2Zm10-1v4a1,1,0,0,1-1,1H57a1,1,0,0,1-1-1V57a1,1,0,0,1,1-1h4A1,1,0,0,1,62,57Zm-2,1H58v2h2Zm-6-9v4a1,1,0,0,1-1,1H49a1,1,0,0,1-1-1V49a1,1,0,0,1,1-1h4A1,1,0,0,1,54,49Zm-2,1H50v2h2Zm10-1v4a1,1,0,0,1-1,1H57a1,1,0,0,1-1-1V49a1,1,0,0,1,1-1h4A1,1,0,0,1,62,49Zm-2,1H58v2h2Z"/></g></svg>