<svg xmlns="http://www.w3.org/2000/svg" xmlns:xlink="http://www.w3.org/1999/xlink" width="60" height="60" version="1.1" viewBox="0 0 60 60"><title>Drums</title><desc>Created with Sketch.</desc><g id="outlined" fill="none" fill-rule="evenodd" stroke="none" stroke-width="1"><g id="Activities" stroke="#535353" stroke-linejoin="round" stroke-width="2" transform="translate(-236.000000, 3.000000)"><g id="Drums" transform="translate(247.000000, 3.000000)"><path id="Oval-888" stroke-linecap="round" d="M1,44 C1,47.8659932 9.0588745,51 19,51 C28.9411255,51 37,47.8659932 37,44"/><path id="Line" stroke-linecap="square" d="M37,44 L37,19.9791757"/><path id="Line" stroke-linecap="square" d="M1,44 L1,19.9791757"/><ellipse id="Oval-888" cx="19" cy="20" stroke-linecap="round" rx="18" ry="7"/><path id="Path-2097" stroke-linecap="round" d="M1.68649006,44.9720004 L9.4413674,25.9155331 L11.2922768,49.5908459 L19.2717046,26.9403242 L28.8488242,49.5157114 L30.317132,25.9155331 L36.5475814,44.5015675"/><path id="Path-2098" stroke-linecap="round" d="M8,18.0000006 L31.0035807,0.0791017214 L8,18.0000006 Z"/><path id="Path-2099" stroke-linecap="round" d="M7,18.0000006 L30.0035807,0.0791017214 L7,18.0000006 Z" transform="translate(18.501790, 9.039551) scale(-1, 1) translate(-18.501790, -9.039551)"/></g></g></g></svg>