<svg xmlns="http://www.w3.org/2000/svg" xmlns:xlink="http://www.w3.org/1999/xlink" width="102" height="103" version="1.1" viewBox="0 0 102 103"><title>37-multimeda-guitar</title><desc>Created with Sketch.</desc><g id="3.Multimedia" fill="none" fill-rule="evenodd" stroke="none" stroke-linecap="round" stroke-linejoin="round" stroke-width="1"><g id="Multimedia-(Stroke)" stroke="#263238" stroke-width="3.5" transform="translate(-1298.000000, -703.000000)"><g id="37-multimeda-guitar" transform="translate(1300.000000, 705.000000)"><path id="Layer-1" d="M41.5130704,63.0250146 L60.465615,43.8884647 C66.8479135,51.7280356 69.150566,60.3712501 61.9821451,67.510324 C58.1249154,71.3517625 55.1981913,69.5023092 50.1636706,74.5857136 C45.1291499,79.6691179 49.8776068,85.6973124 41.8673797,93.7853087 C33.8965119,101.833564 19.2967909,100.183791 9.01573136,90.1682375 C-0.901013963,79.7848326 -2.53492315,65.0433667 5.43594464,56.9951119 C13.4461717,48.9071156 19.4164028,53.701674 24.4509282,48.6182744 C29.4854537,43.5348748 27.6537836,40.579736 31.4582852,36.6850575 C38.5872243,29.3871433 47.2305982,31.8111838 55.0437042,38.3788324 L36.1915159,57.4140517 C33.9608319,56.9175545 31.5340948,57.5452217 29.7991078,59.2970532 C27.0954062,62.0270043 27.0954062,66.4531296 29.7991078,69.1830807 C32.5028094,71.9130318 36.8863757,71.9130318 39.5900773,69.1830807 C41.2492293,67.5078204 41.890227,65.1938185 41.5130704,63.0250146 L41.5130704,63.0250146 Z"/><path id="Layer-2" d="M86.9384746,2.16175277 C88.061349,1.02797667 89.8843158,1.03042798 91.0136282,2.17070452 L96.448354,7.65819469 C97.5761248,8.79691471 97.5753766,10.6439002 96.4572197,11.7729129 L87.5113862,20.8055991 C86.3885118,21.9393752 84.5655449,21.9369239 83.4362326,20.7966474 L78.0015068,15.3091572 C76.873736,14.1704372 76.8744842,12.3234518 77.9926411,11.194439 L86.9384746,2.16175277 L86.9384746,2.16175277 Z"/><path id="Layer-3" d="M93.7953845,18.7024707 L91.7556534,16.6627396"/><path id="Layer-4" d="M97.9144531,14.5834021 L95.874722,12.543671"/><path id="Layer-5" d="M89.6763159,22.8215393 L87.6365848,20.7818082"/><path id="Layer-6" d="M81.5569979,6.34526482 L79.5172668,4.3055337"/><path id="Layer-7" d="M85.6760665,2.22619619 L83.6363354,0.186465069"/><path id="Layer-8" d="M77.4379293,10.4643335 L75.3981982,8.42460233"/><path id="Layer-9" d="M41.2268437,63.0807763 L83.5904473,20.7171726 L78.1511644,15.2778897 L35.9199928,57.5090613 C37.1953698,57.7200204 38.4163046,58.3152818 39.396767,59.2957442 C40.4559765,60.3549538 41.0656244,61.6948146 41.2268437,63.0807763 L41.2268437,63.0807763 Z"/><path id="Layer-10" d="M18.770683,73.7493512 L25.2767437,80.3185775"/></g></g></g></svg>