<svg xmlns="http://www.w3.org/2000/svg" xmlns:xlink="http://www.w3.org/1999/xlink" width="60" height="60" version="1.1" viewBox="0 0 60 60"><title>Piano</title><desc>Created with Sketch.</desc><g id="outlined" fill="none" fill-rule="evenodd" stroke="none" stroke-width="1"><g id="Activities" stroke="#535353" stroke-linejoin="round" stroke-width="2" transform="translate(-356.000000, 3.000000)"><g id="Piano" transform="translate(360.000000, 1.000000)"><path id="Oval-889" stroke-linecap="round" d="M37.5,40 L21,40 L0,40 L0,15 C0,6.71572875 6.71572875,0 15,0 C23.2842712,0 24.5074673,8.22688484 29.437088,12.6772451 C34.3667088,17.1276054 39.8866582,16 41,16 C47.627417,16 53,21.372583 53,28 L53,40 L37.5,40 Z"/><path id="Oval-941" stroke-linecap="round" d="M6.13015603,8.18547977 C4.80135138,9.7538888 4,11.7833616 4,14"/><rect id="Rectangle-1092" width="51" height="12" x="1" y="39" stroke-linecap="round"/><path id="Path-2101" stroke-linecap="round" d="M21,40.0082634 L21,46.0024989"/><path id="Path-2101" stroke-linecap="round" d="M30,40.0082634 L30,46.0024989"/><path id="Path-2101" stroke-linecap="round" d="M7,40.0082634 L7,46.0024989"/><path id="Path-2105" stroke-linecap="round" d="M24,40.0082634 L24,46.0024989"/><path id="Path-2105" stroke-linecap="round" d="M33,40.0082634 L33,46.0024989"/><path id="Path-2105" stroke-linecap="round" d="M40,40.0082634 L40,46.0024989"/><path id="Path-2105" stroke-linecap="round" d="M43,40.0082634 L43,46.0024989"/><path id="Path-2105" stroke-linecap="round" d="M10,40.0082634 L10,46.0024989"/><path id="Path-2104" stroke-linecap="round" d="M46,40.0082634 L46,46.0024989"/><path id="Path-2104" stroke-linecap="round" d="M13,40.0082634 L13,46.0024989"/><path id="Line" stroke-linecap="square" d="M4,15 L4,23"/></g></g></g></svg>