<svg xmlns="http://www.w3.org/2000/svg" xmlns:xlink="http://www.w3.org/1999/xlink" width="104" height="104" version="1.1" viewBox="0 0 104 104"><title>38-multimeda-violin</title><desc>Created with Sketch.</desc><g id="3.Multimedia" fill="none" fill-rule="evenodd" stroke="none" stroke-linecap="round" stroke-linejoin="round" stroke-width="1"><g id="Multimedia-(Stroke)" stroke="#263238" stroke-width="3.5" transform="translate(-1498.000000, -703.000000)"><g id="38-multimeda-violin" transform="translate(1500.000000, 705.000000)"><path id="Layer-1" d="M32.1215609,40.5982404 L3.78096052,12.25764 L9.211729,6.82687157 L38.6020689,36.2172115 C36.4133247,37.2009204 34.2974212,38.7535933 32.1215609,40.5982404 L32.1215609,40.5982404 L32.1215609,40.5982404 L32.1215609,40.5982404 Z M59.2608372,67.7375167 L78.454027,86.9307066 L83.8847955,81.4999381 L63.6154166,61.2305592 C62.6414598,63.4291557 61.0982315,65.5545459 59.2608372,67.7375167 L59.2608372,67.7375167 L59.2608372,67.7375167 L59.2608372,67.7375167 Z"/><path id="Layer-2" d="M74.3809507,82.8576302 L90.6732561,99.1499356"/><path id="Layer-3" d="M54.6666488,40.1825607 C44.1663631,31.1746294 37.7501737,35.5117333 30.1896572,42.2883994 L30.1896572,42.2883994 C29.4602685,45.3318429 27.907994,48.2182785 25.5328339,50.5934386 C21.3415185,54.784754 15.5581044,56.4136253 10.1293141,55.4800524 L8.81893428,56.2202679 C-2.15207775,65.8143335 -2.71278538,81.9311077 7.57063385,92.2145269 C17.8563141,102.500207 33.9692318,101.939063 43.5648929,90.9662265 L44.2613352,89.7518452 C43.2639824,84.2740965 44.8828325,78.4135433 49.1178856,74.1784903 C51.5875009,71.708875 54.609865,70.1288957 57.7867418,69.4385523 C64.4307322,61.94967 68.5368538,55.4982598 59.5633125,45.0726836 L41.5335992,64.1115669 C41.5335992,64.1115669 39.9868,64.1394481 37.7793381,61.9319861 C35.5718762,59.7245242 35.5997573,58.177725 35.5997573,58.177725 L54.6666488,40.1825607 L54.6666488,40.1825607 L54.6666488,40.1825607 Z"/><path id="Layer-4" d="M87.7267703,7.01927986 L85.8647926,5.1573021"/><path id="Layer-5" d="M94.5540221,13.8465317 L92.6920444,11.9845539"/><path id="Layer-6" d="M84.0571225,10.6889277 L82.1951447,8.82694994"/><path id="Layer-7" d="M90.8843743,17.5161795 L89.0223965,15.6542017"/><path id="Layer-8" d="M94.3669284,8.32101862 L41.5335992,64.1115669 C41.5335992,64.1115669 39.9868,64.1394481 37.7793381,61.9319861 C35.5718762,59.7245242 35.5997573,58.177725 35.5997573,58.177725 L91.5650619,5.35816332 L91.5650619,0.620768825 L99.2653117,0.620768825 L99.2653117,8.32101862 L94.3669284,8.32101862 L94.3669284,8.32101862 L94.3669284,8.32101862 Z"/><path id="Layer-9" d="M13.6084075,74.2830968 L21.8801936,66.0113107 L21.8801936,66.0113107 C23.0238093,64.8676949 24.853686,64.8434041 25.9622888,65.9520069 L25.9622888,65.9520069"/><path id="Layer-10" d="M21.8801936,66.0113107 L13.6084075,74.2830968 L13.6084075,74.2830968 C12.4647917,75.4267125 10.6349151,75.4510033 9.52631227,74.3424005 L9.52631227,74.3424005"/><path id="Layer-11" d="M25.7227566,86.3974459 L33.9945427,78.1256598 L33.9945427,78.1256598 C35.1381585,76.9820441 35.1624493,75.1521674 34.0538465,74.0435646 L34.0538465,74.0435646"/><path id="Layer-12" d="M33.9945427,78.1256598 L25.7227566,86.3974459 L25.7227566,86.3974459 C24.5791409,87.5410617 24.5548501,89.3709383 25.6634529,90.4795412 L25.6634529,90.4795412"/></g></g></g></svg>