<svg xmlns="http://www.w3.org/2000/svg" xmlns:xlink="http://www.w3.org/1999/xlink" width="103" height="103" version="1.1" viewBox="0 0 103 103"><title>40-multimeda-trumpet</title><desc>Created with Sketch.</desc><g id="3.Multimedia" fill="none" fill-rule="evenodd" stroke="none" stroke-linecap="round" stroke-linejoin="round" stroke-width="1"><g id="Multimedia-(Stroke)" stroke="#263238" stroke-width="3.5" transform="translate(-1898.000000, -703.000000)"><g id="40-multimeda-trumpet" transform="translate(1900.000000, 705.000000)"><path id="Layer-1" d="M7.08883193,87.1819977 L58.3945397,35.87629 C58.3945397,35.87629 62.8700428,30.3924039 64.9200233,21.3079572 C66.9700501,12.2233055 65.3420408,0.636158443 65.3420408,0.636158443 L82.2170938,17.5112115 L99.0921469,34.3862645 C99.0921469,34.3862645 87.5049998,32.7582552 78.4203481,34.808282 C69.3359015,36.8582625 64.1433256,41.0915506 64.1433256,41.0915506 L12.5651987,92.6696776 L13.22568,93.7328362 C14.0492479,95.129356 13.7806014,97.1977393 12.6322189,98.3461218 L12.5827812,98.3955595 C11.4314537,99.5468869 9.56790958,99.5500134 8.42157804,98.4036819 L1.32462342,91.3067273 C0.177781845,90.1598857 0.184363356,88.2939066 1.33274587,87.1455241 L1.3821835,87.0960865 C2.53351098,85.944759 4.60009046,85.6704467 5.99527872,86.5024349 L7.08883193,87.1819977 L7.08883193,87.1819977 Z"/><path id="Layer-2" d="M28.7794259,90.6364413 C24.8961615,86.753177 24.8989857,80.4543373 28.7780723,76.5752507 L49.8745958,55.4787272 C53.7571125,51.5962105 60.0516682,51.5959626 63.9357864,55.4800808 L63.9357864,55.4800808 C67.8190507,59.3633452 67.8162265,65.6621849 63.93714,69.5412714 L42.8406165,90.6377949 C38.9580997,94.5203117 32.6635441,94.5205595 28.7794259,90.6364413 L28.7794259,90.6364413 L28.7794259,90.6364413 Z"/><path id="Layer-3" d="M53.3888782,80.0895332 L29.4825531,56.183208"/><path id="Layer-4" d="M44.9513517,88.5270597 L21.0450266,64.6207346"/><path id="Layer-5" d="M61.8264047,71.6520067 L37.9200796,47.7456815"/><path id="Layer-6" d="M21.0450266,64.6207346 C22.2100059,63.4557553 22.2100059,61.5669506 21.0450266,60.4019713 C19.8800473,59.236992 17.9912426,59.236992 16.8262633,60.4019713 C15.661284,61.5669506 15.661284,63.4557553 16.8262633,64.6207346 C17.9912426,65.7857139 19.8800473,65.7857139 21.0450266,64.6207346 L21.0450266,64.6207346 Z"/><path id="Layer-7" d="M29.4825531,56.183208 C30.6475324,55.0182287 30.6475324,53.1294241 29.4825531,51.9644448 C28.3175738,50.7994655 26.4287691,50.7994655 25.2637898,51.9644448 C24.0988105,53.1294241 24.0988105,55.0182287 25.2637898,56.183208 C26.4287691,57.3481873 28.3175738,57.3481873 29.4825531,56.183208 L29.4825531,56.183208 Z"/><path id="Layer-8" d="M37.9200796,47.7456815 C39.0850589,46.5807022 39.0850589,44.6918976 37.9200796,43.5269183 C36.7551003,42.3619389 34.8662957,42.3619389 33.7013163,43.5269183 C32.536337,44.6918976 32.536337,46.5807022 33.7013163,47.7456815 C34.8662957,48.9106608 36.7551003,48.9106608 37.9200796,47.7456815 L37.9200796,47.7456815 Z"/></g></g></g></svg>