<svg xmlns="http://www.w3.org/2000/svg" width="1273.333" height="1270.667" version="1.0" viewBox="0 0 955 953"><path d="M443 79.6c-85 7.7-152.5 35.3-217 88.9-22.8 19-54.5 52.3-72.4 76.2-34.8 46.5-56.8 101.5-67 168.3-4 25.7-4.9 43.3-4.3 85 .6 47.6 2 56.7 14.8 95.9 38 115.9 116.3 212.4 208.7 257.2 34.2 16.7 71 27.5 111.6 33 19.5 2.6 63.6 3.6 85.6 2 83-6.2 168.2-35.1 221.2-74.8 75-56.3 134.8-151.5 153.2-243.8 7.4-37.4 9-68.3 5.5-109-1.9-22.4-9.7-58.4-18.9-87-9.1-28.4-25.5-65.8-39.5-90.6-8.5-14.8-27-42-37.7-55.4-57.5-71.4-139.8-121.1-230.3-139-27.2-5.4-40.6-6.6-76-7-18.1-.1-35-.1-37.5.1zm10.7 10c-.3.4-4.4 2.3-8.9 4.4-16.2 7.2-32.1 18.4-48.1 33.9-20.4 19.7-28.1 37.9-30.8 72.3-2.2 27.7.9 45.2 12.1 68.3 7.5 15.5 14.3 24.9 27.5 38.1 17.5 17.6 32.6 26.9 53.2 32.7 7.1 2 10.1 2.2 31.8 2.2 26.6-.1 31.7-.9 52.9-8.2 20.2-7 29.3-13.2 43.6-29.7 18.7-21.7 30.6-44.9 34.5-67.4 2-11 1.9-28.8-.1-39.3-3.4-18.2-13.6-42.8-24.5-59.4-9.1-13.8-26.2-29.7-42.3-39.2l-4.1-2.5 4 .7c8.5 1.3 32.6 7.7 46 12 131.6 43.4 225.8 150.2 262.9 298.2 12.5 50 14.7 94.3 7 143.2-11.8 75.3-48.7 149.3-105.1 210.6-28.3 30.8-61.9 56.1-95.8 72.1-44.8 21.1-95.2 35.3-149 42-19.9 2.4-67 3-87.5 1-71.4-6.8-132.3-30.9-184.7-72.9-12-9.6-37.8-34.2-47.7-45.5-26.6-30.4-47-61-66.5-100.2-21.8-43.8-37.4-90.5-40.6-121.4-10.2-98.8 11-199.4 56.9-269.1 28.2-42.7 75.1-89 119.6-118 54.7-35.6 107.5-53.1 178.5-58.8 2.2-.2 4.4-.4 4.9-.5.5-.1.7.1.3.4zm66.9 6.3c43.9 10.8 75.1 44 89 94.7 2.5 8.8 2.8 11.7 2.8 25.9.1 13.8-.2 17.2-2.3 24.9-6 23-18.8 44.3-38.3 63.8-10 10-14.7 12.7-32.2 18.7-18.2 6.3-31.2 8.5-49.6 8.5-16.5-.1-23.9-1.2-37.1-5.9-31.7-11-60-41.9-72.8-79.3-9.1-26.4-5.2-69.4 8.3-93.6 4.5-8 13-17.3 24.9-27.2 21.4-17.9 40.7-27.7 63.2-31.9 10.9-2 33.1-1.3 44.1 1.4z"/><path d="M634.2 178.2c-2.5 2.5-1.4 5.8 3.1 8.4 11.2 6.8 27.8 15.4 29.5 15.4 2.6 0 4.4-2.4 4-5.2-.4-2.7-6.6-7.1-20.9-14.7-9.6-5.1-13.5-6.1-15.7-3.9zM294 182.5c-10.9 6.8-28.1 20-40.5 31.2-59.8 54.1-98.9 126.7-113 209.8-4.2 25-4.6 30.7-5.2 67-.5 38.6.3 53 3.3 55.2 1.9 1.4 5.3.8 6.7-1.1.4-.6.4-8.1 0-16.6-3.5-71.6 6.1-131.6 29.9-187.5 25.6-60.1 70.1-114.2 121.1-147.2 10-6.6 11.7-8 11.7-10.3 0-6.3-4.2-6.5-14-.5zM685.1 210.6c-4.1 2.9-2.7 5.9 5.4 11.4 25.4 17.1 54.4 46.4 73.7 74.5 27.1 39.2 46 86.6 54.7 136.5 4.8 27.5 5.5 37.7 5.6 78.3 0 36.1.1 38.9 1.8 39.8 2.8 1.6 5.5.1 6.9-3.9 2.1-6 1.7-71.6-.5-90.2-8.8-71.6-32.2-131-71.8-182-14.6-18.9-43.3-46.4-61.4-58.9-9.4-6.5-11.6-7.4-14.4-5.5zM462 379.5c-57.9 8.2-109.9 34.2-163.6 81.6-36.2 32-53.5 55.8-65.8 90.7-11.5 32.7-16.1 64.3-16 110.2 0 38.3.8 44.2 6.7 51.9 6 7.8 31 33.4 42.8 43.8 49.5 43.5 105 68.1 168.9 74.9 19 2 60 1.4 78-1.1 24-3.3 48.3-8.7 68-15 15.9-5.2 17.2-5.9 16.8-9.7-.5-5.5-2.2-5.5-18.4-.5-24.6 7.6-43.7 11.9-67.9 15.2-16.5 2.3-52.6 3.1-69.5 1.6-61.2-5.4-116.1-28.1-162.2-66.9-14.5-12.3-32.2-29.6-42.4-41.5l-9.2-10.8-.9-8.7c-1.2-13.3-.9-61.2.5-73.7 5.3-45.7 16.4-80.1 34.9-107.9 11.7-17.5 41.5-46.2 70.8-68.1 58-43.3 115.4-61.5 181.8-57.5 31.6 1.9 57.1 6.5 79.4 14.5 12.4 4.4 15.7 4.4 16.1-.2.4-4-1.4-5.3-14-9.8-12.5-4.4-31.2-8.9-48.3-11.6-17.9-2.8-71-3.7-86.5-1.4z"/><path d="M630.5 411.5c-15.5 7.1-59.4 29.2-95 48-37.8 19.9-40.5 21.4-41.5 23.9-3.1 7.4-5 70.4-3.1 98.1 4.3 60.6 16.5 104.1 39.4 140.5 21.8 34.8 53.5 59.4 95.2 74.1 16 5.6 22.8 5.8 37 1 37.4-12.5 69.7-35 89.8-62.4 25.5-34.7 39.3-74.8 46.4-134.2 3.4-29.3 2-111.6-2-117.8-2.3-3.6-125.6-68.4-141.3-74.3-3.5-1.3-7.9-2.4-9.7-2.4-1.7.1-8.6 2.5-15.2 5.5zm29.8 10c13.2 6 39.9 19.8 93.3 48.3l34.2 18.3.5 3.7c2.8 17.7 3.2 74.2.7 100.7-6.4 68-24.6 116.2-56.4 149.3-16.2 16.8-30.5 27.1-51.7 37.1-11.4 5.4-27 10.9-33.3 11.7-9.7 1.4-46-14-64.5-27.3-51.8-37.1-77.2-96.2-82.3-191.6-.9-18-.9-28.3.1-49.5.7-14.7 1.5-28.4 1.9-30.5l.7-3.9 35-18.4c61.1-32.3 103.7-53.3 107.8-53.4 1 0 7.3 2.5 14 5.5z"/><path d="M642.2 434.2c-.7.7-1.2 2.5-1.2 4 0 2.5.9 3.2 9.8 7.4 33.1 15.9 57.8 28.1 68.2 33.9 12.1 6.7 14.4 7.3 16.3 4.4 2-3.2 0-6.3-7-10.6-13.9-8.4-79.5-40.3-83.1-40.3-1 0-2.3.5-3 1.2zM748.2 490.2c-.7.7-1.2 2.4-1.2 3.9 0 2.5 1.1 3.4 9.9 8.4 10.6 6 13.4 6.5 15.8 2.8 1.4-2.1 1.3-2.5-1.3-5.1-3.5-3.4-17.4-11.2-20.1-11.2-1 0-2.4.5-3.1 1.2zM760.5 536.9c-22.7 7.9-48 23.3-70.9 43.2-12.3 10.5-32.5 31.2-42.8 43.5l-7.6 9.2-5.8-6c-15.5-15.8-37.7-32-57.1-41.5-12.7-6.2-15.2-6.4-17.4-1.1-.7 1.8-7 11.9-14 22.4-16.4 24.7-16.4 24.6-14.1 27.3 1 1.2 7.7 3.9 17.2 7.1 19.1 6.3 42.6 17.6 54 26 8.2 6.1 27.1 24.3 37.6 36.3 7.4 8.4 7.7 8.2 19.6-14.6 31.7-61.2 66.8-107 105.6-138 9.8-7.8 13.2-11.2 13.2-13.1 0-.2-.7-1.2-1.6-2-2.2-2.3-6.7-1.9-15.9 1.3zM730 568.7c-28.2 29.4-55.7 68.5-77.1 109.7l-7.8 15.1-14.8-14.5c-15.7-15.4-24.1-22.3-36-29-9.7-5.6-26.2-12.9-39.8-17.5-6-2.1-11.2-4-11.4-4.2-.3-.2 21.5-33.8 23.6-36.3.7-.8 14.8 7 25.2 13.8 13.2 8.8 21.6 15.8 34.7 28.9 6.8 6.8 12.1 11.3 13.2 11.3 1.3 0 3.9-2.4 7.2-6.5 22.9-29.2 49.7-54.6 75.6-71.8 8.6-5.6 18.1-11.4 19.3-11.6.1-.1-5.2 5.6-11.9 12.6z"/><path d="M560.1 617.9c-.8 1.5-.9 2.7-.2 4 .6 1.1 8.4 5.5 17.3 9.9 9 4.3 21.1 11.1 27.1 15.1 5.9 3.9 11.3 7.1 12.1 7.1.7 0 2.1-.9 3.1-2 1.5-1.6 1.6-2.5.7-4.4-2.1-4.6-18-15-38.1-24.8-14.1-6.9-20.2-8.3-22-4.9zM625.6 656.1c-2.1 3-.8 5.4 4.7 8.9 2.6 1.6 5.7 4.6 6.8 6.5 2.7 4.5 6.6 5.6 8.9 2.7 1-1.2 1.5-3.1 1.3-4.5-1.1-5.5-12.7-15.7-17.9-15.7-1.3 0-3 1-3.8 2.1zM708.9 542.3c-14.1 7.3-16.9 9-16.9 10.2 0 .5 1 2.7 2.3 4.7l2.2 3.7 12.1-7.2c6.7-4 12.9-7.8 13.8-8.6 2.2-1.8 1.7-5-1-6.8-2-1.3-3.1-1-12.5 4zM670.5 567.3c-10 8-38.5 37-38.5 39.2 0 .9.5 2.5 1 3.6 2.3 4.1 5.1 2.3 20.5-13.2 8.3-8.3 18.9-18.2 23.7-22 9.3-7.5 10.4-9 8.8-12-2.1-3.8-6.8-2.5-15.5 4.4zM760 612.1c-.6 1.1-2.9 8.9-5 17.2-8.3 32.8-20.7 60.2-38 83.7-7.4 10-25.1 27.9-33.3 33.4-6.8 4.7-8.2 7.9-4.7 10.8 1.2 1 2.6 1.8 3 1.8 2.7 0 15.4-10.3 26.5-21.5 13.8-13.8 22.2-24.7 31.3-41 10.7-19 21.4-47.2 26.2-68.3 2.3-10.5 2.5-15.3.8-17-1.9-1.9-5.6-1.4-6.8.9zM653.6 761.8c-8.7 5.3-12.6 8.5-12.6 10.1 0 .6.9 2 2.1 3.2 2.5 2.5 4 2.1 13.4-3.3 11.5-6.7 13.6-9.6 9.7-13.1-2.7-2.5-3.9-2.2-12.6 3.1zM464.6 560.2c-1.4 1.9-1.6 6.4-1.6 29.3 0 34.1 1.8 50 8.5 75.1 3.2 11.9 6.5 20.6 12.5 32.9 6.2 12.6 8.3 16 11.4 18 3.1 2 6.6.5 6.6-2.8 0-1.2-3.3-8.7-7.3-16.7-15.8-31.4-21.9-61.8-22.1-109.5-.1-14.3-.5-26.6-.9-27.3-1.3-2-5.4-1.4-7.1 1zM145 571.5c-1.6 1.9-.9 6.3 3 19 6.3 20.6 16.3 42.1 27.1 58.5 9.9 15.2 15 19.5 18.7 15.8 2.2-2.2 1.2-5.5-3.9-12.2-14.1-18.7-26.1-43.6-33.5-69.8-1.5-5.1-3.1-10.1-3.6-11.1-1.1-2.1-6.1-2.3-7.8-.2zM514.6 737.6c-2.5 2.5-2 4.4 4.2 13.9 15 23.1 36.8 44.5 45.4 44.5 2.1 0 3.2-.7 4-2.6 1.6-3.4.4-5.2-5.3-8.3-7.7-4.2-23.6-21.3-33.4-35.9-9.3-13.8-11.2-15.3-14.9-11.6zM520.2 117.6c-4.4 3.1-2.7 6.2 7.3 13.1 18 12.5 30.1 26.1 37.1 41.8 7.1 16.2 10.2 38.4 8.3 60.8-1.2 15-.8 16.7 3.7 16.7 4.1 0 5.4-3.7 6.5-17.5 2.2-29-2.8-53.9-15-75-6.1-10.6-21.3-25.9-34.5-34.8-5.4-3.7-10.1-6.7-10.5-6.7-.4 0-1.7.7-2.9 1.6zM560.1 270.2c-3.6 8.3-17.5 25.1-24.3 29.4-4 2.5-5 5.8-2.6 8.2 3.7 3.7 12-1.3 22.3-13.5 14.8-17.4 18.4-28.3 9.3-28.3-2.4 0-3.1.6-4.7 4.2zM717.2 130.2c-.7.7-1.2 2.4-1.2 3.9 0 2.3 1 3.4 6.3 6.5 10.5 6.3 28.8 18.9 37.7 26.1 12.9 10.3 31.1 28.4 41.7 41.5 10 12.5 12 13.7 14.8 9.4 1.5-2.2 1.5-2.8.2-5.3-3.3-6.3-11.7-16.5-24.1-29.2-19.1-19.4-38-34.5-60.4-48.2-9.7-5.9-12.8-6.9-15-4.7zM773.2 135.2c-1.9 1.9-1.4 5.6 1.1 7.3 1.2.9 7.2 4.8 13.2 8.7 14.1 9.1 31.5 26.3 39.5 39.1 5.6 8.9 8.5 11.1 11.5 8.7 2.4-2 1.7-6.2-2.1-12.6-11.1-18.4-29.9-36.5-49.9-47.9-8.2-4.6-11.2-5.4-13.3-3.3zM828.2 237.6c-1.2.8-2.2 2.5-2.2 3.6 0 1.2 3.1 6.9 6.9 12.7 3.8 5.8 8.5 13.9 10.5 17.8 3.8 7.6 7 9.9 10.1 7.3 3.4-2.8 1-9.9-8.5-25-9.9-15.9-13.1-19-16.8-16.4zM104.8 692c-2.1 1.6-2.1 2-.9 6.1 1.9 6.5 14.7 30.7 23 43.9 13.4 21.1 27 37.8 45 55.3 12 11.6 15.8 14 18.6 11.7 3.5-2.9 1.8-5.7-12.9-20.2-25.3-25.2-42-48.6-59.6-83.8-7.3-14.7-9.1-16.4-13.2-13zM116.7 769.8c-2.8 3.1-2 5.6 5.7 16.3 13.9 19.6 32.5 39.7 49.6 53.5 8.2 6.6 11 7.8 13.9 5.8 4.4-3.1 3.2-4.7-14.8-19.9-10.7-8.9-25.9-25.7-37.2-41-13.6-18.3-13.8-18.5-17.2-14.7zM206.1 814.6c-3.8 2.7-2.6 5.7 4.7 12.4 17.1 15.8 28.2 20.3 28.2 11.3 0-1.6-1.7-3.4-6.2-6.4-3.3-2.3-9.5-7.2-13.7-10.9-8.9-7.7-10.1-8.4-13-6.4z"/></svg>