<svg xmlns="http://www.w3.org/2000/svg" xml:space="preserve" style="enable-background:new 0 0 240 240" viewBox="0 0 240 240"><path d="M117.24 36.94c0 1.25 1.1 2.35 2.35 2.35s2.35-1.1 2.35-2.35-1.1-2.35-2.35-2.35c-1.25.01-2.35 1.1-2.35 2.35zM55.26 43.05c-4.85 4.23-5.64 5.79-4.23 7.36 1.57 1.57 2.66 1.41 5.17-.94l3.13-2.82v77.17h116.3l-2.82 3.13c-2.19 2.5-2.5 3.6-1.1 5.01 1.57 1.57 3.29.47 8.14-4.38l6.26-6.26-6.26-6.1c-4.85-4.7-6.73-5.64-8.14-4.23s-1.1 2.5 1.1 5.01c2.82 3.13 2.82 3.13-2.82 3.13h-5.79l-.16-24.73c-.16-13.46-.63-28.8-1.25-33.97l-.94-9.39h-23.48L137.9 85c-.31 31.93-.63 34.12-3.29 34.12-2.5 0-2.97-1.88-3.6-16.28-.47-8.92-1.41-17.06-1.88-18-.63-.94-5.79-1.72-11.9-1.72-8.3 0-10.8.63-11.58 2.5-.47 1.41-.94 9.39-.94 18 0 14.4-.16 15.5-3.13 15.5-2.82 0-3.13-1.1-3.13-9.86 0-5.48-.47-17.53-1.1-26.61l-.93-16.75-5.32-.94c-2.97-.63-8.3-.47-11.9.31l-6.57 1.41-.78 25.83c-.78 24.58-.94 25.83-3.91 25.83s-3.13-1.25-3.6-34.91c-.16-19.1.16-34.75.94-34.75.63 0 2.03.78 3.13 1.88 1.41 1.41 2.35 1.41 3.76 0 1.41-1.41.63-3.13-3.44-7.36-2.97-2.97-5.79-5.48-6.26-5.48-.64.01-3.77 2.35-7.21 5.33zm102.68 42.42v31.62c0 .78-3.29 1.25-7.36 1.25h-7.51l-.47-31.78-.31-31.62h15.66v30.53zM92.2 94.86v24.26H76.54V70.6H92.2v24.26zm32.87 8.77v15.65l-7.36-.47-7.51-.47-.47-15.34-.47-15.18h15.81v15.81z"/><path d="M117.24 59.64c0 10.02.47 12.52 2.35 12.52 1.88 0 2.35-2.5 2.35-12.52s-.47-12.52-2.35-12.52c-1.88 0-2.35 2.5-2.35 12.52zM187.05 56.04c-1.88 1.88-.94 5.17 1.41 5.17 1.25 0 2.35-.94 2.35-2.19 0-2.67-2.19-4.39-3.76-2.98zM186.11 80.77c0 10.8.47 13.3 2.35 13.3s2.35-2.5 2.35-13.3-.47-13.3-2.35-13.3-2.35 2.5-2.35 13.3zM111.45 131.02c-2.03.47-3.6 1.41-3.6 2.35 0 2.19 7.36 3.44 16.44 2.66 8.3-.63 11.58-1.88 9.86-3.6-1.1-1.26-18.79-2.19-22.7-1.41zM140.72 133.99c0 1.25 1.1 2.35 2.35 2.35s2.35-1.1 2.35-2.35-1.1-2.35-2.35-2.35-2.35 1.1-2.35 2.35zM176.72 144.79l-17.84 9.86-2.35-4.85c-3.13-6.1-7.67-7.04-36.47-7.04-26.45-.16-33.81 2.03-47.9 14.71-5.17 4.7-10.17 8.61-10.96 8.61-.78 0-2.66-1.72-4.07-3.91-2.35-3.44-3.76-3.91-11.9-3.91-7.2 0-9.39.47-9.39 2.19s2.35 2.5 8.3 2.82l8.14.47.47 20.51.47 20.51-7.98.78c-8.77.94-10.33 1.72-8.61 4.38.78 1.25 3.91 1.72 9.08 1.1 6.1-.47 8.77-1.57 11.27-4.85l3.29-4.07h29.74c28.8 0 30.37-.16 46.18-4.85 8.92-2.66 18.94-6.26 22.07-7.83 4.38-2.19 37.1-28.49 48.84-39.13 2.03-1.72 1.57-10.64-.78-13.3-3.61-4.41-11.28-2.37-29.6 7.8zm25.83-.94c0 2.66-5.64 8.14-22.7 22.38-22.38 18.47-22.85 18.78-39.91 24.42-17.22 5.79-17.37 5.79-48.84 6.42l-31.78.47v-12.52c0-11.27.31-12.52 3.29-13.46 1.88-.63 7.51-4.85 12.52-9.55 13.94-12.83 16.44-13.46 48.22-13.46 14.87.16 27.55.47 27.86.94 1.72 1.72.78 9.24-1.25 10.49-1.25.78-10.49 1.41-20.51 1.41-10.17 0-18.47.63-18.47 1.41 0 2.35 6.42 3.29 22.7 3.29h15.65l23.48-13.3c24.1-13.63 29.74-15.35 29.74-8.94z"/></svg>