<?xml version="1.0" encoding="utf-8"?>
<!-- Generator: Adobe Illustrator 24.2.3, SVG Export Plug-In . SVG Version: 6.00 Build 0)  -->
<svg version="1.1" id="Layer_1" xmlns="http://www.w3.org/2000/svg" xmlns:xlink="http://www.w3.org/1999/xlink" x="0px" y="0px"
	 viewBox="0 0 256 256" style="enable-background:new 0 0 256 256;" xml:space="preserve">
<g transform="translate(0.000000,512.000000) scale(0.100000,-0.100000)">
	<path d="M969.2,4956.6c-34.8-4.2-77.6-15-135.9-35.3c-44.7-15.5-65.8-26.8-100.1-53.1c-72.9-55.5-118-117.5-147.2-202.2
		c-14.6-42.3-16-49.8-15.5-104.4c0-63.5,6.6-106.3,23.5-157c24.9-72.4,74.8-138.2,138.2-181.5c8.9-6.1,25.4-18.8,36.7-28.7
		c27.7-24,74.8-47.5,130.2-65.4c84.6-26.8,117.5-32.9,199.8-35.7c44.2-1.9,80.4-5.2,84.2-8.5c3.3-2.8,24.4-28.2,46.1-56.9
		c43.3-56,48-60.2,60.2-55.5c7.5,2.8,8,8.9,4.7,70.5c-3.3,66.8-2.8,68.2,7.1,70.5c5.2,1.4,24.9,9.9,42.8,18.3
		c122.2,58.8,197,151.9,242.1,300.4c16.9,55.5,17.9,126.5,2.8,167.9c-16.5,45.6-75.2,139.6-108.6,174.4
		c-81.8,85.1-200.8,154.2-299.5,174.9C1136.5,4958.5,1021.3,4962.3,969.2,4956.6z M1144.1,4928.4c81.8-8.5,177.3-50.3,253-111
		c64.9-52.2,89.8-80.4,127.4-145.3c38.1-65.4,49.4-99.2,49.4-145.3c0-57.4-30.6-152.3-70.5-219.6c-48-80.9-142-153.8-210.2-162.2
		c-31.5-3.8-35.3-9.9-29.6-49.4c6.6-43.3,6.1-65.4-0.9-62.5c-3.3,0.9-17.9,18.3-32,38.1c-37.6,51.7-29.6,48-93.1,45.1
		c-65.4-3.3-109.1,2.4-197.9,24.9c-73.3,18.3-97.3,29.2-153.7,69.1c-112.8,79.5-163.6,153.8-183.4,268.5
		c-8.9,50.8-6.6,127.4,5.2,167.4c10.8,35.7,40.4,91.2,65.8,123.2c30.1,38.1,93.6,91.7,127.9,107.2
		C901.9,4922.8,1022.8,4941.1,1144.1,4928.4z"/>
	<path d="M1144.1,4896c-5.2-8,2.8-19.3,13.6-19.3c15.5,0,18.3,7.5,6.1,16S1147.4,4902.1,1144.1,4896z"/>
	<path d="M1066.5,4794c-9.4-7.1-10.8-10.8-8.9-32.4l1.9-24.9l-23-10.8c-29.2-13.6-53.1-41.4-62.1-71.9c-8.9-29.6-8.9-42.3,0.5-72.9
		c10.3-35.3,38.1-62.1,78.5-75.2l31-10.3l2.8-25.4c1.9-14.1,3.8-40.9,4.2-59.7l0.5-34.3h-28.2c-24.4,0-31,1.9-49.8,15.5
		c-23.5,16.9-44.2,18.8-52.7,5.2c-9.9-16,0-30.1,37.1-51.2c32.4-18.8,38.6-20.2,69.1-20.7l33.9-0.5l1.4-14.1
		c3.3-26.3,28.2-40.9,38.1-22.1c2.4,4.2,3.3,17.9,1.9,30.1c-2.4,20.7-1.9,21.6,10.8,24.4c22.6,5.2,62.5,30.1,69.6,44.2
		c10.8,21.2,12.7,48.4,5.6,76.2c-9.4,33.9-30.1,52.7-70.5,63.5l-29.6,8l-5.6,57.4c-2.8,31-6.6,68.2-8,81.8l-2.8,24.9l20.2-1.4
		c18.8-1.4,21.6-3.3,28.7-18.8c9.9-21.2,24.4-26.8,37.6-14.6c7.5,6.6,8.9,12.2,7.1,26.3c-4.7,34.3-35.3,55-80.4,55
		c-25.4,0-25.9,0-28.7,15.5c-1.9,8.5-2.4,18.3-1.4,21.6c0.9,3.3-2.8,8.9-8,12.7C1078.7,4800.5,1075.9,4800.5,1066.5,4794z
		 M1066.5,4675.9c0-4.7,2.8-34.8,6.1-67.2s5.6-59.7,4.7-60.7s-10.8,2.8-22.6,8.5c-30.1,14.6-42.8,41.4-35.3,74.8
		c3.8,17.9,8.9,27.7,21.2,38.6C1059.4,4685.8,1066,4687.7,1066.5,4675.9z M1156.8,4472.8c22.6-9.9,32.9-27.7,28.2-48.4
		c-3.8-15.5-10.3-22.1-28.7-30.1c-13.6-5.6-17.4-5.6-20.7-0.9c-3.8,6.1-5.6,88.4-1.9,88.4C1134.7,4481.8,1145,4477.5,1156.8,4472.8z
		"/>
	<path d="M709.6,4384.9c-12.7-8.9-13.2-14.6-0.9-18.3c12.2-3.8,38.1,9.9,34.8,18.8C739.7,4394.3,722.8,4394.3,709.6,4384.9z"/>
	<path d="M741.6,4348.7c-12.7-6.6-27.7-29.2-22.6-34.3c8.5-8,50.8,23.5,50.8,38.1C769.8,4356.7,753.8,4354.8,741.6,4348.7z"/>
	<path d="M1428.1,4326.6c0-11.8,20.2-21.6,22.6-10.8c1.9,8.5-7.5,20.2-16,20.2C1430.9,4336,1428.1,4331.8,1428.1,4326.6z"/>
	<path d="M1383.4,4298.9c-3.3-10.8,2.8-21.2,17.4-29.2c12.7-6.6,10.8,8.9-2.8,25.9C1387.1,4308.7,1386.7,4308.7,1383.4,4298.9z"/>
	<path d="M1343.4,4257c0-4.2,1.9-10.3,3.8-13.2c5.2-8,23.5-16.5,26.3-12.2c5.2,8.9-3.8,24-16.5,28.7
		C1345.3,4264.1,1343.4,4263.6,1343.4,4257z"/>
	<path d="M2238.6,4129.1c-27.3-3.8-148.1-36.7-211.1-56.9c-48.9-15.5-87-39.5-103-64.4c-6.6-9.4-15-31-19.3-48
		c-10.3-42.3-16.5-56-25.4-57.8c-18.3-3.8-536.5,0-604.7,4.7c-49.8,3.3-101.6,3.3-152.8,0.5c-42.8-2.4-187.6-5.2-321.6-6.1
		c-159.4-1.4-249.2-3.8-259.5-7.1c-29.6-9.9-48.9-44.7-48.9-87.5c0-10.8,5.2-36.2,11.3-56.4c31.5-106.3,104.4-321.6,138.2-408.6
		c20.7-54.1,48-133.5,60.2-175.8l22.1-76.6l-16-12.2c-26.8-20.2-59.7-56-70.1-75.7c-8.9-17.9-13.2-52.2-6.1-52.2
		c1.4,0,15,11.3,29.6,25.4c30.1,28.7,62.5,47,104.4,57.4c65.8,16.9,123.7-12.7,162.2-82.8c9.4-16.9,17.9-31.5,18.3-32.4
		c0.9-0.9,8.5,3.3,16.9,9.4c14.1,10.3,21.6,11.3,74.3,13.2c32.4,0.9,182,0,332.9-1.9l274.1-3.3l7.1-13.6c7.5-15.5,24-18.3,28.2-5.2
		c18.8,55.5,50.8,95.4,93.1,117.1c19.7,9.9,28.2,11.8,50.3,9.4c51.7-4.7,92.6-30.1,117.5-73.8c16-27.7,29.6-36.2,35.3-21.2
		c5.2,13.2-8,56.4-24.9,81.3l-17.4,24.9l5.6,184.3c5.6,187.6,8.9,229.4,33.9,450c15.5,135.9,22.6,173,40,206.4
		c29.6,56.9,39.5,60.7,189,72.9c118.5,10.3,162.7,23,191.4,54.5c28.2,31,22.1,59.2-17.4,81.8
		C2336.4,4125.4,2283.3,4135.7,2238.6,4129.1z M2350.5,4079.8c19.7-7.1,21.6-8.9,17.9-16.9c-8-14.1-18.8-17.4-80.4-25.4
		c-115.7-14.1-133.1-17.4-166-29.2c-48-16.9-77.6-35.3-104.4-63.5c-46.5-49.4-52.7-72.9-74.8-290.6c-6.6-65.8-16-152.8-21.2-192.8
		c-11.8-95.4-13.6-117.5-20.7-253c-3.3-63-8-116.1-10.8-119c-16-16-26.8,44.7-23,125.1c1.9,33.9,5.2,132.1,7.5,218.6
		c4.2,157.5,8,212.5,21.6,305.6c14.6,98.3,39.5,227.6,46.5,237.9c3.8,6.1,13.6,16,22.1,22.1c31.5,23.5,152.3,71.5,215.3,85.6
		C2221.7,4093.9,2320,4091,2350.5,4079.8z M1370.7,3872.9c26.8-3.3,49.8-7.5,51.2-8.9c4.7-4.7,11.8-98.7,8.5-119
		c-4.7-31-7.5-32-102.5-33.4c-108.6-2.4-114.7-0.9-120.4,21.6c-6.1,24-11.3,118.5-7.5,133.5c2.4,8.9,7.1,13.2,15.5,14.6
		C1233.9,3884.6,1314.3,3879.9,1370.7,3872.9z M1168,3877.1c8.9-2.4,10.3-7.5,13.6-38.6c5.6-57.4,5.2-112.4-1.4-119
		c-4.2-4.2-27.7-5.6-84.6-4.7c-94,0.9-108.1,2.8-112.4,15.5c-3.3,11.8-15,127.4-13.2,131.2c0.9,1.9,19.3,5.6,40.4,8.5
		c21.6,2.8,44.2,6.1,50.8,7.1C1081.5,3879.9,1157.2,3879.9,1168,3877.1z M1661.7,3863c9.9-13.2,11.8-54.1,4.2-95.4
		c-3.8-21.2-8-40-9.4-41.4c-5.2-5.2-71.5-10.3-135.4-10.8H1452l-2.8,25.9c-4.2,31.5-0.9,118,4.2,123.2c5.6,5.6,83.7,9.9,146.2,8
		C1643.9,3870.5,1657.5,3868.6,1661.7,3863z M1864.8,3865.8l15.5-6.1l-2.8-26.3c-1.4-14.6-5.2-42.8-8-62.5l-5.2-36.2l-26.8-5.6
		c-30.6-6.6-111.9-8-138.7-2.8l-17.9,3.8l2.8,29.2c1.4,16,3.8,45.6,5.6,65.8c4.2,52.7,2.8,51.7,88.4,48.9
		C1817.8,3872.9,1855.9,3869.1,1864.8,3865.8z M692.7,3867.7l24.4-3.3l9.9-35.7c5.6-19.7,13.2-50.3,16.5-67.7l6.6-32.4l-16-6.6
		c-11.3-4.7-36.7-6.6-87.9-6.6c-65.8,0-72.9,0.9-82.3,9.4c-14.6,13.6-24.4,52.2-24.4,94.5v36.7l24.9,4.7
		C605.2,3869.6,656,3871.9,692.7,3867.7z M920.7,3867.7c16-2.8,17.9-4.7,24.9-27.3c9.4-30.1,16.9-100.6,11.8-113.8
		c-5.2-14.6-20.2-16.5-103.4-13.2c-75.2,3.3-75.7,3.3-79.9,15.5c-10.3,27.3-23,79.5-25.9,106.7l-3.3,29.6l25.4,1.9
		C815.9,3870.1,903.3,3870.5,920.7,3867.7z M1844.2,3691.9l13.2-5.2l-3.3-76.2c-4.2-95-4.2-95.4-50.8-99.7
		c-18.8-1.4-54.5-2.4-79-1.4l-44.7,1.4l-1.4,86.5c-0.5,48,0.5,88.4,2.8,90.7C1693.2,3700.3,1815,3703.1,1844.2,3691.9z
		 M1175.6,3687.6c6.1-5.6,12.2-71.5,12.7-130.7c0-53.6-0.5-57.8-9.9-63c-5.6-2.8-43.3-6.1-84.2-7.5c-72.4-2.8-74.3-2.4-79.5,7.1
		c-6.6,12.2-20.7,122.7-21.2,165.5l-0.5,30.6l30.6,2.8C1059.4,3695.6,1170.4,3692.3,1175.6,3687.6z M1653.7,3689
		c8.9-8.9,10.8-56,4.7-116.1l-5.6-58.3l-38.6-3.3c-20.7-1.4-63-2.8-93.1-2.8h-55l-5.2,17.9c-2.8,9.4-6.6,48.9-8,87.5
		c-2.8,65.4-2.4,70.5,6.1,76.6c7.1,5.6,26.8,6.6,99.2,5.2C1616.1,3694.7,1650.4,3692.3,1653.7,3689z M726.5,3687.6
		c14.1-1.9,26.8-6.1,28.7-8.9c1.9-3.3,10.3-48.9,18.8-102.5c19.3-120.4,23.5-112.8-56.4-111.4c-41.4,0.9-59.7,2.8-67.7,8
		c-12.2,8-36.2,62.5-60.7,138.7c-21.2,64.4-21.6,74.3-3.8,77.1C607.6,3691.9,700.7,3691.4,726.5,3687.6z M963.5,3683.4
		c6.6-6.6,28.2-171.6,24.9-188.1c-3.8-14.6-15-17.9-86.5-24.4c-67.2-6.1-83.2-4.7-87,8.5c-4.7,15.5-31,178.7-31,192.8
		c0,18.3,2.4,18.8,97.3,17.9C935.3,3689.5,959.3,3687.6,963.5,3683.4z M1424.8,3686.2c11.8-8.9,17.9-163.2,6.6-172.1
		c-8-6.6-186.2-19.7-205.9-15c-14.6,3.8-16.5,12.7-20.2,106.7c-2.8,74.8-2.4,80.9,5.2,82.8c4.7,1.4,53.1,2.4,107.7,2.8
		C1390.4,3691.9,1419.1,3690.4,1424.8,3686.2z M1434.2,3478.4c9.9-10.3,14.1-60.2,9.9-127.4c-2.4-43.7-5.2-60.2-10.3-64.4
		c-5.2-4.7-33.9-6.1-104.9-6.6l-98.3-0.9l-5.2,17.4c-6.1,19.7-11.8,144.8-7.1,162.2c3.3,12.7,8.5,13.6,122.7,21.6
		C1417.2,3485.4,1427.1,3485.4,1434.2,3478.4z M1644.8,3475.1c8.9-8.9,9.4-13.2,6.6-83.2c-3.8-94-5.2-103-17.9-109.6
		c-12.2-7.1-151.4-2.4-160.3,4.7c-8,7.1-14.6,174.9-7.5,188.5c4.7,8.9,9.9,9.4,87,9.4C1629.3,3485,1635.4,3484.5,1644.8,3475.1z
		 M1836.6,3477.5c1.4-1.4,2.8-27.3,2.8-57.4c0-64.9-9.9-126.5-20.7-132.1c-4.2-2.4-38.6-5.2-76.6-6.1l-69.6-2.4l-2.8,16
		c-3.3,17.4,1.4,157.5,5.6,172.1c1.4,4.7,7.1,10.8,12.7,13.2C1698.9,3485.4,1831.9,3482.2,1836.6,3477.5z M1187.8,3448.8
		c7.5-28.7,14.6-117.1,11.3-140.1c-1.4-11.8-5.2-23-8.5-25.9c-6.6-5.6-118.5-11.8-135.4-7.5c-15.5,3.8-19.7,16.9-29.6,100.6
		c-10.3,85.6-13.6,81.3,64.9,85.6C1193.4,3467.1,1182.6,3468.5,1187.8,3448.8z M983.7,3452.1c3.3,0,8.5-7.1,11.3-15
		c6.1-20.2,16-142,12.2-154.2c-2.4-8-7.5-9.4-36.7-10.3c-41.4-0.9-87.5,0.9-97.8,3.8c-7.5,1.9-26.3,60.7-42.8,132.6
		c-8,36.7-4.7,38.6,71.9,42.8c34.8,1.9,65.8,2.8,69.1,1.9C974.8,3453,980.4,3452.1,983.7,3452.1z M815.9,3375.9
		c16.9-80.4,17.9-94,8.5-102c-9.4-8-110,1.4-119.4,10.8c-3.8,3.8-16,36.7-27.3,73.8c-25.9,84.6-28.2,80.9,51.2,84.6
		c31.5,1.4,60.7,2.8,64.4,3.3C798.9,3447.4,804.1,3431.4,815.9,3375.9z M1441.2,3214.2c1.9-57.8-2.8-63.9-53.6-68.2
		c-20.7-1.9-63.9-3.8-96.4-3.8c-47.5-0.5-60.2,0.9-62.1,6.1c-5.6,14.1-8.9,64.4-6.1,84.6l3.3,21.2l62.1,1.9
		c34.3,0.5,82.3,1.4,106.7,0.9h44.7L1441.2,3214.2z M1636.8,3249.9c6.1-6.1-4.7-84.6-12.7-92.6c-11.3-11.3-48.9-16-101.1-12.7
		c-39.5,2.8-49.4,4.7-52.7,11.8c-2.8,4.7-4.7,29.6-4.7,56v47.5l83.7-3.3C1595,3255.1,1634.5,3251.8,1636.8,3249.9z M820.6,3250.4
		c10.8-2.4,21.2-5.2,23-6.6c5.2-5.2,24.4-93.1,22.1-99.7c-3.8-9.4-36.7-12.7-77.1-7.5c-40.9,5.2-50.3,13.6-63.5,55
		c-10.8,33.9-8,54.5,7.1,58.8C748.6,3255.1,796.6,3255.1,820.6,3250.4z M1014.3,3241.9c5.2-4.7,7.5-19.3,8.5-50.3
		c1.9-43.3,1.4-44.7-10.3-52.2c-18.3-12.2-87.9-15.5-103.4-5.2c-15,9.4-32.4,63-30.1,92.6l1.4,20.7l51.7,2.4
		C990.8,3252.7,1004.4,3251.3,1014.3,3241.9z M1825.8,3242.4c3.8-15,0-89.8-4.7-94.5c-4.7-4.7-132.1-4.2-150.5,0.5l-13.6,3.3
		l2.8,38.6c4.7,57.8,5.2,58.8,31,61.1c11.8,0.9,46.5,1.9,76.6,2.4l55.5,0.9L1825.8,3242.4z M1199.5,3242.4
		c1.4-4.2,2.8-24.9,2.8-46.1c0-59.2,0.5-59.2-82.8-59.2c-37.1,0-67.7,1.4-67.7,3.8c0,1.9-2.4,23-4.7,47.5
		c-6.6,62.5-8.5,61.6,79.9,61.6C1186.4,3249.9,1197.2,3248.9,1199.5,3242.4z M1770.3,3110.7c26.3-1.9,38.6-4.7,37.1-8
		c-0.9-3.3-16-12.7-32.9-20.7c-31.5-15.5-64.4-44.2-97.8-86l-16.9-20.7l-95.9-4.2c-143.4-5.6-577.4-1.9-590.5,5.2
		c-16.9,9.4-95.4,106.3-89.3,109.6c17.4,9.9,108.6,15,468.8,27.3C1467.5,3117.3,1696.1,3115.9,1770.3,3110.7z"/>
	<path d="M742.5,2982.4c-113.3-39-101.1-207.8,15.5-208.8c27.7-0.5,47,8.5,71,33.4c32,32.9,43.7,72.4,34.8,116.1
		C851.6,2981.9,806,3004.4,742.5,2982.4z M802.7,2951.3c18.8-9.9,27.7-29.2,29.2-63c1.4-32.4-5.2-44.7-38.6-70.1
		c-16.9-13.2-23.5-15.5-36.2-13.6c-21.2,3.8-40.9,18.8-50.3,38.1c-8.5,17.9-9.9,59.7-2.8,73.3c9.4,17.4,53.6,41.4,76.6,42.3
		C785.3,2958.4,795.2,2955.1,802.7,2951.3z"/>
	<path d="M1798.6,2980c-61.1-16.5-91.7-78.1-72.4-144.8c8.5-30.1,29.6-52.2,57.8-59.7c24.4-7.1,37.6-6.6,66.3,1.9
		c50.3,15,74.8,52.7,70.5,108.1C1914.7,2956,1861.6,2997.4,1798.6,2980z M1855.9,2938.2c16.9-8.5,32.9-39.5,32.9-63.5
		c0-27.7-11.8-50.8-34.3-67.2c-45.1-32.9-97.3-1.4-97.3,57.8c0,22.1,12.7,54.1,24.9,64.4C1798.6,2942.9,1837.6,2947.6,1855.9,2938.2
		z"/>
</g>
</svg>
