<?xml version="1.0" encoding="utf-8"?>
<!-- Generator: Adobe Illustrator 24.2.3, SVG Export Plug-In . SVG Version: 6.00 Build 0)  -->
<svg version="1.1" id="Layer_1" xmlns="http://www.w3.org/2000/svg" xmlns:xlink="http://www.w3.org/1999/xlink" x="0px" y="0px"
	 viewBox="0 0 240 240" style="enable-background:new 0 0 240 240;" xml:space="preserve">
<style type="text/css">
	.st0{fill-rule:evenodd;clip-rule:evenodd;}
</style>
<path class="st0" d="M208.1,34.7l15.7-9.4l5.2,8.7l-5.9,3.6l-3.5-5.8l-14.8,8.9c-3.3,2-7.5,1-9.4-2.3c-1.9-3.2-0.8-7.4,2.4-9.4
	c3.3-2,7.5-1,9.4,2.3C207.8,32.4,208.1,33.6,208.1,34.7z M235.8,41.3l-8.3,6c-0.1-0.7-0.3-1.3-0.7-1.9c-1.2-1.7-3.7-2.1-5.4-0.8
	c-1.7,1.3-2.1,3.7-0.9,5.4c1.2,1.7,3.7,2.1,5.4,0.8l7.9-5.7l2.2,3.1l3.1-2.3L235.8,41.3z M159.4,50l-6.4,6.3l-5.9-2.6
	c-3.2-1.4-9.2-3.5-13.2-4.5c-6.3-1.7-9-2-19-2c-12.3-0.1-16.4,0.5-26.7,3.8c-13.1,4.2-23.9,11.1-34,21.5c-7.7,8-10.9,12.6-15.6,22.5
	c-7,14.4-9.6,33.4-6.8,49.3c5.6,32.4,29.7,58.7,61.3,67c9.7,2.6,25.3,3.2,35.3,1.4c49.7-8.7,80.7-59.4,65.5-107.3
	c-1.3-3.9-3.1-8.7-4.1-10.6l-1.7-3.5l6.4-6.3c4.7-4.7,6.3-6.8,6.3-8.3c0-2-2.5-5.9-8.1-12.6c-3.2-3.8-3.3-4.1-2-5
	c5.5-4.2,13.5-5.8,19.1-3.8c5.9,2.1,8.3,1.3,8.3-2.7c0-1.9-0.5-2.4-3.9-4c-7.8-3.6-19.2-2.2-27,3.5c-2.1,1.5-3.5,2.1-4.1,1.7
	c-0.5-0.4-3.7-2.8-7.1-5.4c-3.8-2.9-6.8-4.7-8.1-4.7C166.3,43.8,164.1,45.4,159.4,50z M114.1,64.1c3.6,3.6,0.8,6.4-7.2,7
	C95.6,72,84.5,76.6,75.7,84c-5,4.4-6.7,4.9-8.6,2.9c-2.3-2.2-1.4-4.4,3-8.6c10.2-9.3,25.1-15.1,40-15.7
	C111.7,62.6,113.1,63.1,114.1,64.1z M153.9,96.5c1.2,0,2.6,0.8,4.2,2.4c1.7,1.5,2.6,2.8,2.6,3.9c0,5.1-0.2,12-0.5,20.8
	c-0.1,2.2-0.2,4.8-0.2,7.9c-0.1,3-0.1,6.5-0.1,10.5c0,12.6,0.7,22,2.2,27.9c-0.1,2-0.9,3.5-2.4,4.4c-1.5,0.8-3,1.2-4.5,1.2
	c-3.3,0-5.5-1.2-6.6-3.5c-1-2.3-1.5-5.7-1.5-10c0-16,0.2-30.8,0.5-44.3c-9.6,10.6-17,19.6-22.3,26.8l-2.2,1.5
	c-1.4,1.2-2.6,1.9-3.5,1.9c-2.2,0-4-0.5-5.4-1.6c-1.4-1.1-2.8-2.7-4.1-4.7l-6-8.5c-4.2-5.8-7.2-10.2-9.1-13.2c0,7.7,0.4,18,1.1,31.2
	c0.6,7.6,0.9,13.3,0.9,17.1c0,2-0.5,3.7-1.5,5.1c-1,1.3-2.6,2-4.7,2c-2.2,0-4-0.4-5.4-1.2c-1.3-0.8-2-2.1-2.1-3.7
	c0.1-1.4,0.1-3.7,0.1-7c0-6.5-0.2-14.4-0.6-23.7l-0.2-6.7l-0.2-8.7c-0.1-2.6-0.2-5.6-0.2-9c-0.1-3.5-0.1-7.3-0.1-11.4
	c0-5,2.7-7.5,8.1-7.5c1.7,0,3.3,0.4,5,1.2c1.7,0.8,3,2,3.9,3.6c0.7,2.9,3.1,7.7,7.4,14.5c4.2,6.7,8.4,13.1,12.5,19
	c3.7-4.7,6.7-8.1,9-10.5c4-4.1,7.3-7.9,9.9-11.4c2.7-3.5,5.5-7.7,8.6-12.6c0.7-1,1.8-1.8,3.2-2.5C150.9,96.9,152.4,96.5,153.9,96.5z
	 M217.1,67.6l14.8-10.7l6,8.2l-5.6,4.1l-4-5.5l-14,10.2c-3.1,2.2-7.4,1.6-9.6-1.4c-2.2-3-1.5-7.3,1.6-9.6c3.1-2.2,7.4-1.6,9.6,1.4
	C216.6,65.3,217,66.4,217.1,67.6z"/>
</svg>
