<svg xmlns="http://www.w3.org/2000/svg" width="1157.333" height="1072" version="1.0" viewBox="0 0 868 804"><path d="M616.9 171.3c-8.6 2.9-16.1 7.5-27.3 16.8-9.9 8.2-15.6 14.3-18 19.4-1.4 2.8-2.2 3.3-6.3 3.9-14.7 1.9-28.3 13.8-28.3 24.6 0 2.5.6 5.5 1.4 6.6 1.4 1.9 1 2.6-5.3 10-19.3 22.7-88.5 92.1-218.6 219.3-94 92-108.7 106.7-111.8 112.2-1.8 2.9-4.1 10.8-6.7 22-2.2 9.6-6.8 28-10.1 40.9-9.7 37.2-10.3 39.9-9.6 40.6.4.4 5.8-.4 12-1.9 6.1-1.4 19.8-4 30.2-5.7 67-10.9 79.7-15.7 108.7-41.1 55.1-48.3 253.4-246.3 290.2-289.7 3.8-4.5 7.5-8.2 8.3-8.2 3.6 0 4.4-10.7 1.6-21.7-1.6-6.7-1.5-9.8 1.2-22.3l.6-2.5-1.1 2.5c-.6 1.4-1.6 4.7-2.2 7.4l-1 4.9-6.7-12.7c-3.7-7.2-9.6-16.4-13.6-21.4-6.4-8-7-9.1-6.9-13.2.1-3.8 0-3.9-.3-.8-.2 2.1-.8 3.8-1.2 3.8-.6 0-9.4-7.1-13-10.6-.8-.7-1.8-3.3-2.2-5.6l-.8-4.3.2 4.2c.3 4.8 0 5.1-3.4 2.5-3.3-2.6-18.3-8.9-24.2-10.2-5-1.1-9.2 0-8.5 2.2.2.6 4.9 2.5 10.4 4.3 16.9 5.4 28.5 12.7 41.2 25.9 14.8 15.5 24.6 33.5 28.7 53.5l1.4 6.4-3 4.3c-1.6 2.4-3.3 4.5-3.7 4.8-1.1.7-9.2-32.3-10.8-43.9-.6-5-1.2-7.4-1.3-5.4-.1 4.9 2.4 19 5.9 32.9 4.9 19.3 5 17.6-1.7 24.3l-5.9 5.7-2.7-10.7c-1.5-6-3.7-16.6-4.9-23.7-1.2-7.1-2.4-12.4-2.6-11.8-.5 1.5 4.3 27.3 6.8 37.4 1.1 4.2 2 8.5 2 9.5s-2.4 4.3-5.4 7.2l-5.4 5.3-1.6-4.4c-.9-2.4-3.7-14-6.1-25.8-2.4-11.8-4.4-20.6-4.4-19.5-.1 3.5 7.8 42.2 9.5 46.5l1.7 4.2-7.4 7.6c-17.3 18-34.4 35.2-35 35.2-.3 0-1.1-1.8-1.8-4.1s-1.4-3.9-1.6-3.7c-.2.2.2 2.5 1 5.1l1.4 4.7-16.6 17c-9.1 9.3-16.8 17-17.2 17-.7 0-5.7-16.2-10.7-34.5-1.8-6.6-3.3-11.4-3.3-10.7-.1 2.1 4.4 19.5 8.8 33.7l4.1 13-28.3 28.3c-31.2 31.4-118.4 116.5-119.7 117-.4.2-1.5-3-2.4-7-1.6-7.6-8-36.3-10.2-45.8-.7-3-1.3-4.4-1.3-3.2-.1 1.3.8 5.8 1.9 10 2.4 9.8 10 45 10 46.8 0 2.6-40.8 40-42.1 38.7-.5-.5-2.4-6.7-4.3-13.9-1.9-7.1-3.5-12.2-3.5-11.4-.1 1.5 5.2 23.1 6.4 26.1.5 1.2-1.3 3.3-6.5 7.5-3.9 3.3-7.5 6-7.9 6.2-1 .3-3.7-9.1-4.7-16.3-.4-2.8-.9-4.4-1.1-3.7-.6 1.5 2.5 16.9 3.7 19.2 1 1.8-.5 4-2.7 4-.9 0-1.3-1.5-1.3-4.5 0-12.6-12.9-35.6-28.1-50-9.6-9.1-15.8-13.2-33-22l-15.7-8 35.2-34.5c19.3-19 66.2-64.9 104.1-102.1C476.9 319.7 544 251.2 544 246.5c0-.6-.5-1.6-1.2-2.3-.7-.7-.8-1.2-.3-1.2.4 0 0-.9-1-2-2.5-2.8-1.5-9.2 2.2-13.9 3.6-4.4 11.2-9.7 16.1-11.1 11.3-3.3 20.7-2.2 33.7 4.1 10.4 5 18.9 11.5 30.2 23.1 22.7 23.6 37.5 50.1 39 70 .5 7 .3 8.2-2.1 13.1-2.5 5.1-11.3 14.7-13.5 14.7-.6 0-.9-1.4-.6-3.3.4-2.8.3-2.8-.6.6-1.1 3.9-3.7 5.7-8 5.7-2.5 0-2.5-2.8.1-14 3.1-13.6 3.1-13.9.4-6-1.4 4.1-2.8 10.3-3.1 13.7-.5 5.4-.9 6.2-2.9 6.7-1.3.4-2.4 1.4-2.4 2.3 0 1.3 1 1.5 6.8 1.1 12-.9 22.5-8.6 27.9-20.4 2.1-4.7 2.5-6.7 2.2-13.3-.3-6.3-.1-7.7.9-7.3 1.7.6 19-16.3 27.3-26.6 8.6-10.7 12.2-18.8 12.7-28.9.5-9.8-.6-15-5.7-25.9-12.5-26.7-36.4-49.1-58.6-55-7.8-2.1-18.9-1.7-26.6.9zm34.1 6.3c16.2 7.8 31.3 22.7 42.3 41.6 8 13.9 9.2 17.8 9.2 29.8 0 7.9-.4 11.2-1.6 13.5l-1.7 2.9-2.1-6.8c-1.2-3.8-3-11.2-4-16.5-1.1-5.3-2.2-10.7-2.5-12.1-.2-1.4-.2.1 0 3.2.5 5.4 3.9 21.3 6.6 30.5 1.2 4.1 1.1 4.4-2.6 9.8-2.1 3-4.2 5.5-4.6 5.5-1.2 0-3.7-8-5.9-19-2.7-12.9-6.3-27.2-6.8-26.7-.2.3.7 4.9 2.1 10.3 1.4 5.5 3.2 14.1 4 19.3.9 5.2 2.5 11.2 3.6 13.3 2.4 4.6 2.6 4.2-5.9 13-5.8 6.1-6.7 6.6-7.4 4.5-.2-.6-.3-.3-.1.7.2 1.2-1.3 3.7-3.6 6.3-2.2 2.3-4 4.2-4 4 0-.1-1.6-4.7-3.6-10.2-1.9-5.5-4.4-13.4-5.4-17.5-2.4-9.1-8.8-29-8.9-27.3-.1.6 1.7 7 3.9 14.2 2.2 7.1 4 13.3 4 13.6 0 .3-3.1-4-6.9-9.7-14.6-21.9-34.9-41.6-51.1-49.8-7-3.5-18.2-7-22.6-7-1.9 0-3.4-.5-3.4-1.1 0-3.1 20.8-21.5 32.3-28.6 10.4-6.3 17.8-8.4 28.7-8.1 8.8.3 10.3.7 18 4.4zM233.3 578.9c18.1 8.9 28.3 15.6 37.8 25.1 12.9 12.6 24.4 32.9 26.4 46.3l.7 4.7-6.6 3c-10.7 4.9-34.3 10.9-52.6 13.5l-4.5.6-.1-8.8c0-11.8-2.1-15.9-13.8-27.8-7.8-7.9-10-9.6-15.4-11.5-3.4-1.3-6.5-2.7-6.8-3.1-.8-1.3 5.5-29 7.4-32.6 1.5-2.9 12.2-16.2 13-16.3.2 0 6.7 3.1 14.5 6.9zm-28.7 49.8c3.8 1.2 6.9 3.6 13.4 10.2 9.5 9.5 11.6 13.2 13.1 22.3 1.9 11.5 2.4 11-17.1 14.2-9.4 1.5-20.2 3.6-24.2 4.7-4 1-7.3 1.7-7.5 1.6-.1-.2 2.2-9.3 5.1-20.2 2.9-11 6.1-23.3 7.1-27.3 1.9-8.1 2.1-8.2 10.1-5.5z"/><path d="M689.2 224c0 1.9.2 2.7.5 1.7.2-.9.2-2.5 0-3.5-.3-.9-.5-.1-.5 1.8zm-14.1 1.6c0 1.1.3 1.4.6.6.3-.7.2-1.6-.1-1.9-.3-.4-.6.2-.5 1.3zm1.1 4.4c0 1.4.2 1.9.5 1.2.2-.6.2-1.8 0-2.5-.3-.6-.5-.1-.5 1.3zm-14 15c0 1.9.2 2.7.5 1.7.2-.9.2-2.5 0-3.5-.3-.9-.5-.1-.5 1.8zm1 7c0 1.4.2 1.9.5 1.2.2-.6.2-1.8 0-2.5-.3-.6-.5-.1-.5 1.3zm.9 4c0 .8 1.2 6.4 2.8 12.5 1.6 6 2.9 10.3 3 9.5 0-.8-1.2-6.5-2.8-12.5-1.6-6.1-2.9-10.3-3-9.5zm6 25.6c0 1.1.3 1.4.6.6.3-.7.2-1.6-.1-1.9-.3-.4-.6.2-.5 1.3zm1 4c0 1.1.3 1.4.6.6.3-.7.2-1.6-.1-1.9-.3-.4-.6.2-.5 1.3zm1 4c0 1.1.3 1.4.6.6.3-.7.2-1.6-.1-1.9-.3-.4-.6.2-.5 1.3zM203.6 648.2c-.4 10.1-.9 20.5-1.2 23.3-.3 3.4-.2 4.5.4 3.5 1-1.5 2.8-45 2-45-.3 0-.8 8.2-1.2 18.2zm11.1-5.5c-1.1 1-.8 21.1.3 21.8.6.4 1-3.5 1-10.9 0-6.4-.1-11.6-.3-11.6-.2 0-.7.3-1 .7zm8.6 14.8c0 3.8.2 5.3.4 3.2.2-2 .2-5.2 0-7-.2-1.7-.4-.1-.4 3.8zm344-420.5c0 2.5.2 3.5.4 2.2.2-1.2.2-3.2 0-4.5-.2-1.2-.4-.2-.4 2.3zm-9.1-1c0 1.4.2 1.9.5 1.2.2-.6.2-1.8 0-2.5-.3-.6-.5-.1-.5 1.3zm29 17c0 1.9.2 2.7.5 1.7.2-.9.2-2.5 0-3.5-.3-.9-.5-.1-.5 1.8zm11 1c0 1.4.2 1.9.5 1.2.2-.6.2-1.8 0-2.5-.3-.6-.5-.1-.5 1.3zm6.9 2.6c0 1.1.3 1.4.6.6.3-.7.2-1.6-.1-1.9-.3-.4-.6.2-.5 1.3zm-1.6 6.9c-.3 2.6-.4 4.9-.2 5.1.3.3.8-1.6 1.2-4.1.3-2.6.4-4.9.2-5.1-.3-.3-.8 1.6-1.2 4.1zm7.7.5c0 1.9.2 2.7.5 1.7.2-.9.2-2.5 0-3.5-.3-.9-.5-.1-.5 1.8zm-.9 7.5c0 2.2.2 3 .4 1.7.2-1.2.2-3 0-4-.3-.9-.5.1-.4 2.3zm7 4.5c0 3 .2 4.3.4 2.7.2-1.5.2-3.9 0-5.5-.2-1.5-.4-.2-.4 2.8zm5.8 6.6c0 1.1.3 1.4.6.6.3-.7.2-1.6-.1-1.9-.3-.4-.6.2-.5 1.3zm-.8 7.9c0 3.3.2 4.5.4 2.7.2-1.8.2-4.5 0-6s-.4 0-.4 3.3zm-28.2 16.1c0 1.1.3 1.4.6.6.3-.7.2-1.6-.1-1.9-.3-.4-.6.2-.5 1.3zm41.1 1.4c0 1.4.2 1.9.5 1.2.2-.6.2-1.8 0-2.5-.3-.6-.5-.1-.5 1.3zm-54.9 5c0 2.5.2 3.5.4 2.2.2-1.2.2-3.2 0-4.5-.2-1.2-.4-.2-.4 2.3zm52.8 3.6c-.6 3.2-1.1 7.1-1 8.8.1 1.7.7-.7 1.5-5.3 1.6-9.6 1.3-12.1-.5-3.5zm-68.8 16.9c0 2.7.2 3.8.4 2.2.2-1.5.2-3.7 0-5-.2-1.2-.4 0-.4 2.8zm82.8-1.9c0 1.1.3 1.4.6.6.3-.7.2-1.6-.1-1.9-.3-.4-.6.2-.5 1.3zm-81.9 9.9c0 1.6.2 2.2.5 1.2.2-.9.2-2.3 0-3-.3-.6-.5.1-.5 1.8zm.9 5c-.2 3.9 5 22.9 7.6 27.7 3.4 6.3 4.2 5.5.9-1.1-2.1-4.1-5.5-15.6-7.9-26.6l-.5-2-.1 2zm-18.9 5.5c0 1.9.2 2.7.5 1.7.2-.9.2-2.5 0-3.5-.3-.9-.5-.1-.5 1.8zm1 6c0 1.4.2 1.9.5 1.2.2-.6.2-1.8 0-2.5-.3-.6-.5-.1-.5 1.3zm.9 3.8c-.1 1.9 5.2 22.8 5.6 21.7.1-.6-1.1-6-2.6-12-1.6-6.1-3-10.4-3-9.7zm-14.9 2.2c0 1.4.2 1.9.5 1.2.2-.6.2-1.8 0-2.5-.3-.6-.5-.1-.5 1.3zm.9 5.6c0 1.1.3 1.4.6.6.3-.7.2-1.6-.1-1.9-.3-.4-.6.2-.5 1.3zm1 4c0 1.1.3 1.4.6.6.3-.7.2-1.6-.1-1.9-.3-.4-.6.2-.5 1.3zm1 3.4c0 .8.4 2.4.9 3.5.5 1.3.9 1.4.9.5 0-.8-.4-2.4-.9-3.5-.5-1.3-.9-1.4-.9-.5zm-22.6 2.5c.9 6 8.4 41.4 9.6 45.4 2.6 8.8 1.8 2.5-2.1-15.5-3.8-17.6-8.6-36.7-7.5-29.9zm24.7 4.5c0 .8.8 3.7 1.8 6.5 1 2.7 1.8 4.3 1.8 3.5 0-.8-.8-3.8-1.8-6.5-1-2.8-1.8-4.3-1.8-3.5zm15.9 2c0 .8.4 2.2.9 3 1.2 1.8 1.2.2 0-2.5-.6-1.3-.9-1.5-.9-.5zm-55.8 7.5c0 2.2.2 3 .4 1.7.2-1.2.2-3 0-4-.3-.9-.5.1-.4 2.3zm57.7-2c0 .5 1.1 2.3 2.5 4 1.3 1.6 2.4 2.4 2.5 1.7 0-.6-.3-1.2-.8-1.2-.4 0-1.5-1.2-2.4-2.8-1-1.5-1.8-2.3-1.8-1.7zm-56.8 8.5c0 1.4.2 1.9.5 1.2.2-.6.2-1.8 0-2.5-.3-.6-.5-.1-.5 1.3zm-18 10c0 1.4.2 1.9.5 1.2.2-.6.2-1.8 0-2.5-.3-.6-.5-.1-.5 1.3zm1 5c0 1.4.2 1.9.5 1.2.2-.6.2-1.8 0-2.5-.3-.6-.5-.1-.5 1.3zm.8 3.9c0 5.9 6.9 30.3 10.3 36.7 2.5 4.6 2 2.5-2.2-8.7-2.1-5.7-4.6-14.6-5.6-19.7-1.5-8-2.5-11.3-2.5-8.3zm-17.9 12.7c0 1.1.3 1.4.6.6.3-.7.2-1.6-.1-1.9-.3-.4-.6.2-.5 1.3zm1 3.4c0 .8.4 2.4.9 3.5.5 1.3.9 1.4.9.5 0-.8-.4-2.4-.9-3.5-.5-1.3-.9-1.4-.9-.5zm2 7.6c0 1.1.3 1.4.6.6.3-.7.2-1.6-.1-1.9-.3-.4-.6.2-.5 1.3zm1 4c0 1.1.3 1.4.6.6.3-.7.2-1.6-.1-1.9-.3-.4-.6.2-.5 1.3zm1.4 5.1c.4 1.6 1.6 6.8 2.6 11.8 2 9.1 4.4 14.5 6.7 15.3.7.2.2-1.2-1.1-3.1-1.4-2-3.5-8.3-5.1-15.1-1.5-6.4-3-11.6-3.3-11.6-.3 0-.2 1.2.2 2.7zm-18.4 6.9c0 1.1.3 1.4.6.6.3-.7.2-1.6-.1-1.9-.3-.4-.6.2-.5 1.3zm-23.6 1.9c4.7 20 13.3 50 14.1 49.3.5-.6-11.4-44.5-13.1-48.1-.8-1.8-1.3-2.3-1-1.2zm24.6 2.1c0 1.1.3 1.4.6.6.3-.7.2-1.6-.1-1.9-.3-.4-.6.2-.5 1.3zm1 4c0 1.1.3 1.4.6.6.3-.7.2-1.6-.1-1.9-.3-.4-.6.2-.5 1.3zm1 4c0 1.1.3 1.4.6.6.3-.7.2-1.6-.1-1.9-.3-.4-.6.2-.5 1.3zm-39.9 6.4c0 .8.4 2.6.8 4 .6 2 .8 2.1.8.5 0-1.1-.3-2.9-.8-4-.5-1.2-.8-1.4-.8-.5zm41.9-.5c-.1 1.8 6.2 20 6.6 18.9.2-.6-1.2-5.3-3.1-10.5-1.9-5.2-3.5-9-3.5-8.4zm-40 8.5c-.3 5 10.5 39 12.3 39 .2 0-1.4-5.1-3.5-11.3-2.1-6.1-4.9-15.3-6.3-20.2-1.3-5-2.5-8.3-2.5-7.5zm-18.1 1.5c0 1.8 5.3 20.5 5.7 20.1.2-.2-.8-4.8-2.3-10.2-2.4-9.2-3.4-12-3.4-9.9zm-12.9 24c0 2.2.6 7.1 1.4 11 2 9.7 8.8 32.1 9.3 30.7.2-.6-1.7-8.4-4.3-17.3-2.6-8.9-5-18.9-5.4-22.3-.7-5-.9-5.3-1-2.1zm20.1 1.5c0 .8.6 3.1 1.3 5 .7 1.9 1.3 2.8 1.3 2 0-.8-.6-3.1-1.3-5-.7-1.9-1.3-2.8-1.3-2zm3.3 12.5c.7 5.9 2.3 10.8 4 13 1.5 1.9 1.6 1.9.5-.3-.6-1.2-2-5.5-3.1-9.5-1.1-4.2-1.7-5.5-1.4-3.2zM374.1 542c-.1.3 2.4 7.9 5.4 17 3 9.1 5.2 14.9 4.9 13-1.1-5.9-10.3-32.8-10.3-30zm-37 18c0 .8.4 2.4.9 3.5.5 1.3.9 1.4.9.5 0-.8-.4-2.4-.9-3.5-.5-1.3-.9-1.4-.9-.5zm-15 8.6c0 1.6.8 6.4 1.9 10.6 2.2 8.3 13.9 41.1 13.9 39.1.1-.7-1.5-5.6-3.4-11-6.1-16.8-10.4-30.6-11.4-36.3-.6-3.6-.9-4.5-1-2.4zm18.2 1.9c.9 4.3 11.2 36.6 11.5 35.7.1-.5-1.3-6-3.2-12.3-3.7-12-8.9-26.8-8.3-23.4zM308.2 582c0 1.9.2 2.7.5 1.7.2-.9.2-2.5 0-3.5-.3-.9-.5-.1-.5 1.8zm1 6c0 1.4.2 1.9.5 1.2.2-.6.2-1.8 0-2.5-.3-.6-.5-.1-.5 1.3zm1 5c0 1.4.2 1.9.5 1.2.2-.6.2-1.8 0-2.5-.3-.6-.5-.1-.5 1.3zm-17 3c0 1.4.2 1.9.5 1.2.2-.6.2-1.8 0-2.5-.3-.6-.5-.1-.5 1.3zm17.9 1.6c0 1.1.3 1.4.6.6.3-.7.2-1.6-.1-1.9-.3-.4-.6.2-.5 1.3zm-16.9 3.4c0 1.4.2 1.9.5 1.2.2-.6.2-1.8 0-2.5-.3-.6-.5-.1-.5 1.3zm18 .5c0 1.1.4 3.1.8 4.5.6 2 .8 2.1.8.5 0-1.1-.4-3.1-.8-4.5-.6-2-.8-2.1-.8-.5zm-17 4.5c0 1.4.2 1.9.5 1.2.2-.6.2-1.8 0-2.5-.3-.6-.5-.1-.5 1.3zm1 5c0 1.4.2 1.9.5 1.2.2-.6.2-1.8 0-2.5-.3-.6-.5-.1-.5 1.3zm1 5c0 1.4.2 1.9.5 1.2.2-.6.2-1.8 0-2.5-.3-.6-.5-.1-.5 1.3zm1 5c0 1.4.2 1.9.5 1.2.2-.6.2-1.8 0-2.5-.3-.6-.5-.1-.5 1.3zm1 5c0 1.4.2 1.9.5 1.2.2-.6.2-1.8 0-2.5-.3-.6-.5-.1-.5 1.3z"/></svg>