<svg xmlns="http://www.w3.org/2000/svg" width="989.333" height="1081.333" version="1.0" viewBox="0 0 742 811"><path d="M378 234.1c-12.7.8-24.6 4.5-33.1 10.1-6 4-7.3 6-7.4 11.6v3.4l-11 2.8c-19.9 5.1-58.9 19.7-71.3 26.6-8.1 4.6-16 12.3-18.9 18.5-4.6 9.8-6.5 28.4-3.2 30.4.5.4.9 1.5.9 2.6 0 2.4-.3 2.5 17-4.1 18.9-7.3 33.8-10.6 66.5-14.9 27.3-3.6 47.9-4.4 97.5-3.8 76.1 1 97.4 3.5 126 14.5 14.3 5.5 14.5 5.5 16.5 3.6 1.4-1.5 1.7-3.4 1.3-12.8-.4-14.1-2.8-19.5-12.6-28.8-13-12.2-31.3-19.2-75.2-28.8-5.2-1.1-10.5-2.2-11.7-2.5-1.5-.3-2.3-1.3-2.3-2.6 0-5.9-6.3-14.4-13.4-18.1-7-3.6-22.3-6.8-34.6-7.4-6.3-.2-13.5-.6-16-.7-2.5-.2-9.2 0-15 .4zm45 10.3c3.6.9 10 2.8 14.3 4.3 7 2.4 8.1 3.1 9.8 6.5 1 2 1.9 4.1 1.9 4.5 0 .5-4.2.2-9.2-.5-6.3-.9-23-1.5-51.3-1.8-23.1-.3-42.2-.6-42.4-.7-.3-.1-.2-1.2.1-2.3.8-3 11.9-8.2 22.7-10.5 7.2-1.6 11.7-1.8 28.1-1.5 13.2.3 21.6.9 26 2zm-9.5 22.6c25.9 1.3 57.4 6.8 88.9 15.5 29.3 8 44.7 19.6 48 36 1.2 5.8-.1 6-12 2.2-27.6-8.9-59.6-11.7-137.4-11.8-45.7-.1-60.5.8-91.2 5.6-31.2 4.9-47 9-60.8 16-4 2-7.6 3.3-8.1 2.8-.9-.9.5-12.6 2.3-18.8.8-2.6 3.3-6 7.3-10 7.3-7.4 15.9-11.8 40.8-21 26-9.5 44.7-14.7 61.2-16.8 6-.8 44.5-.6 61 .3zM220.1 255.7c-2.4.8-6.3 3.5-8.8 5.8-3.6 3.5-4.4 4.9-4.1 7.2.5 4.3 4 4.3 7.3-.1 1.5-2 5.1-4.7 8.1-6.1 4.3-2 5.4-3 5.4-4.9 0-1.8-2.1-4.1-3.3-3.5-.1 0-2.2.8-4.6 1.6zM236.8 267.6c-8.9 2.7-21.9 17.2-18.8 21 1.9 2.2 2.7 1.8 7-4 4.6-6.3 10.6-10.8 16.9-12.7 4.6-1.4 6.3-3.5 4-5-1.9-1.2-3.5-1-9.1.7z"/><path d="M350.5 332.1c-54 2.2-67.4 3.3-80.5 6.5-8.6 2.2-22 7.7-28.5 11.8-6.4 4.2-7.4 7-4.6 12.9 1.2 2.7 2.6 9.3 3.6 18.2 1.5 12.5 6.7 44.7 15.5 95.5 1.7 9.6 4.8 33.7 7 53.5 4.5 40.6 5.9 50.8 10 75 1.6 9.3 3.9 25.1 5 35 3.2 28.3 5.7 40.4 11 52 4.1 9.3 10 13.3 28.3 19 15.9 5 52.1 9.5 77 9.5 16.1 0 70.3-4.9 77.8-7 10.9-3.1 16.1-14.7 26.3-58.7 8-34.5 13.8-63.7 21.2-106.3 3.5-20.6 8.5-45.8 10.9-56 5.5-22.9 6.9-31.3 9.5-56.3 2.6-24.8 3.5-29.7 10.3-53.2 3-10.5 6.1-21.9 6.7-25.5.7-3.6 1.9-7.2 2.6-8.1 2.1-2.4 1.7-5.8-.8-6.9-4.4-1.8-38.4-7.9-50.3-8.9-31.6-2.8-114.3-3.8-158-2zm120 9.9c33.1 1.5 45.6 2.8 60.5 6.1 7.4 1.6 14.3 2.9 15.2 2.9 1 0 1.8.5 1.8 1.1 0 1.8-3.9 16.6-8.5 32.4-6.3 21.4-7.2 26.4-9.5 54.1-1.2 13.7-3 29.2-4.1 34.4-6.7 31.3-9.3 45.4-12.9 70.5-5.1 34.8-9.2 57.5-17.6 96.5-7.9 36.7-9.7 44.1-13.1 54.2-2.2 6.4-3 7.8-4.7 7.8-1.2 0-4.8.9-8.2 1.9-3.3 1.1-9.8 2.2-14.5 2.6-4.6.3-17.6 1.6-28.9 2.7-40.2 4-90.9.2-117-8.8-6.6-2.3-7.7-3-8.7-5.7-.6-1.8-2.5-7.1-4.2-11.8-3.3-9.2-5.8-22.9-9-49.9-1.1-9.1-3.6-25.1-5.5-35.7-2-10.5-5.8-35.7-8.6-56-6.1-44.5-7.2-50.9-21.1-121.3-6-30.5-10.9-56.9-10.9-58.8 0-3.2.3-3.5 8.3-7.2 18.5-8.7 36.8-11.2 95.2-13 32.6-1 94.4-.5 126 1z"/><path d="M500.4 360.2c-4.7 4.1-9.8 14.9-13 27.6-3 11.9-3.1 17.3-.1 7.2 1.3-4.2 3.2-8.9 4.4-10.5 1.1-1.7 3.5-5.9 5.3-9.5 5.4-10.9 8-12.6 14.1-9.4 4.6 2.3 6.2 7.2 6.2 18.4-.1 11.3-1.8 20.9-8.4 47.5-9 35.8-21.8 98.1-29.9 145-5.6 32.3-7.2 39.9-13.1 61.5-5.6 20.8-10.1 31.3-13.6 31.8-5.6.8-6-10.9-1.4-36.5 1.7-9.2 4.4-26.3 6.1-37.8 4.3-29 10-62.7 16.4-97 5.9-31.1 8-45.5 9.6-65.9 1.2-15.7 1.2-16.3.2-15-.5.5-1.5 5.4-2.1 10.9-2 16.2-8.5 49.7-16.5 85.6-7.5 33.6-11.3 53.6-16.1 85.9-1.5 9.6-3.7 22.7-5 29-5.4 26.6-5.3 39.9.3 45.3 8.2 7.8 16.5 3.3 20.8-11.1 6.8-23.4 14.7-58.3 21.4-94.7 6.9-37.3 18.5-88.2 30.9-136 6.8-25.9 8.4-35.1 8.5-48.5.1-10.7-.1-11.9-2.7-17.2-3.4-6.9-7.5-9.8-14-9.8-3.8 0-5.3.6-8.3 3.2zM387.4 360.4c-1.7.7-4.5 3.1-6.2 5.3l-3.1 4-.1 50.7c0 53.7-.5 67.1-4.6 107.1-2.9 27.5-3 35-1.6 102.5.8 38 .9 39.7 3.1 44.7 2.9 6.4 5.2 8.6 9.2 8.5 9.4-.3 19.9-21.6 21.8-44.3.6-6.3 1.3-35.9 1.6-65.9.4-30 1.3-77 2.1-104.4 1.9-65.9 1.8-85.5-.1-93.1-1.6-6.1-5-11.5-8.8-14-3.4-2.2-9.8-2.7-13.3-1.1zm8.6 9.6c5.1 5.5 5.4 8.9 4.6 63.7-.4 27.4-1.1 84.9-1.5 127.8-.8 67.3-1.1 79-2.6 85.5-2 8.9-6.7 20.5-10 24.6l-2.3 2.9-1.1-2.8c-1.9-5-3.2-20.9-2.5-31.2.3-5.5.1-21.7-.5-36-1.2-26.9-.3-74 2-106.5.6-8.5 1.3-37.8 1.4-65 .4-48.8 1-59.6 3.6-63.9 1.9-3 5.6-2.6 8.9.9zM261.7 367.3c-4.3 4-6.2 11.8-5.2 21.6 1.5 15 5.9 36.4 10.5 50.6 3.2 9.9 11.7 49.7 16.6 77.7 9.8 56.4 11.3 65.9 13.4 82.8 6.8 56.7 7.5 60.4 13.6 72.8 7.8 16 17.7 20.7 23.9 11.4 4.6-7 5.8-16.1 5.2-40.2-.6-23.6-.9-25.1-10-66.5-7-31.4-9.7-45.5-14.7-77.5-12.9-81.3-21.9-116-33.6-129.9-5.9-7-14-8.2-19.7-2.8zm11.9 7.9c8.3 9 17.2 39.5 25.9 88.8 7.4 42.3 8.7 49.1 13.1 71.5 2.5 12.6 6.6 31.8 9 42.5 9.9 42.5 11.4 52.4 11.4 72.5 0 19.2-2.2 30.5-6 30.5-3.9 0-10.8-11.6-14.3-24-2-7-4-19.1-6.7-40-2.6-20.9-6.4-41.8-14-79-3.3-16.2-9.5-46.2-13.6-66.5-4.1-20.4-8.6-41.4-10-46.8-3.8-15.2-5.9-32.4-5.5-46 .1-1.6 1.2-3.9 2.6-5.3 2.8-2.7 4.3-2.4 8.1 1.8zM519.2 665.3c-.6.7-2.5 7.1-4.2 14.2-1.8 7.2-4.7 16.3-6.6 20.4-3.8 8.3-4 9.4-2 11 5.1 4.2 12.6-11.9 15.7-33.6 1.5-10.8.3-15.9-2.9-12zM537.3 681.6c-2.6 5-5.3 14.8-4.4 15.7 3.7 3.7 10.1-11.2 6.7-15.8-1.3-1.8-1.4-1.8-2.3.1z"/></svg>