<svg xmlns="http://www.w3.org/2000/svg" xmlns:xlink="http://www.w3.org/1999/xlink" width="300" height="300" version="1.1" viewBox="0 0 300 300"><defs><path id="path_1" d="M0 0L300 0L300 300L0 300L0 0Z"/><rect id="artboard_1" width="300" height="300"/><clipPath id="clip_1"><use clip-rule="evenodd" xlink:href="#artboard_1"/></clipPath><clipPath id="mask_1"><use xlink:href="#path_1"/></clipPath></defs><g id="Artboard" clip-path="url(#clip_1)"><g id="doodle-tdl" artboard="99de7f7c-8af9-4134-ab03-c88a270de29d" transform="translate(0.41122437 0.51760864)"><path id="Background" fill="#FFF" fill-opacity="0" fill-rule="evenodd" stroke="none" d="M0 0L300 0L300 300L0 300L0 0Z"/><path id="Group" fill="#000" stroke="none" d="M182.5 81C182.2 81.5 182.3 82 182.9 82C183.4 82 184.2 81.5 184.5 81C184.8 80.4 184.7 80 184.1 80C183.6 80 182.8 80.4 182.5 81L182.5 81ZM200.3 92.6C197.7 94.6 195.3 96.4 195.1 96.6C194.9 96.8 195 97.3 195.3 97.6C196 98.3 206 91 206 89.8C206 88.5 205.4 88.8 200.3 92.6L200.3 92.6ZM97.7 91.7C97.3 92 97 93.8 97 95.6L97 98.9L89.3 99.2L81.5 99.5L81.8 116.5L82.1 133.5L44.1 158.9C11.4 180.8 4.1 186 6.4 186C6.6 186 10.8 183.3 15.7 180C29.9 170.3 44 161 44.5 161C44.8 161 45 162.5 45 164.2C45.1 174.8 51.3 189.7 59.6 198.8L64.9 204.7L51.4 217C44 223.7 38.1 229.4 38.4 229.7C38.7 230 46 224 54.6 216.4C77.1 196.5 81.1 193 81.7 193C82.1 193 82 202.7 81.6 214.5L80.9 236L124.9 236C149.1 236 169 235.7 169.3 235.2C169.5 234.8 169.4 203.8 169.2 166.2L168.8 98L159.9 98L151.1 98L150.4 94.5L149.8 91L124.1 91C109.9 91 98 91.3 97.7 91.7L97.7 91.7ZM147.8 95.6C148.1 97.7 147.7 97.7 123.9 98.4C108.4 98.9 99.4 98.8 98.8 98.2C98.2 97.6 98.1 96.2 98.5 95.1C99.1 93 99.5 93 123.3 93.2C147 93.5 147.5 93.5 147.8 95.6L147.8 95.6ZM167 101C167 101.5 166.8 102 166.6 102C166.3 102 165.8 101.5 165.5 101C165.2 100.4 165.4 100 165.9 100C166.5 100 167 100.4 167 101L167 101ZM96 101.9C96 102.5 93.7 103 90.9 103.2L85.8 103.5L85.7 117C85.4 135.6 83.7 135.6 82.9 117C82.6 109 82.5 102.2 82.7 101.7C83.3 100.6 96 100.8 96 101.9L96 101.9ZM164.3 124.5C164.2 137.1 163.8 165.8 163.4 188.2L162.8 228.8L147.6 229.4C139.3 229.7 122.8 230.1 110.9 230.4L89.3 230.8L88.7 213.7C88.3 204.2 88 185.7 88 172.6L88 148.7L91.6 145.6C94.7 142.9 95.3 141.8 95.3 138.2C95.3 133.4 93.7 131 90.5 131C87.4 131 87 129.5 87 116.4L87 105L89.9 105C91.5 105 93.6 104.7 94.5 104.4C95.6 103.9 96.3 104.4 96.7 106L97.3 108.3L115.3 107.7C125.2 107.3 137.5 107 142.7 107C151.9 107 152 107 152 104.6C152 101.9 154.2 101.1 161 101.4L164.5 101.5L164.3 124.5L164.3 124.5ZM149 103.3C149 104.4 145.5 104.8 133.8 105.3C111.9 106.3 99 106.2 99 105C99 104.4 101.4 103.9 104.3 103.9C107.1 103.8 114.9 103.4 121.5 103C143.2 101.8 149 101.9 149 103.3L149 103.3ZM166.3 233.1C165.8 233.5 146.9 234 124.1 234.2L82.7 234.5L83.3 209.1C83.7 195.1 84 176.1 84 166.8C84 157.6 84.4 150 84.9 150C85.4 150 86.1 168.6 86.6 191.2L87.5 232.5L105 232.3C114.6 232.1 131.8 231.7 143.1 231.4L163.7 230.8L164.3 212.7C164.7 202.8 165 185.9 165 175.1C165 164.3 165.3 146.3 165.8 135C166.4 118.6 166.6 126.3 166.8 173.4C166.9 205.9 166.7 232.7 166.3 233.1L166.3 233.1ZM92.8 134.2C94.5 135.9 94.3 139.1 92.4 141.8C91.6 143 87.8 145.6 84 147.5C80.2 149.4 76.8 151.5 76.4 152.2C75.9 152.9 75.5 156.2 75.5 159.5C75.4 162.8 75 166.3 74.6 167.2C74.1 168.3 74.2 169 74.8 169C76.4 169 78.2 162.5 77.8 158.4C77.6 155.5 78 154.4 79.8 153.2L82 151.8L82 170.6L82 189.5L74.3 196.2C70.1 200 66.4 203 65.9 203C64.6 203 56.3 192.7 53.2 187C50 181.2 47.6 172.9 46.7 164.5L46.1 159.5L58.8 151C85.9 132.8 89.6 131 92.8 134.2L92.8 134.2ZM100 119.4C99.5 120.9 99 122.7 99 123.3C99 124 98.6 125.1 98.1 125.9C97.3 127.1 96.9 127.1 95.6 126.1C93.3 124.2 93.6 126.3 96 129.1C98.4 132 99.2 131.1 100.9 123.3C102.3 117.4 101.7 115 100 119.4L100 119.4ZM118 125L104.5 125.6L117 125.7C123.9 125.7 134 125.4 139.5 125L149.5 124.3L140.5 124.4C135.6 124.4 125.4 124.7 118 125L118 125ZM100.1 143.5C99.4 145.1 98.6 147.7 98.3 149.3C97.9 151.4 97.3 151.9 95.9 151.5C94.2 150.9 94.1 151.1 95.2 153.5C96.9 157.2 98 156.2 100.1 149.5C102.2 143 102.1 138.5 100.1 143.5L100.1 143.5ZM129.5 149.1C122.4 149.4 114.1 149.8 111.1 149.9C108.1 149.9 105.9 150.3 106.3 150.6C107.2 151.6 148 149.9 148 148.9C148 148.4 146.8 148.1 145.3 148.2C143.7 148.3 136.7 148.7 129.5 149.1L129.5 149.1ZM99.3 174C97.5 178.5 96.5 179 95.7 175.8C95.3 174.6 94.8 173.9 94.5 174.2C93.5 175.2 95.5 181.5 96.9 181.5C97.5 181.5 99.2 178.9 100.4 175.7C101.7 172.6 102.3 170 101.8 170C101.3 170 100.1 171.8 99.3 174L99.3 174ZM117.8 178.067C123.9 178.511 134.1 178.511 140.3 178.067C146.4 177.844 141.4 177.4 129 177.4C116.6 177.4 111.6 177.844 117.8 178.067L117.8 178.067ZM49.9 97.8C51.5 100.8 59 107.1 60.1 106.4C61.4 105.6 52.2 96 50.3 96C49.3 96 49.2 96.5 49.9 97.8L49.9 97.8ZM207.5 107.1C196.4 112.2 194.2 113.5 195.2 114.5C196 115.3 219 104.2 219 103C219 101.7 220 101.3 207.5 107.1L207.5 107.1ZM39 116.9C39 118.1 43.8 119.6 44.7 118.6C45.6 117.8 44.9 117.3 41.7 116.5C40 116 39 116.2 39 116.9L39 116.9ZM240.5 128.1C232.9 133 232.3 133.2 225 133.4C213 133.7 204.6 138.5 197.9 148.9C196.3 151.3 194 153.8 192.8 154.4C191.1 155.2 190.4 156.6 190.2 159.3C189.9 162.3 189.2 163.5 186.9 164.9C184.1 166.6 175.2 178.6 176.1 179.5C177 180.4 190.5 174.8 194.3 172C198.7 168.8 200 168.9 200 172.5C200 174.7 202.3 178 203.8 178C204.2 178 205.1 177.6 205.9 177.1C206.9 176.5 207.8 176.8 209 178.2C210.3 179.9 210.9 180.1 212.6 179.1C214.2 178.1 216.8 179 230 185C250.7 194.6 256.9 197 257.5 196C257.8 195.5 255.9 194.2 253.3 193.1C246 189.9 245.5 189.5 245.2 186C244.4 178.3 249.5 158.4 255.3 147C259.1 139.3 257.6 139.5 279.9 144.1C292.7 146.7 296.4 147 294.9 145.6C294.4 145.1 260.5 138.7 251.8 137.5C249.1 137.1 247 136.5 247 136.2C247 135.9 248.8 134.1 251.1 132.2C254.2 129.5 255 128.2 254.8 126.1C254.3 121.5 249.8 122.1 240.5 128.1L240.5 128.1ZM253.8 126.7C254.1 128.5 251.8 130.4 239.8 138.3C231.9 143.5 222.5 149.8 218.9 152.4L212.3 157L208.5 155.4C206.4 154.6 205.1 153.5 205.6 153C206.1 152.6 216.2 145.9 228 138.1C240.8 129.7 250.3 124.1 251.5 124.2C252.7 124.4 253.6 125.4 253.8 126.7L253.8 126.7ZM229 135.4C229 135.6 222.8 139.8 215.2 144.9C203.9 152.4 200.9 153.9 199.1 153.2C197 152.4 197 152.4 200.2 147.8C206.3 139.3 213.9 135.1 223.3 135C226.4 135 229 135.2 229 135.4L229 135.4ZM251.8 138.9C257.2 140 257.5 140.3 255.6 143.2C250.5 151 244 174.4 244 185.1C244 187.2 243.8 189 243.6 189C242.7 189 221.9 179.5 212.3 174.6C194.8 165.8 188.8 160.4 192.1 156.4C194.2 153.9 203.9 155 213 158.8C220.5 162 223.7 162.5 218.1 159.5C213.3 157.1 212.5 157.9 231 145.6C242.7 137.8 243.9 137.4 251.8 138.9L251.8 138.9ZM194.8 166.3L197 168.6L194 170.8C190.3 173.6 188.5 173.6 186.5 170.7C185 168.6 185.1 168.4 187.5 166.2C190.8 163.4 192.1 163.4 194.8 166.3L194.8 166.3ZM185 175.8C179.9 177.9 178.7 177.1 181.2 173.2L183.3 169.9L185.7 172.2L188.2 174.5L185 175.8L185 175.8ZM204.5 172.4C206.3 173.7 206.1 177 204.2 177C203.4 177 201 172.8 201 171.5C201 170.6 202.6 171 204.5 172.4L204.5 172.4ZM212 177C212 177.5 211.6 178 211 178C210.5 178 210 177.5 210 177C210 176.4 210.5 176 211 176C211.6 176 212 176.4 212 177L212 177Z"/></g></g></svg>