<svg xmlns="http://www.w3.org/2000/svg" xmlns:xlink="http://www.w3.org/1999/xlink" id="Layer_1" x="0" y="0" version="1.1" viewBox="0 0 240 240" style="enable-background:new 0 0 240 240" xml:space="preserve"><path d="M201.3,33.1c0.6,0,1.2,0.3,1.5,0.8c0.1,0.2,0.2,0.5,0.2,0.9c0,0.3,0,0.7,0.1,1l-1.1,0.6c-0.3,0.2-0.7,0.3-1,0.3	c-0.6,0-1.2-0.3-1.5-0.8c-0.5-0.8-0.2-2,0.7-2.5C200.6,33.2,201,33.1,201.3,33.1 M167.9,49.1c0.9,0.5,2.5,1.5,4.9,3.3	c3.2,2.5,6.5,5,7.2,5.5c1,0.7,2.2,1.1,3.5,1.1c0.5,0,1-0.1,1.5-0.2c-0.1,0.2-0.1,0.5-0.1,0.7c-0.4,2.9,1.2,4.8,3.9,8	c4.6,5.4,6.2,8,6.7,9.1c-0.5,0.7-1.8,2.2-4.6,5l-6.4,6.3c-1.5,1.5-1.9,3.9-1,5.8l1.7,3.5c0,0,0,0,0,0.1c0.8,1.5,2.5,5.9,3.7,9.8	c6.8,21.4,3.9,44.7-7.8,64.1c-11.8,19.5-31.5,32.9-53.8,36.8c-3.4,0.6-7.7,0.9-12.4,0.9c-7.6,0-15.4-0.8-20.7-2.2	c-29.7-7.8-52.3-32.5-57.6-63c-2.6-14.9-0.2-32.7,6.4-46.3c4.5-9.4,7.4-13.6,14.7-21.2c9.5-9.8,19.6-16.3,31.9-20.2	c9.4-3,13.2-3.6,23.4-3.6c0.6,0,1.2,0,1.8,0c9.6,0.1,11.9,0.3,17.8,1.9c3.8,1,9.5,2.9,12.5,4.3l5.9,2.6c0.6,0.3,1.3,0.4,2,0.4	c1.3,0,2.6-0.5,3.5-1.4l6.4-6.3C165.6,50.9,167.1,49.7,167.9,49.1 M110,57.7c-16.1,0.7-32.2,7-43.2,17c0,0,0,0,0,0	c-3,2.8-5.8,5.9-5.8,9.7c0,1.5,0.4,3.8,2.7,6c1.7,1.7,3.6,2.6,5.6,2.6c3.1,0,5.8-1.8,9.7-5.2c8-6.8,18.1-10.9,28.3-11.8	c2.7-0.2,10.8-0.8,13-6.6c0.6-1.7,1.2-5.2-2.6-8.9c-1.8-1.8-4.5-2.9-7.2-2.9C110.3,57.7,110.1,57.7,110,57.7 M90.8,180.2	c4.7,0,7.4-2.2,8.7-4c0,0,0.1-0.1,0.1-0.1c1.6-2.3,2.4-5,2.4-8c0-4-0.3-9.7-0.9-17.4c-0.3-5.1-0.5-9.9-0.7-14.2l5.5,7.8	c1.6,2.5,3.4,4.5,5.2,5.9c2.3,1.8,5.1,2.6,8.4,2.6c2.8,0,5-1.6,6.5-2.9l2-1.3c0.5-0.3,0.9-0.7,1.3-1.2c3.4-4.6,7.8-10.1,13-16.2	c-0.2,9.7-0.2,19.9-0.2,30.7c0,5.1,0.6,9,1.9,11.9c0,0,0,0.1,0.1,0.1c1.1,2.4,4,6.4,11.1,6.4c2.3,0,4.7-0.6,6.9-1.9	c0.1,0,0.1-0.1,0.2-0.1c2.9-1.8,4.6-4.8,4.8-8.4c0-0.5,0-1-0.1-1.4c-1.4-5.6-2.1-14.6-2.1-26.7c0-3.9,0-7.4,0.1-10.3	c0.1-3,0.2-5.7,0.2-7.8c0.3-8.8,0.5-15.9,0.5-21c0-3.8-3.1-6.6-4.3-7.6c-2.6-2.5-5.1-3.7-7.6-3.7c-2.4,0-4.6,0.6-6.7,1.6	c-2.1,1-3.8,2.3-5,4c-0.1,0.1-0.2,0.2-0.2,0.3c-3,4.8-5.8,8.9-8.3,12.2c0,0,0,0,0,0.1c-2.4,3.3-5.6,6.9-9.4,10.8	c-1.5,1.5-3.2,3.3-5.1,5.6c-2.8-4.2-5.7-8.7-8.6-13.2c-5.1-8.2-6.4-11.6-6.7-12.9c-0.1-0.4-0.2-0.8-0.4-1.2	c-1.3-2.5-3.4-4.5-6.1-5.8c-2.3-1.2-4.8-1.8-7.2-1.8c-8.2,0-13.1,4.7-13.1,12.5c0,4.1,0,8,0.1,11.5c0.1,3.4,0.2,6.4,0.3,9l0.3,8.8	l0.3,6.8c0.4,9.2,0.6,17.1,0.6,23.5c0,3.1,0,5.4-0.1,6.7c0,0.2,0,0.4,0,0.5c0.2,3.3,1.8,6,4.5,7.7c0,0,0.1,0,0.1,0.1	C85.1,179.6,87.8,180.2,90.8,180.2 M210.4,66.5c0.3,0,1,0.1,1.4,0.7c0.2,0.2,0.3,0.5,0.3,0.9c0,0.3,0.1,0.7,0.2,1l-1,0.7	c-0.4,0.3-0.9,0.4-1.2,0.4c-0.3,0-1-0.1-1.4-0.7c-0.3-0.5-0.4-1-0.3-1.3c0-0.3,0.2-0.8,0.8-1.3C209.7,66.6,210.1,66.5,210.4,66.5 M223.7,25.3l-15.7,9.4c0-1.2-0.3-2.3-0.9-3.4c-1.3-2.1-3.5-3.3-5.8-3.3c-1.2,0-2.5,0.3-3.6,1c-3.3,2-4.4,6.2-2.4,9.4	c1.3,2.1,3.5,3.3,5.8,3.3c1.2,0,2.5-0.3,3.6-1l14.8-8.9l3.5,5.8l5.9-3.6L223.7,25.3L223.7,25.3z M235.8,41.3l-8.3,6	c-0.1-0.7-0.3-1.3-0.7-1.9c-0.7-1-1.9-1.6-3.1-1.6c-0.8,0-1.6,0.2-2.3,0.8c-1.7,1.3-2.1,3.7-0.9,5.4c0.7,1,1.9,1.6,3.1,1.6	c0.8,0,1.6-0.2,2.3-0.8l7.9-5.7l2.2,3.1l3.1-2.3L235.8,41.3L235.8,41.3z M167.8,43.8c-1.4,0-3.7,1.7-8.4,6.2l-6.4,6.3l-5.9-2.6	c-3.2-1.4-9.2-3.5-13.2-4.5c-6.3-1.7-9-2-19-2c-0.6,0-1.2,0-1.8,0c-10.9,0-15.1,0.7-24.9,3.8c-13.1,4.2-23.9,11.1-34,21.5	c-7.7,8-10.9,12.6-15.6,22.5c-7,14.4-9.6,33.4-6.8,49.3c5.6,32.4,29.7,58.7,61.3,67c6,1.6,14.2,2.4,22,2.4c4.8,0,9.5-0.3,13.3-1	c49.7-8.7,80.7-59.4,65.5-107.3c-1.3-3.9-3.1-8.7-4.1-10.6l-1.7-3.5l6.4-6.3c4.7-4.7,6.3-6.8,6.3-8.3c0-2-2.5-5.9-8.1-12.6	c-3.2-3.8-3.3-4.1-2-5c3.9-3,9.1-4.7,13.8-4.7c1.9,0,3.7,0.3,5.3,0.8c2.1,0.7,3.8,1.1,5,1.1c2.3,0,3.3-1.3,3.3-3.8	c0-1.9-0.5-2.4-3.9-4c-2.9-1.3-6.2-2-9.7-2c-6,0-12.3,1.9-17.3,5.5c-1.6,1.2-2.9,1.8-3.6,1.8c-0.2,0-0.4,0-0.5-0.1	c-0.5-0.4-3.7-2.8-7.1-5.4C172,45.5,169,43.8,167.8,43.8L167.8,43.8z M69.3,88.1c-0.8,0-1.4-0.4-2.1-1.1c-2.3-2.2-1.4-4.4,3-8.6	c10.2-9.3,25.1-15.1,40-15.7c0.1,0,0.2,0,0.3,0c1.4,0,2.7,0.5,3.6,1.4c3.6,3.6,0.8,6.4-7.2,7C95.6,72,84.5,76.6,75.7,84	C72.5,86.8,70.7,88.1,69.3,88.1L69.3,88.1z M90.8,175.2c-2.2,0-4-0.4-5.4-1.2c-1.3-0.8-2-2.1-2.1-3.7c0.1-1.4,0.1-3.7,0.1-7	c0-6.5-0.2-14.4-0.6-23.7l-0.2-6.7l-0.2-8.7c-0.1-2.6-0.2-5.6-0.2-9c-0.1-3.5-0.1-7.3-0.1-11.4c0-5,2.7-7.5,8.1-7.5	c1.7,0,3.3,0.4,5,1.2c1.7,0.8,3,2,3.9,3.6c0.7,2.9,3.1,7.7,7.4,14.5c4.2,6.7,8.4,13.1,12.5,19c3.7-4.7,6.7-8.1,9-10.5	c4-4.1,7.3-7.9,9.9-11.4c2.7-3.5,5.5-7.7,8.6-12.6c0.7-1,1.8-1.8,3.2-2.5c1.4-0.7,2.9-1.1,4.5-1.1c1.2,0,2.6,0.8,4.2,2.4	c1.7,1.5,2.6,2.8,2.6,3.9c0,5.1-0.2,12-0.5,20.8c-0.1,2.2-0.2,4.8-0.2,7.9c-0.1,3-0.1,6.5-0.1,10.5c0,12.6,0.7,22,2.2,27.9	c-0.1,2-0.9,3.5-2.4,4.4c-1.5,0.8-3,1.2-4.5,1.2c-3.3,0-5.5-1.2-6.6-3.5c-1-2.3-1.5-5.7-1.5-10c0-16,0.2-30.8,0.5-44.3	c-9.6,10.6-17,19.6-22.3,26.8l-2.2,1.5c-1.4,1.2-2.6,1.9-3.5,1.9c-2.2,0-4-0.5-5.4-1.6c-1.4-1.1-2.8-2.7-4.1-4.7l-6-8.5	c-4.2-5.8-7.2-10.2-9.1-13.2c0,7.7,0.4,18,1.1,31.2c0.6,7.6,0.9,13.3,0.9,17.1c0,2-0.5,3.7-1.5,5.1C94.6,174.6,93,175.2,90.8,175.2	L90.8,175.2z M231.9,56.9l-14.8,10.7c-0.1-1.2-0.5-2.3-1.2-3.3c-1.3-1.8-3.4-2.8-5.5-2.8c-1.4,0-2.9,0.4-4.1,1.3	c-3.1,2.2-3.8,6.5-1.6,9.6c1.3,1.8,3.4,2.8,5.5,2.8c1.4,0,2.9-0.4,4.1-1.3l14-10.2l4,5.5l5.6-4.1L231.9,56.9L231.9,56.9z"/></svg>