<svg xmlns="http://www.w3.org/2000/svg" xml:space="preserve" style="enable-background:new 0 0 240 240" viewBox="0 0 240 240"><path d="M99.8 139.3c-4.1-1.6-5.5-2.3-5.6-3-.3-1.6-2-3-4.5-3.6-1.3-.3-2.5-.8-2.8-1.1-.2-.3-.6-2.1-.7-4.1-.2-2.8-.1-3.6.5-4.1 1.8-1.5 4.5-5.4 5.4-7.8 2-5.5 3.9-18.7 3.9-27.8 0-4.8 0-4.9 1.9-8 2.9-4.7 3.5-7.1 3.3-12.1-.1-3.1-.4-4.7-1.2-5.9-1-1.6-1.1-1.7-3.5-1.6-2.5.1-2.5.1-3.5-1.7-2-4-5.4-5.4-8.5-3.5-.8.5-2 1.5-2.6 2.1l-1.2 1.3-1.5-1.3c-1.7-1.5-4.2-2.6-5.6-2.6-.6 0-2.3 1.2-3.8 2.7L67 59.9l-2.3-1c-3.6-1.6-6.6-.4-8.3 3.3-.4 1-1.6 2.3-2.5 3-1 .6-2 1.9-2.5 2.9-1 2.4-.2 6.5 2.5 13.4 1.2 2.9 2 5.5 1.9 5.8-.1.3-1.1 1.1-2.3 1.7-1.1.6-2.5 1.7-3 2.4-1.3 1.7-1.3 5.1 0 7.3 1.3 2.1 4.6 4.3 7.8 4.9 1.5.3 2.6.7 2.6.9s.3 5.2.7 11.3c.4 6 .7 12.1.7 13.6v2.7l-2.2.9c-1.2.5-3 1.5-3.8 2.2-.9.7-2.6 1.6-4 1.9-5 1.3-13.1 5.3-16.4 8.2-3.2 2.8-6.3 12-8.5 25.3-1.4 8.3-1.4 10.5 0 11.1 3.8 1.5 29.1 2.5 60.1 2.6 30.3.1 33.9-.2 34.9-3.5.2-.7.3-5.8.3-11.4 0-8.2-.2-10.7-.8-12.9-2.1-7.4-7.6-11.6-22.1-17.2zM87 135.7s.7.2 1.6.5l1.5.5-1.6 2.9c-.8 1.6-2.3 3.8-3.3 4.9l-1.8 2-1.4-.9c-1.7-1.1-3.5-3.2-3.6-4 0-.6 5.7-4.8 7.5-5.5.7-.2 1.1-.4 1.1-.4zm-17.1-.5c-2.4-1.9-4.5-3.8-4.7-4.2-.4-1-.4-7.2 0-9.5l.3-1.8 2.8 2.4c1.6 1.4 3.5 2.7 4.4 3.1.9.3 3.4.8 5.4 1 4.2.4 3.8-.1 4.5 5.7l.3 2.3-3.3 1.9c-5.1 2.9-4.8 3-9.7-.9zm8.6 12.9c0 .9-1.5.8-2.5-.2-.9-.8-1.2-2.1-.5-2.7.4-.4 3 2.1 3 2.9zm-24-77.5v-2.7l1.8-.4c1.6-.4 1.9-.7 2.6-2.6 1-3 2-4 3.9-4 1.2 0 1.8.3 2.6 1.5 1.6 2.2 2.5 1.8 4.9-1.7 2.2-3.4 3.5-4.1 5.8-3.4.7.2 1.7 1.2 2.4 2.1 1.8 2.7 2.3 2.8 4.6.4 1.7-1.7 4.1-3.8 4.6-3.8 0 0 .6.2 1.3.5 1.2.5 1.8 1.9 3.1 6 .7 2.3 1.7 2.6 4 1.4l1.9-1.1.3 1.8c.8 4.4-.4 8.7-3.6 12.8l-1 1.2-3.5-.9c-1.9-.5-5.6-1.6-8.1-2.3-7.4-2.3-12.1-1.8-15.9 1.7-1.9 1.8-2.2 2.4-3.4 6.6-.6 2.5-1.3 4.7-1.4 4.8-.6.6-2.7-1.5-3-2.9-.2-.9-1.1-4-2-6.9-1.2-3.3-1.8-6.5-1.9-8.1zm5.8 30.1c-2.7-.7-4.9-2.5-5.6-4.7-.4-1.4-.4-1.8.1-2.5 1-1.2 3.5-2.1 6.1-2.1 3.1 0 3.6-.6 5.1-6 .7-2.4 1.7-4.7 2.2-5.2 3-3 9.9-3 17.5 0 2.7 1.1 5.5 2.3 6.3 2.8 1.2.8 1.3.9.9 4.8-.4 5.8-2.6 19.6-3.5 22.6-.9 3.2-2.3 6-3.9 8.2-1.4 1.8-5.5 3.9-7.7 3.9s-6.3-2.2-8-4.4c-2.1-2.7-4.3-7.6-5.1-11.7-1-4.2-1.5-4.9-4.4-5.7zm10.6 52.8c-.7 2.3-.9 4.7-.9 15.2v12.4l-6.6-.2c-3.6-.1-8.8-.3-11.7-.5l-5.1-.3-.2-7.5c-.1-4.1-.5-7.9-.7-8.4-.5-1.1-1.6-1.1-1.9 0-.3.9-1.2 11.8-1.3 14.4v1.4l-6.4-.3c-3.5-.1-6.5-.4-6.7-.5-.6-.7 4.9-23.9 6.5-27 1.7-3.4 3.8-5 12.5-9.2 7.6-3.8 7.9-3.9 8.8-3.1.6.5 3.1 2.9 5.6 5.3 3.3 3.1 5.1 4.5 6.3 4.7.9.2 1.8.2 2 0 .8-.4.7.6-.2 3.6zm-1.1-7.7c-.9 0-4.4-3.1-6.9-6l-2.4-2.9 1.2-.9c.6-.4 1.4-.9 1.7-.9.3 0 2.4 1.6 4.5 3.4 2.1 1.9 4 3.6 4.1 3.8.2.6-1.6 3.5-2.2 3.5zm10.9 35.6c-.3.1-2 0-3.9-.1l-3.4-.3.1-7c.1-7.2.8-19 1.3-20.5.3-1 1.3-1.1 2.3-.1 2.1 2 5.3 27.4 3.6 28zm36.8-2c-.3 1-1.4 1.3-4.8 1.5l-2.4.1-.3-5.8c-.1-3.2-.6-6.4-.9-7.2-.7-1.5-2.1-1.7-2.6-.5-.4 1.1-.3 6.2.2 10.1.2 1.8.3 3.4.2 3.6-.1.1-2.8.3-6.1.6-5.9.4-16.2 0-16.8-.7-.2-.2-.5-5.3-.7-11.4-.3-10.7-.8-14.2-2.3-17-.9-1.6.1-2.5 2.6-2.5 2.4 0 3-.5 6.3-5.7 1.3-1.9 2.5-3.5 2.8-3.5.2 0 4.7 1.9 9.8 4.2 12.7 5.8 14.4 7.6 15.9 16.4.4 2.7-.2 15.8-.9 17.8z"/><path d="M75.5 94.7c0-1.5-.8-2.5-1.7-1.9-.7.4-.8 2.6-.1 3.3.7.8 1.8 0 1.8-1.4zM87.2 96.3c.5.3 1.6-1.1 1.6-2.2s-1.6-1.9-2.2-1.1c-.5.7-.1 2.8.6 3.3zM79.3 107.6c2.3 0 3.6-1.7 3.5-4.6-.1-5.4-2.1-10.2-3.1-7.6-.1.4-.1 2.2 0 4 .3 3.4-.1 5.5-1.2 5.5-.3 0-.8.3-1.2.7-.8.9.2 2 2 2zM78.1 114.4c1.6-1.1 1.2-1.8-1.1-2.1-1.6-.2-2.4-.6-3.8-1.9l-1.7-1.6-.4 1.1c-1.2 3.4 3.8 6.8 7 4.5zM206.6 118.3c0-2.4 1.7-6 4.3-9.1 2.2-2.7 2.7-4.3 2.4-8.6-.5-6.1-4.9-11.9-12.5-16.3-4-2.4-4-2.4-5.3-5.7-3.2-8.3-6.6-12.4-12.7-15.2-2.9-1.3-3.9-1.5-7.7-1.6-2.4 0-4.8 0-5.4.1-2.9.7-4.4 1.4-5.8 2.6-1.2 1-2.2 1.3-4.6 1.6-6.5.5-14.2 5.7-16.9 11.4-1.1 2.2-1.2 3.2-1.2 7.9 0 3.7-.2 5.8-.7 6.7-.4.7-2.3 3.1-4.4 5.4-6 6.5-6.3 7.3-6.6 14.2l-.1 5.8 2.2 4.9c1.2 2.7 2.2 5.5 2.2 6.2 0 .7-.8 2.7-1.7 4.5-2.1 4.1-3.8 11-3.2 13 .2.8 1 2.5 1.7 3.9l1.3 2.5-1.6 7.5c-1.3 6.7-2.6 19.7-2 20.8.4.8 4.3 2.3 8.1 3.2 4.9 1.1 19.3 2.1 25.4 1.7 11.7-.8 35.4-5.3 39.9-7.5 1.7-.9 1.8-1.1 1.8-3.1 0-1.2-.7-5.6-1.5-9.8l-1.6-7.7 1-1.1c1.3-1.4 2.2-3.4 3.2-6.6.5-1.8 1.5-3.5 2.8-5 4.6-5.2 4.8-8.4 1.2-18.6-1-3.3-2-6.9-2-8zm-6.6 56.6c-.4.4-9.1 1.5-9.6 1.2-.2-.1-.4-2.3-.4-4.9 0-7.7-1.2-13.1-3-13.4-1.4-.2-1.5 2.6-.6 10.9.4 4.3.7 7.8.5 8-.3.3-10.4 1.9-18.9 2.8-3.6.4-9.6.7-13.5.7h-6.9l-.3-6.1c-.2-4.4-.6-6.7-1.3-8.2-1.3-3-1.2-4.8.6-7.4 1.9-2.8 1.6-3.9-.6-3.5-2 .4-3.7 1.9-4.8 4.4-1.2 2.6-1.2 4.3.3 8.7 1.3 4 2.6 9.6 2.6 11.2 0 1-.2 1-3.3.7-5.7-.5-9.9-1.3-10.2-2.1-.7-1.8 3.7-21.5 6.1-28 1.3-3.2 2.8-5.5 4.5-6.7 1.3-1 7-3.2 8.2-3.2.4 0 1.6 1.3 2.7 2.9 2.3 3.4 6.2 7.1 7.4 7.1.5 0 2.1-1.2 3.6-2.6 1.5-1.4 2.8-2.6 3.1-2.6.3 0 1.8 1.4 3.4 3.2 1.6 1.7 3.4 3.3 3.9 3.5 2 .8 3.7-.8 6.6-6.4 2-3.6 2-3.7 3.9-3.7 4.6 0 7.5 2.7 9.5 8.7 2.2 6.4 6.9 24.5 6.5 24.8zm-38.3-45.3c1.2-3.6 1.3-3.8 2.5-3.4.7.2 3 .3 5.2.3h3.9l.8 4.2c.4 2.3.7 4.4.5 4.7-.5.8-6 3.3-7.1 3.3-1.4 0-5.8-2.8-5.8-3.6 0-.3-.3-.9-.7-1.1-.5-.5-.4-1.2.7-4.4zm-9.4-32.7v-3.3l2.7-1.3c1.7-.9 4.5-3.1 7.6-6.2 2.7-2.6 5.2-4.8 5.6-4.8.3 0 2.5 1.8 4.9 4 3.7 3.4 5.1 4.3 10.8 7.1 7.1 3.4 9.7 5.5 9.7 8 0 1.9-.8 2.3-4.1 2.5l-2.9.1-1.6 3.8c-3.1 7.3-7.4 12.3-12.7 14.9-3.2 1.5-5.7 1.3-8.4-.6-5.3-3.4-11.4-16.3-11.6-24.2zm25.1 40.4c.1 0 .7.3 1.2.7.9.7.9.8-1.3 4.9-1.2 2.3-2.5 4.2-2.9 4.2-.7 0-4-4-3.8-4.5.2-.5 6.4-5.3 6.8-5.3zm-16.1 2.4c1.4 1.1 2.5 2.2 2.5 2.4 0 .5-3.4 4.3-3.9 4.3-.4 0-4.2-5.2-4.7-6.4-.2-.5.2-1 1.1-1.5 1.9-1.1 2.2-1 5 1.2zm42.6 2.1c-1.5 1.8-3.2 4.3-3.8 5.6-.5 1.2-1.1 2.3-1.3 2.3-.2 0-1-1.4-1.8-3.2-1.6-3.5-4-6.5-6.2-7.6-.8-.4-2.7-1-4.4-1.2-1.7-.3-4.1-1-5.5-1.7-2.2-1.1-2.6-1.4-3.1-3.3-.3-1.1-.5-3.8-.5-5.9 0-3.4.1-3.9 1.3-4.9 2.1-2 5.4-6.7 7.6-11.1l2-4.2h2.4c5.7 0 8.5-4.8 5.5-9.4-1.4-2.1-1.5-2.2-10.6-7.7-3.4-2.1-7.8-5.2-9.7-6.8-4.6-4-6.8-5.1-8.6-4.4-.8.3-3.9 2.6-6.9 5.1-3 2.4-6.7 5.1-8 5.8l-2.6 1.3v5.8c0 8.8 2.4 16.3 7.7 24.1 1.4 2 2 3.3 2 4.4 0 2.6-1.3 8.1-2 8.7-1.2 1.1-4.4 2.1-9.2 2.9-7.3 1.2-10.4 3-13 7.4-.9 1.5-1.4 1.9-1.7 1.4-.9-1.3-.3-3.2 2.3-8.5 3.6-7 3.7-8.3.5-15.4-1.2-2.8-2.3-5.8-2.5-6.8-.3-1.9.5-8.1 1.3-9.7.3-.5 2.3-2.7 4.5-4.8 5.6-5.4 5.8-5.8 5.8-13.1 0-5.6.1-6.1 1.3-8.2.7-1.2 2.4-3.1 3.7-4.2 2.2-2 8.4-5.3 9.8-5.3.3 0 1.6-.5 2.7-1.1 4-2.1 4.8-2.3 10.6-2.2 4.7.1 6 .3 7.9 1.2 4.9 2.3 8.3 6.6 10.7 13.3 1.2 3.4 2.1 4.4 7.1 7.6 6.1 3.9 9.6 8.8 9.6 13.6 0 1.9-.3 2.8-2.5 6.1-5.3 8.1-5.4 10.5-1.1 21.4 2.7 7.1 2.5 8.3-1.3 12.7z"/><path d="M158.7 93.4c-1.3 1-1.4 2.5-.4 3.7.8 1 1 1.1 1.8.4.4-.4 1-1.1 1.2-1.7.7-1.8-1.1-3.5-2.6-2.4zM176.3 97.3c1.3-2.5-1.1-4.9-2.8-2.9-.5.5-.5 1.2-.2 2.5.5 2.3 2 2.5 3 .4zM167.3 106.7c.4-.4.2-.9-.5-1.6-1.4-1.4-1.4-1.9.1-4.9 1.2-2.3 1.2-4.1.2-4.1-.2 0-1.3 1.1-2.4 2.5-2.7 3.4-3.1 4.5-2.1 6 .9 1.5 4 2.8 4.7 2.1zM164.4 113.1c.4 1.2 2.4 1.7 4.6 1.1 2.3-.6 5.5-3 5.5-4.3 0-1.1-.8-1.1-2.8.1-.8.5-2.8 1.1-4.3 1.4-3.2.5-3.4.6-3 1.7z"/></svg>