<svg xmlns="http://www.w3.org/2000/svg" xmlns:xlink="http://www.w3.org/1999/xlink" width="300" height="300" version="1.1" viewBox="0 0 300 300"><defs><path id="path_1" d="M13.999 18.3963L162.888 18.3963Q163.231 18.3963 163.575 18.4131Q163.918 18.43 164.26 18.4637Q164.602 18.4973 164.942 18.5478Q165.282 18.5982 165.619 18.6652Q165.956 18.7323 166.289 18.8158Q166.623 18.8993 166.951 18.999Q167.28 19.0988 167.604 19.2146Q167.927 19.3304 168.245 19.4619Q168.562 19.5934 168.873 19.7403Q169.184 19.8872 169.487 20.0492Q169.79 20.2112 170.085 20.3879Q170.379 20.5646 170.665 20.7555Q170.951 20.9464 171.227 21.1512Q171.503 21.3559 171.769 21.5739Q172.034 21.7919 172.289 22.0227Q172.544 22.2535 172.787 22.4965Q173.03 22.7395 173.26 22.9941Q173.491 23.2487 173.709 23.5144Q173.927 23.78 174.132 24.0561Q174.337 24.3321 174.528 24.6178Q174.718 24.9036 174.895 25.1983Q175.072 25.4931 175.234 25.7962Q175.396 26.0992 175.543 26.4099Q175.69 26.7206 175.821 27.0381Q175.953 27.3556 176.068 27.6791Q176.184 28.0027 176.284 28.3316Q176.384 28.6604 176.467 28.9938Q176.551 29.3271 176.618 29.6642Q176.685 30.0012 176.735 30.3412Q176.786 30.6811 176.819 31.0231Q176.853 31.3651 176.87 31.7084Q176.887 32.0516 176.887 32.3953L176.887 236.473Q176.887 236.816 176.87 237.16Q176.853 237.503 176.819 237.845Q176.786 238.187 176.735 238.527Q176.685 238.867 176.618 239.204Q176.551 239.541 176.467 239.874Q176.384 240.208 176.284 240.536Q176.184 240.865 176.068 241.189Q175.953 241.512 175.821 241.83Q175.69 242.147 175.543 242.458Q175.396 242.769 175.234 243.072Q175.072 243.375 174.895 243.67Q174.718 243.964 174.528 244.25Q174.337 244.536 174.132 244.812Q173.927 245.088 173.709 245.354Q173.491 245.619 173.26 245.874Q173.03 246.129 172.787 246.372Q172.544 246.615 172.289 246.845Q172.034 247.076 171.769 247.294Q171.503 247.512 171.227 247.717Q170.951 247.922 170.665 248.112Q170.379 248.303 170.085 248.48Q169.79 248.657 169.487 248.819Q169.184 248.981 168.873 249.128Q168.562 249.275 168.245 249.406Q167.927 249.538 167.604 249.653Q167.28 249.769 166.951 249.869Q166.623 249.969 166.289 250.052Q165.956 250.136 165.619 250.203Q165.282 250.27 164.942 250.32Q164.602 250.371 164.26 250.404Q163.918 250.438 163.575 250.455Q163.231 250.472 162.888 250.472L13.999 250.472Q13.6553 250.472 13.3121 250.455Q12.9689 250.438 12.6269 250.404Q12.2849 250.371 11.9449 250.32Q11.605 250.27 11.2679 250.203Q10.9309 250.136 10.5975 250.052Q10.2642 249.969 9.9353 249.869Q9.60644 249.769 9.28288 249.653Q8.95931 249.538 8.64181 249.406Q8.32432 249.275 8.01366 249.128Q7.70299 248.981 7.39992 248.819Q7.09684 248.657 6.80207 248.48Q6.50731 248.303 6.22157 248.112Q5.93583 247.922 5.6598 247.717Q5.38378 247.512 5.11813 247.294Q4.85248 247.076 4.59785 246.845Q4.34321 246.615 4.10021 246.372Q3.85721 246.129 3.62642 245.874Q3.39564 245.619 3.17763 245.354Q2.95961 245.088 2.7549 244.812Q2.55018 244.536 2.35926 244.25Q2.16833 243.964 1.99166 243.67Q1.81498 243.375 1.65298 243.072Q1.49099 242.769 1.34405 242.458Q1.19712 242.147 1.06561 241.83Q0.934099 241.512 0.818324 241.189Q0.70255 240.865 0.602792 240.536Q0.503034 240.208 0.419532 239.874Q0.336031 239.541 0.268987 239.204Q0.201943 238.867 0.151518 238.527Q0.101093 238.187 0.067409 237.845Q0.0337248 237.503 0.0168624 237.16Q0 236.816 0 236.473L0 32.3953Q0 32.0516 0.0168624 31.7084Q0.0337248 31.3651 0.067409 31.0231Q0.101093 30.6811 0.151518 30.3412Q0.201943 30.0012 0.268987 29.6642Q0.336031 29.3271 0.419532 28.9938Q0.503034 28.6604 0.602792 28.3316Q0.70255 28.0027 0.818324 27.6791Q0.934099 27.3556 1.06561 27.0381Q1.19712 26.7206 1.34405 26.4099Q1.49099 26.0992 1.65298 25.7962Q1.81498 25.4931 1.99166 25.1983Q2.16833 24.9036 2.35926 24.6178Q2.55018 24.3321 2.7549 24.0561Q2.95961 23.78 3.17763 23.5144Q3.39564 23.2487 3.62642 22.9941Q3.85721 22.7395 4.10021 22.4965Q4.34321 22.2535 4.59785 22.0227Q4.85248 21.7919 5.11813 21.5739Q5.38378 21.3559 5.6598 21.1512Q5.93583 20.9464 6.22157 20.7555Q6.50731 20.5646 6.80207 20.3879Q7.09684 20.2112 7.39992 20.0492Q7.70299 19.8872 8.01366 19.7403Q8.32432 19.5934 8.64181 19.4619Q8.95931 19.3304 9.28288 19.2146Q9.60644 19.0988 9.9353 18.999Q10.2642 18.8993 10.5975 18.8158Q10.9309 18.7323 11.2679 18.6652Q11.605 18.5982 11.9449 18.5478Q12.2849 18.4973 12.6269 18.4637Q12.9689 18.43 13.3121 18.4131Q13.6553 18.3963 13.999 18.3963L13.999 18.3963Z"/><rect id="artboard_1" width="300" height="300"/><clipPath id="clip_1"><use clip-rule="evenodd" xlink:href="#artboard_1"/></clipPath><clipPath id="clip_2"><use xlink:href="#path_1"/></clipPath></defs><g id="Artboard" clip-path="url(#clip_1)"><g id="Group-6" artboard="9c2fa74e-be68-4170-acf4-9c55161c1169" transform="translate(61 21)"><g id="Rectangle"><use fill="#D2AEAE" fill-opacity=".298" fill-rule="evenodd" stroke="none" xlink:href="#path_1"/><g clip-path="url(#clip_2)"><use fill="none" stroke="#D2AEAE" stroke-width="2" xlink:href="#path_1"/></g></g><path id="Rectangle-2-Union" fill="#D2AEAE" fill-rule="evenodd" stroke="none" d="M95.0576 0L80.4141 0Q80.2176 0 80.0221 0.0192563Q79.8266 0.0385126 79.6339 0.0768396Q79.4413 0.115167 79.2533 0.172196Q79.0653 0.229224 78.8838 0.304406Q78.7022 0.379587 78.529 0.472197Q78.3557 0.564807 78.1924 0.673953Q78.029 0.783099 77.8772 0.907731Q77.7253 1.03236 77.5864 1.17128Q77.4475 1.3102 77.3228 1.46206Q77.1982 1.61393 77.0891 1.77727Q76.9799 1.94062 76.8873 2.11388Q76.7947 2.28715 76.7195 2.46865Q76.6443 2.65015 76.5873 2.83815Q76.5303 3.02615 76.4919 3.21883Q76.4536 3.41152 76.4344 3.60703Q76.4151 3.80254 76.4151 3.999L76.4151 7.07546L60.3575 7.07546Q60.1611 7.07546 59.965 7.0851Q59.7689 7.09473 59.5734 7.11398Q59.378 7.13322 59.1838 7.16204Q58.9895 7.19085 58.7969 7.22916Q58.6044 7.26747 58.4139 7.31518Q58.2234 7.36289 58.0355 7.41989Q57.8476 7.4769 57.6627 7.54305Q57.4778 7.6092 57.2964 7.68435Q57.115 7.75949 56.9375 7.84345Q56.7599 7.92741 56.5868 8.01997Q56.4136 8.11254 56.2452 8.21349Q56.0767 8.31444 55.9135 8.42353Q55.7502 8.53263 55.5925 8.6496Q55.4348 8.76658 55.283 8.89115Q55.1312 9.01572 54.9857 9.14759Q54.8402 9.27946 54.7013 9.41831Q54.5625 9.55716 54.4306 9.70266Q54.2987 9.84816 54.1742 9.99995Q54.0496 10.1517 53.9326 10.3095Q53.8156 10.4672 53.7065 10.6305Q53.5975 10.7937 53.4965 10.9622Q53.3955 11.1306 53.303 11.3038Q53.2104 11.4769 53.1265 11.6544Q53.0425 11.832 52.9674 12.0134Q52.8922 12.1948 52.8261 12.3797Q52.7599 12.5646 52.7029 12.7525Q52.6459 12.9404 52.5982 13.1309Q52.5505 13.3213 52.5122 13.5139Q52.4739 13.7065 52.445 13.9008Q52.4162 14.095 52.397 14.2904Q52.3777 14.4858 52.3681 14.682Q52.3585 14.8781 52.3585 15.0745L52.3585 30.2085Q52.3585 30.4049 52.3681 30.601Q52.3777 30.7972 52.397 30.9926Q52.4162 31.188 52.445 31.3822Q52.4739 31.5765 52.5122 31.7691Q52.5505 31.9617 52.5982 32.1521Q52.6459 32.3426 52.7029 32.5305Q52.7599 32.7184 52.8261 32.9033Q52.8922 33.0882 52.9674 33.2696Q53.0425 33.451 53.1265 33.6285Q53.2104 33.8061 53.303 33.9792Q53.3955 34.1524 53.4965 34.3208Q53.5975 34.4893 53.7065 34.6525Q53.8156 34.8158 53.9326 34.9735Q54.0496 35.1312 54.1742 35.283Q54.2987 35.4348 54.4306 35.5803Q54.5625 35.7258 54.7013 35.8647Q54.8402 36.0035 54.9857 36.1354Q55.1312 36.2673 55.283 36.3918Q55.4348 36.5164 55.5925 36.6334Q55.7502 36.7504 55.9135 36.8595Q56.0767 36.9686 56.2452 37.0695Q56.4136 37.1705 56.5868 37.263Q56.7599 37.3556 56.9375 37.4395Q57.115 37.5235 57.2964 37.5986Q57.4778 37.6738 57.6627 37.7399Q57.8476 37.8061 58.0355 37.8631Q58.2234 37.9201 58.4139 37.9678Q58.6044 38.0155 58.7969 38.0538Q58.9895 38.0921 59.1838 38.121Q59.378 38.1498 59.5734 38.169Q59.7689 38.1883 59.965 38.1979Q60.1611 38.2075 60.3575 38.2075L115.114 38.2075Q115.311 38.2075 115.507 38.1979Q115.703 38.1883 115.898 38.169Q116.094 38.1498 116.288 38.121Q116.482 38.0921 116.675 38.0538Q116.867 38.0155 117.058 37.9678Q117.248 37.9201 117.436 37.8631Q117.624 37.8061 117.809 37.7399Q117.994 37.6738 118.175 37.5986Q118.357 37.5235 118.534 37.4395Q118.712 37.3556 118.885 37.263Q119.058 37.1705 119.226 37.0695Q119.395 36.9686 119.558 36.8595Q119.721 36.7504 119.879 36.6334Q120.037 36.5164 120.189 36.3918Q120.34 36.2673 120.486 36.1354Q120.631 36.0035 120.77 35.8647Q120.909 35.7258 121.041 35.5803Q121.173 35.4348 121.297 35.283Q121.422 35.1312 121.539 34.9735Q121.656 34.8158 121.765 34.6525Q121.874 34.4893 121.975 34.3208Q122.076 34.1524 122.169 33.9792Q122.261 33.8061 122.345 33.6285Q122.429 33.451 122.504 33.2696Q122.579 33.0882 122.646 32.9033Q122.712 32.7184 122.769 32.5305Q122.826 32.3426 122.873 32.1521Q122.921 31.9617 122.959 31.7691Q122.998 31.5765 123.027 31.3822Q123.055 31.188 123.075 30.9926Q123.094 30.7972 123.104 30.601Q123.113 30.4049 123.113 30.2085L123.113 15.0745Q123.113 14.8781 123.104 14.682Q123.094 14.4858 123.075 14.2904Q123.055 14.095 123.027 13.9008Q122.998 13.7065 122.959 13.5139Q122.921 13.3213 122.873 13.1309Q122.826 12.9404 122.769 12.7525Q122.712 12.5646 122.646 12.3797Q122.579 12.1948 122.504 12.0134Q122.429 11.832 122.345 11.6544Q122.261 11.4769 122.169 11.3038Q122.076 11.1306 121.975 10.9622Q121.874 10.7937 121.765 10.6305Q121.656 10.4672 121.539 10.3095Q121.422 10.1517 121.298 9.99995Q121.173 9.84816 121.041 9.70266Q120.909 9.55716 120.77 9.41831Q120.631 9.27946 120.486 9.14759Q120.34 9.01572 120.189 8.89115Q120.037 8.76658 119.879 8.6496Q119.721 8.53263 119.558 8.42353Q119.395 8.31444 119.226 8.21349Q119.058 8.11254 118.885 8.01997Q118.712 7.92741 118.534 7.84345Q118.357 7.75949 118.175 7.68435Q117.994 7.6092 117.809 7.54305Q117.624 7.4769 117.436 7.41989Q117.248 7.36289 117.058 7.31518Q116.867 7.26747 116.675 7.22916Q116.482 7.19085 116.288 7.16204Q116.094 7.13322 115.898 7.11398Q115.703 7.09473 115.507 7.0851Q115.311 7.07546 115.114 7.07546L99.0566 7.07546L99.0566 3.999Q99.0566 3.80254 99.0374 3.60703Q99.0181 3.41152 98.9798 3.21883Q98.9415 3.02615 98.8844 2.83815Q98.8274 2.65015 98.7522 2.46865Q98.677 2.28715 98.5844 2.11388Q98.4918 1.94062 98.3827 1.77727Q98.2735 1.61393 98.1489 1.46206Q98.0243 1.3102 97.8853 1.17128Q97.7464 1.03236 97.5946 0.907731Q97.4427 0.783099 97.2793 0.673953Q97.116 0.564807 96.9427 0.472197Q96.7695 0.379587 96.588 0.304406Q96.4065 0.229224 96.2185 0.172196Q96.0305 0.115167 95.8378 0.0768396Q95.6451 0.0385126 95.4496 0.0192563Q95.2541 0 95.0576 0Z"/><g id="Group-2" transform="translate(29.716965 72.16986)"><path id="Rectangle-2" fill="#917676" fill-rule="evenodd" stroke="none" d="M1.999 0L20.6425 0Q20.7407 0 20.8384 0.00962573Q20.9362 0.0192515 21.0325 0.0384102Q21.1288 0.057569 21.2228 0.0860763Q21.3168 0.114584 21.4075 0.152165Q21.4982 0.189746 21.5848 0.236039Q21.6714 0.282333 21.7531 0.336892Q21.8348 0.391452 21.9107 0.453752Q21.9866 0.516052 22.056 0.585494Q22.1255 0.654935 22.1878 0.730848Q22.2501 0.806761 22.3046 0.888415Q22.3592 0.970069 22.4055 1.05668Q22.4518 1.14329 22.4893 1.23402Q22.5269 1.32474 22.5554 1.41872Q22.5839 1.5127 22.6031 1.60901Q22.6223 1.70533 22.6319 1.80306Q22.6415 1.9008 22.6415 1.999L22.6415 17.8123Q22.6415 17.9105 22.6319 18.0083Q22.6223 18.106 22.6031 18.2023Q22.5839 18.2986 22.5554 18.3926Q22.5269 18.4866 22.4893 18.5773Q22.4518 18.668 22.4055 18.7546Q22.3592 18.8413 22.3046 18.9229Q22.2501 19.0046 22.1878 19.0805Q22.1255 19.1564 22.056 19.2258Q21.9866 19.2953 21.9107 19.3576Q21.8348 19.4199 21.7531 19.4744Q21.6714 19.529 21.5848 19.5753Q21.4982 19.6216 21.4075 19.6592Q21.3168 19.6967 21.2228 19.7252Q21.1288 19.7538 21.0325 19.7729Q20.9362 19.7921 20.8384 19.8017Q20.7407 19.8113 20.6425 19.8113L1.999 19.8113Q1.9008 19.8113 1.80306 19.8017Q1.70533 19.7921 1.60901 19.7729Q1.5127 19.7538 1.41872 19.7252Q1.32474 19.6967 1.23402 19.6592Q1.14329 19.6216 1.05668 19.5753Q0.970069 19.529 0.888415 19.4744Q0.806761 19.4199 0.730848 19.3576Q0.654935 19.2953 0.585494 19.2258Q0.516052 19.1564 0.453752 19.0805Q0.391452 19.0046 0.336892 18.9229Q0.282333 18.8413 0.236039 18.7546Q0.189746 18.668 0.152165 18.5773Q0.114584 18.4866 0.0860763 18.3926Q0.057569 18.2986 0.0384102 18.2023Q0.0192515 18.106 0.00962573 18.0083Q0 17.9105 0 17.8123L0 1.999Q0 1.9008 0.00962573 1.80306Q0.0192515 1.70533 0.0384102 1.60901Q0.057569 1.5127 0.0860763 1.41872Q0.114584 1.32474 0.152165 1.23402Q0.189746 1.14329 0.236039 1.05668Q0.282333 0.970069 0.336892 0.888415Q0.391452 0.806761 0.453752 0.730848Q0.516052 0.654935 0.585494 0.585494Q0.654935 0.516052 0.730848 0.453752Q0.806761 0.391452 0.888415 0.336892Q0.970069 0.282333 1.05668 0.236039Q1.14329 0.189746 1.23402 0.152165Q1.32474 0.114584 1.41872 0.0860763Q1.5127 0.057569 1.60901 0.0384102Q1.70533 0.0192515 1.80306 0.00962573Q1.9008 0 1.999 0Z"/><path id="Rectangle-3" fill="#917676" fill-rule="evenodd" stroke="none" d="M32.5462 0L107.548 0Q107.687 0 107.825 0.0136233Q107.964 0.0272466 108.1 0.0543621Q108.236 0.0814775 108.369 0.121824Q108.502 0.16217 108.631 0.215359Q108.759 0.268548 108.882 0.334067Q109.004 0.399586 109.12 0.476804Q109.236 0.554023 109.343 0.642196Q109.45 0.73037 109.549 0.82865Q109.647 0.92693 109.735 1.03437Q109.823 1.14181 109.901 1.25738Q109.978 1.37294 110.043 1.49552Q110.109 1.6181 110.162 1.74651Q110.215 1.87491 110.256 2.00792Q110.296 2.14092 110.323 2.27724Q110.35 2.41356 110.364 2.55188Q110.377 2.6902 110.377 2.82919L110.377 2.83119Q110.377 2.97018 110.364 3.1085Q110.35 3.24682 110.323 3.38314Q110.296 3.51945 110.256 3.65246Q110.215 3.78546 110.162 3.91387Q110.109 4.04228 110.043 4.16486Q109.978 4.28744 109.901 4.403Q109.823 4.51857 109.735 4.62601Q109.647 4.73345 109.549 4.83173Q109.45 4.93001 109.343 5.01818Q109.236 5.10636 109.12 5.18357Q109.004 5.26079 108.882 5.32631Q108.759 5.39183 108.631 5.44502Q108.502 5.49821 108.369 5.53855Q108.236 5.5789 108.1 5.60602Q107.964 5.63313 107.825 5.64676Q107.687 5.66038 107.548 5.66038L32.5462 5.66038Q32.4072 5.66038 32.2688 5.64676Q32.1305 5.63313 31.9942 5.60602Q31.8579 5.5789 31.7249 5.53855Q31.5919 5.49821 31.4635 5.44502Q31.3351 5.39183 31.2125 5.32631Q31.0899 5.26079 30.9743 5.18357Q30.8588 5.10636 30.7513 5.01818Q30.6439 4.93001 30.5456 4.83173Q30.4473 4.73345 30.3592 4.62601Q30.271 4.51857 30.1938 4.403Q30.1166 4.28744 30.051 4.16486Q29.9855 4.04228 29.9323 3.91387Q29.8791 3.78546 29.8388 3.65246Q29.7984 3.51945 29.7713 3.38314Q29.7442 3.24682 29.7306 3.1085Q29.717 2.97018 29.717 2.83119L29.717 2.82919Q29.717 2.6902 29.7306 2.55188Q29.7442 2.41356 29.7713 2.27724Q29.7984 2.14092 29.8388 2.00792Q29.8791 1.87491 29.9323 1.74651Q29.9855 1.6181 30.051 1.49552Q30.1166 1.37294 30.1938 1.25738Q30.271 1.14181 30.3592 1.03437Q30.4473 0.92693 30.5456 0.82865Q30.6439 0.73037 30.7513 0.642196Q30.8588 0.554023 30.9743 0.476804Q31.0899 0.399586 31.2125 0.334067Q31.3351 0.268548 31.4635 0.215359Q31.5919 0.16217 31.7249 0.121824Q31.8579 0.0814775 31.9942 0.0543621Q32.1305 0.0272466 32.2688 0.0136233Q32.4072 0 32.5462 0Z"/><path id="Rectangle-3-Copy" fill="#917676" fill-rule="evenodd" stroke="none" d="M32.5462 9.90567L107.548 9.90567Q107.687 9.90567 107.825 9.9193Q107.964 9.93292 108.1 9.96004Q108.236 9.98715 108.369 10.0275Q108.502 10.0678 108.631 10.121Q108.759 10.1742 108.882 10.2397Q109.004 10.3053 109.12 10.3825Q109.236 10.4597 109.343 10.5479Q109.45 10.636 109.549 10.7343Q109.647 10.8326 109.735 10.94Q109.823 11.0475 109.901 11.163Q109.978 11.2786 110.043 11.4012Q110.109 11.5238 110.162 11.6522Q110.215 11.7806 110.256 11.9136Q110.296 12.0466 110.323 12.1829Q110.35 12.3192 110.364 12.4576Q110.377 12.5959 110.377 12.7349L110.377 12.7369Q110.377 12.8759 110.364 13.0142Q110.35 13.1525 110.323 13.2888Q110.296 13.4251 110.256 13.5581Q110.215 13.6911 110.162 13.8195Q110.109 13.948 110.043 14.0705Q109.978 14.1931 109.901 14.3087Q109.823 14.4242 109.735 14.5317Q109.647 14.6391 109.549 14.7374Q109.45 14.8357 109.343 14.9239Q109.236 15.012 109.12 15.0892Q109.004 15.1665 108.882 15.232Q108.759 15.2975 108.631 15.3507Q108.502 15.4039 108.369 15.4442Q108.236 15.4846 108.1 15.5117Q107.964 15.5388 107.825 15.5524Q107.687 15.5661 107.548 15.5661L32.5462 15.5661Q32.4072 15.5661 32.2688 15.5524Q32.1305 15.5388 31.9942 15.5117Q31.8579 15.4846 31.7249 15.4442Q31.5919 15.4039 31.4635 15.3507Q31.3351 15.2975 31.2125 15.232Q31.0899 15.1665 30.9743 15.0892Q30.8588 15.012 30.7513 14.9239Q30.6439 14.8357 30.5456 14.7374Q30.4473 14.6391 30.3592 14.5317Q30.271 14.4242 30.1938 14.3087Q30.1166 14.1931 30.051 14.0705Q29.9855 13.948 29.9323 13.8195Q29.8791 13.6911 29.8388 13.5581Q29.7984 13.4251 29.7713 13.2888Q29.7442 13.1525 29.7306 13.0142Q29.717 12.8759 29.717 12.7369L29.717 12.7349Q29.717 12.5959 29.7306 12.4576Q29.7442 12.3192 29.7713 12.1829Q29.7984 12.0466 29.8388 11.9136Q29.8791 11.7806 29.9323 11.6522Q29.9855 11.5238 30.051 11.4012Q30.1166 11.2786 30.1938 11.163Q30.271 11.0475 30.3592 10.94Q30.4473 10.8326 30.5456 10.7343Q30.6439 10.636 30.7513 10.5479Q30.8588 10.4597 30.9743 10.3825Q31.0899 10.3053 31.2125 10.2397Q31.3351 10.1742 31.4635 10.121Q31.5919 10.0678 31.7249 10.0275Q31.8579 9.98715 31.9942 9.96004Q32.1305 9.93292 32.2688 9.9193Q32.4072 9.90567 32.5462 9.90567Z"/></g><g id="Group-2-Copy" transform="translate(29.716965 104.71706)"><path id="Rectangle-2" fill="#917676" fill-rule="evenodd" stroke="none" d="M1.999 0L20.6425 0Q20.7407 0 20.8384 0.00962573Q20.9362 0.0192515 21.0325 0.0384102Q21.1288 0.057569 21.2228 0.0860763Q21.3168 0.114584 21.4075 0.152165Q21.4982 0.189746 21.5848 0.236039Q21.6714 0.282333 21.7531 0.336892Q21.8348 0.391452 21.9107 0.453752Q21.9866 0.516052 22.056 0.585494Q22.1255 0.654935 22.1878 0.730848Q22.2501 0.806761 22.3046 0.888415Q22.3592 0.970069 22.4055 1.05668Q22.4518 1.14329 22.4893 1.23402Q22.5269 1.32474 22.5554 1.41872Q22.5839 1.5127 22.6031 1.60901Q22.6223 1.70533 22.6319 1.80306Q22.6415 1.9008 22.6415 1.999L22.6415 17.8123Q22.6415 17.9105 22.6319 18.0083Q22.6223 18.106 22.6031 18.2023Q22.5839 18.2986 22.5554 18.3926Q22.5269 18.4866 22.4893 18.5773Q22.4518 18.668 22.4055 18.7546Q22.3592 18.8413 22.3046 18.9229Q22.2501 19.0046 22.1878 19.0805Q22.1255 19.1564 22.056 19.2258Q21.9866 19.2953 21.9107 19.3576Q21.8348 19.4199 21.7531 19.4744Q21.6714 19.529 21.5848 19.5753Q21.4982 19.6216 21.4075 19.6592Q21.3168 19.6967 21.2228 19.7252Q21.1288 19.7538 21.0325 19.7729Q20.9362 19.7921 20.8384 19.8017Q20.7407 19.8113 20.6425 19.8113L1.999 19.8113Q1.9008 19.8113 1.80306 19.8017Q1.70533 19.7921 1.60901 19.7729Q1.5127 19.7538 1.41872 19.7252Q1.32474 19.6967 1.23402 19.6592Q1.14329 19.6216 1.05668 19.5753Q0.970069 19.529 0.888415 19.4744Q0.806761 19.4199 0.730848 19.3576Q0.654935 19.2953 0.585494 19.2258Q0.516052 19.1564 0.453752 19.0805Q0.391452 19.0046 0.336892 18.9229Q0.282333 18.8413 0.236039 18.7546Q0.189746 18.668 0.152165 18.5773Q0.114584 18.4866 0.0860763 18.3926Q0.057569 18.2986 0.0384102 18.2023Q0.0192515 18.106 0.00962573 18.0083Q0 17.9105 0 17.8123L0 1.999Q0 1.9008 0.00962573 1.80306Q0.0192515 1.70533 0.0384102 1.60901Q0.057569 1.5127 0.0860763 1.41872Q0.114584 1.32474 0.152165 1.23402Q0.189746 1.14329 0.236039 1.05668Q0.282333 0.970069 0.336892 0.888415Q0.391452 0.806761 0.453752 0.730848Q0.516052 0.654935 0.585494 0.585494Q0.654935 0.516052 0.730848 0.453752Q0.806761 0.391452 0.888415 0.336892Q0.970069 0.282333 1.05668 0.236039Q1.14329 0.189746 1.23402 0.152165Q1.32474 0.114584 1.41872 0.0860763Q1.5127 0.057569 1.60901 0.0384102Q1.70533 0.0192515 1.80306 0.00962573Q1.9008 0 1.999 0Z"/><path id="Rectangle-3" fill="#917676" fill-rule="evenodd" stroke="none" d="M32.5462 0L107.548 0Q107.687 0 107.825 0.0136233Q107.964 0.0272466 108.1 0.0543621Q108.236 0.0814775 108.369 0.121824Q108.502 0.16217 108.631 0.215359Q108.759 0.268548 108.882 0.334067Q109.004 0.399586 109.12 0.476804Q109.236 0.554023 109.343 0.642196Q109.45 0.73037 109.549 0.82865Q109.647 0.92693 109.735 1.03437Q109.823 1.14181 109.901 1.25738Q109.978 1.37294 110.043 1.49552Q110.109 1.6181 110.162 1.74651Q110.215 1.87491 110.256 2.00792Q110.296 2.14092 110.323 2.27724Q110.35 2.41356 110.364 2.55188Q110.377 2.6902 110.377 2.82919L110.377 2.83119Q110.377 2.97018 110.364 3.1085Q110.35 3.24682 110.323 3.38314Q110.296 3.51945 110.256 3.65246Q110.215 3.78546 110.162 3.91387Q110.109 4.04228 110.043 4.16486Q109.978 4.28744 109.901 4.403Q109.823 4.51857 109.735 4.62601Q109.647 4.73345 109.549 4.83173Q109.45 4.93001 109.343 5.01818Q109.236 5.10636 109.12 5.18357Q109.004 5.26079 108.882 5.32631Q108.759 5.39183 108.631 5.44502Q108.502 5.49821 108.369 5.53855Q108.236 5.5789 108.1 5.60602Q107.964 5.63313 107.825 5.64676Q107.687 5.66038 107.548 5.66038L32.5462 5.66038Q32.4072 5.66038 32.2688 5.64676Q32.1305 5.63313 31.9942 5.60602Q31.8579 5.5789 31.7249 5.53855Q31.5919 5.49821 31.4635 5.44502Q31.3351 5.39183 31.2125 5.32631Q31.0899 5.26079 30.9743 5.18357Q30.8588 5.10636 30.7513 5.01818Q30.6439 4.93001 30.5456 4.83173Q30.4473 4.73345 30.3592 4.62601Q30.271 4.51857 30.1938 4.403Q30.1166 4.28744 30.051 4.16486Q29.9855 4.04228 29.9323 3.91387Q29.8791 3.78546 29.8388 3.65246Q29.7984 3.51945 29.7713 3.38314Q29.7442 3.24682 29.7306 3.1085Q29.717 2.97018 29.717 2.83119L29.717 2.82919Q29.717 2.6902 29.7306 2.55188Q29.7442 2.41356 29.7713 2.27724Q29.7984 2.14092 29.8388 2.00792Q29.8791 1.87491 29.9323 1.74651Q29.9855 1.6181 30.051 1.49552Q30.1166 1.37294 30.1938 1.25738Q30.271 1.14181 30.3592 1.03437Q30.4473 0.92693 30.5456 0.82865Q30.6439 0.73037 30.7513 0.642196Q30.8588 0.554023 30.9743 0.476804Q31.0899 0.399586 31.2125 0.334067Q31.3351 0.268548 31.4635 0.215359Q31.5919 0.16217 31.7249 0.121824Q31.8579 0.0814775 31.9942 0.0543621Q32.1305 0.0272466 32.2688 0.0136233Q32.4072 0 32.5462 0Z"/><path id="Rectangle-3-Copy" fill="#917676" fill-rule="evenodd" stroke="none" d="M32.5462 9.90563L107.548 9.90563Q107.687 9.90563 107.825 9.91926Q107.964 9.93288 108.1 9.96Q108.236 9.98711 108.369 10.0275Q108.502 10.0678 108.631 10.121Q108.759 10.1742 108.882 10.2397Q109.004 10.3052 109.12 10.3824Q109.236 10.4597 109.343 10.5478Q109.45 10.636 109.549 10.7343Q109.647 10.8326 109.735 10.94Q109.823 11.0474 109.901 11.163Q109.978 11.2786 110.043 11.4012Q110.109 11.5237 110.162 11.6521Q110.215 11.7805 110.256 11.9136Q110.296 12.0466 110.323 12.1829Q110.35 12.3192 110.364 12.4575Q110.377 12.5958 110.377 12.7348L110.377 12.7368Q110.377 12.8758 110.364 13.0141Q110.35 13.1524 110.323 13.2888Q110.296 13.4251 110.256 13.5581Q110.215 13.6911 110.162 13.8195Q110.109 13.9479 110.043 14.0705Q109.978 14.1931 109.901 14.3086Q109.823 14.4242 109.735 14.5316Q109.647 14.6391 109.549 14.7374Q109.45 14.8356 109.343 14.9238Q109.236 15.012 109.12 15.0892Q109.004 15.1664 108.882 15.2319Q108.759 15.2975 108.631 15.3506Q108.502 15.4038 108.369 15.4442Q108.236 15.4845 108.1 15.5116Q107.964 15.5388 107.825 15.5524Q107.687 15.566 107.548 15.566L32.5462 15.566Q32.4072 15.566 32.2688 15.5524Q32.1305 15.5388 31.9942 15.5116Q31.8579 15.4845 31.7249 15.4442Q31.5919 15.4038 31.4635 15.3506Q31.3351 15.2975 31.2125 15.2319Q31.0899 15.1664 30.9743 15.0892Q30.8588 15.012 30.7513 14.9238Q30.6439 14.8356 30.5456 14.7374Q30.4473 14.6391 30.3592 14.5316Q30.271 14.4242 30.1938 14.3086Q30.1166 14.1931 30.051 14.0705Q29.9855 13.9479 29.9323 13.8195Q29.8791 13.6911 29.8388 13.5581Q29.7984 13.4251 29.7713 13.2888Q29.7442 13.1524 29.7306 13.0141Q29.717 12.8758 29.717 12.7368L29.717 12.7348Q29.717 12.5958 29.7306 12.4575Q29.7442 12.3192 29.7713 12.1829Q29.7984 12.0466 29.8388 11.9136Q29.8791 11.7805 29.9323 11.6521Q29.9855 11.5237 30.051 11.4012Q30.1166 11.2786 30.1938 11.163Q30.271 11.0474 30.3592 10.94Q30.4473 10.8326 30.5456 10.7343Q30.6439 10.636 30.7513 10.5478Q30.8588 10.4597 30.9743 10.3824Q31.0899 10.3052 31.2125 10.2397Q31.3351 10.1742 31.4635 10.121Q31.5919 10.0678 31.7249 10.0275Q31.8579 9.98711 31.9942 9.96Q32.1305 9.93288 32.2688 9.91926Q32.4072 9.90563 32.5462 9.90563Z"/></g><g id="Group-2-Copy-2" transform="translate(29.716965 137.26418)"><path id="Rectangle-2" fill="#917676" fill-rule="evenodd" stroke="none" d="M1.999 0L20.6425 0Q20.7407 0 20.8384 0.00962573Q20.9362 0.0192515 21.0325 0.0384102Q21.1288 0.057569 21.2228 0.0860763Q21.3168 0.114584 21.4075 0.152165Q21.4982 0.189746 21.5848 0.236039Q21.6714 0.282333 21.7531 0.336892Q21.8348 0.391452 21.9107 0.453752Q21.9866 0.516052 22.056 0.585494Q22.1255 0.654935 22.1878 0.730848Q22.2501 0.806761 22.3046 0.888415Q22.3592 0.970069 22.4055 1.05668Q22.4518 1.14329 22.4893 1.23402Q22.5269 1.32474 22.5554 1.41872Q22.5839 1.5127 22.6031 1.60901Q22.6223 1.70533 22.6319 1.80306Q22.6415 1.9008 22.6415 1.999L22.6415 17.8123Q22.6415 17.9105 22.6319 18.0083Q22.6223 18.106 22.6031 18.2023Q22.5839 18.2986 22.5554 18.3926Q22.5269 18.4866 22.4893 18.5773Q22.4518 18.668 22.4055 18.7546Q22.3592 18.8413 22.3046 18.9229Q22.2501 19.0046 22.1878 19.0805Q22.1255 19.1564 22.056 19.2258Q21.9866 19.2953 21.9107 19.3576Q21.8348 19.4199 21.7531 19.4744Q21.6714 19.529 21.5848 19.5753Q21.4982 19.6216 21.4075 19.6592Q21.3168 19.6967 21.2228 19.7252Q21.1288 19.7538 21.0325 19.7729Q20.9362 19.7921 20.8384 19.8017Q20.7407 19.8113 20.6425 19.8113L1.999 19.8113Q1.9008 19.8113 1.80306 19.8017Q1.70533 19.7921 1.60901 19.7729Q1.5127 19.7538 1.41872 19.7252Q1.32474 19.6967 1.23402 19.6592Q1.14329 19.6216 1.05668 19.5753Q0.970069 19.529 0.888415 19.4744Q0.806761 19.4199 0.730848 19.3576Q0.654935 19.2953 0.585494 19.2258Q0.516052 19.1564 0.453752 19.0805Q0.391452 19.0046 0.336892 18.9229Q0.282333 18.8413 0.236039 18.7546Q0.189746 18.668 0.152165 18.5773Q0.114584 18.4866 0.0860763 18.3926Q0.057569 18.2986 0.0384102 18.2023Q0.0192515 18.106 0.00962573 18.0083Q0 17.9105 0 17.8123L0 1.999Q0 1.9008 0.00962573 1.80306Q0.0192515 1.70533 0.0384102 1.60901Q0.057569 1.5127 0.0860763 1.41872Q0.114584 1.32474 0.152165 1.23402Q0.189746 1.14329 0.236039 1.05668Q0.282333 0.970069 0.336892 0.888415Q0.391452 0.806761 0.453752 0.730848Q0.516052 0.654935 0.585494 0.585494Q0.654935 0.516052 0.730848 0.453752Q0.806761 0.391452 0.888415 0.336892Q0.970069 0.282333 1.05668 0.236039Q1.14329 0.189746 1.23402 0.152165Q1.32474 0.114584 1.41872 0.0860763Q1.5127 0.057569 1.60901 0.0384102Q1.70533 0.0192515 1.80306 0.00962573Q1.9008 0 1.999 0Z"/><path id="Rectangle-3" fill="#917676" fill-rule="evenodd" stroke="none" d="M32.5462 0L107.548 0Q107.687 0 107.825 0.0136233Q107.964 0.0272466 108.1 0.0543621Q108.236 0.0814775 108.369 0.121824Q108.502 0.16217 108.631 0.215359Q108.759 0.268548 108.882 0.334067Q109.004 0.399586 109.12 0.476804Q109.236 0.554023 109.343 0.642196Q109.45 0.73037 109.549 0.82865Q109.647 0.92693 109.735 1.03437Q109.823 1.14181 109.901 1.25738Q109.978 1.37294 110.043 1.49552Q110.109 1.6181 110.162 1.74651Q110.215 1.87491 110.256 2.00792Q110.296 2.14092 110.323 2.27724Q110.35 2.41356 110.364 2.55188Q110.377 2.6902 110.377 2.82919L110.377 2.83119Q110.377 2.97018 110.364 3.1085Q110.35 3.24682 110.323 3.38314Q110.296 3.51945 110.256 3.65246Q110.215 3.78546 110.162 3.91387Q110.109 4.04228 110.043 4.16486Q109.978 4.28744 109.901 4.403Q109.823 4.51857 109.735 4.62601Q109.647 4.73345 109.549 4.83173Q109.45 4.93001 109.343 5.01818Q109.236 5.10636 109.12 5.18357Q109.004 5.26079 108.882 5.32631Q108.759 5.39183 108.631 5.44502Q108.502 5.49821 108.369 5.53855Q108.236 5.5789 108.1 5.60602Q107.964 5.63313 107.825 5.64676Q107.687 5.66038 107.548 5.66038L32.5462 5.66038Q32.4072 5.66038 32.2688 5.64676Q32.1305 5.63313 31.9942 5.60602Q31.8579 5.5789 31.7249 5.53855Q31.5919 5.49821 31.4635 5.44502Q31.3351 5.39183 31.2125 5.32631Q31.0899 5.26079 30.9743 5.18357Q30.8588 5.10636 30.7513 5.01818Q30.6439 4.93001 30.5456 4.83173Q30.4473 4.73345 30.3592 4.62601Q30.271 4.51857 30.1938 4.403Q30.1166 4.28744 30.051 4.16486Q29.9855 4.04228 29.9323 3.91387Q29.8791 3.78546 29.8388 3.65246Q29.7984 3.51945 29.7713 3.38314Q29.7442 3.24682 29.7306 3.1085Q29.717 2.97018 29.717 2.83119L29.717 2.82919Q29.717 2.6902 29.7306 2.55188Q29.7442 2.41356 29.7713 2.27724Q29.7984 2.14092 29.8388 2.00792Q29.8791 1.87491 29.9323 1.74651Q29.9855 1.6181 30.051 1.49552Q30.1166 1.37294 30.1938 1.25738Q30.271 1.14181 30.3592 1.03437Q30.4473 0.92693 30.5456 0.82865Q30.6439 0.73037 30.7513 0.642196Q30.8588 0.554023 30.9743 0.476804Q31.0899 0.399586 31.2125 0.334067Q31.3351 0.268548 31.4635 0.215359Q31.5919 0.16217 31.7249 0.121824Q31.8579 0.0814775 31.9942 0.0543621Q32.1305 0.0272466 32.2688 0.0136233Q32.4072 0 32.5462 0Z"/><path id="Rectangle-3-Copy" fill="#917676" fill-rule="evenodd" stroke="none" d="M32.5462 9.90563L107.548 9.90563Q107.687 9.90563 107.825 9.91926Q107.964 9.93288 108.1 9.96Q108.236 9.98711 108.369 10.0275Q108.502 10.0678 108.631 10.121Q108.759 10.1742 108.882 10.2397Q109.004 10.3052 109.12 10.3824Q109.236 10.4597 109.343 10.5478Q109.45 10.636 109.549 10.7343Q109.647 10.8326 109.735 10.94Q109.823 11.0474 109.901 11.163Q109.978 11.2786 110.043 11.4012Q110.109 11.5237 110.162 11.6521Q110.215 11.7805 110.256 11.9136Q110.296 12.0466 110.323 12.1829Q110.35 12.3192 110.364 12.4575Q110.377 12.5958 110.377 12.7348L110.377 12.7368Q110.377 12.8758 110.364 13.0141Q110.35 13.1524 110.323 13.2888Q110.296 13.4251 110.256 13.5581Q110.215 13.6911 110.162 13.8195Q110.109 13.9479 110.043 14.0705Q109.978 14.1931 109.901 14.3086Q109.823 14.4242 109.735 14.5316Q109.647 14.6391 109.549 14.7374Q109.45 14.8356 109.343 14.9238Q109.236 15.012 109.12 15.0892Q109.004 15.1664 108.882 15.2319Q108.759 15.2975 108.631 15.3506Q108.502 15.4038 108.369 15.4442Q108.236 15.4845 108.1 15.5116Q107.964 15.5388 107.825 15.5524Q107.687 15.566 107.548 15.566L32.5462 15.566Q32.4072 15.566 32.2688 15.5524Q32.1305 15.5388 31.9942 15.5116Q31.8579 15.4845 31.7249 15.4442Q31.5919 15.4038 31.4635 15.3506Q31.3351 15.2975 31.2125 15.2319Q31.0899 15.1664 30.9743 15.0892Q30.8588 15.012 30.7513 14.9238Q30.6439 14.8356 30.5456 14.7374Q30.4473 14.6391 30.3592 14.5316Q30.271 14.4242 30.1938 14.3086Q30.1166 14.1931 30.051 14.0705Q29.9855 13.9479 29.9323 13.8195Q29.8791 13.6911 29.8388 13.5581Q29.7984 13.4251 29.7713 13.2888Q29.7442 13.1524 29.7306 13.0141Q29.717 12.8758 29.717 12.7368L29.717 12.7348Q29.717 12.5958 29.7306 12.4575Q29.7442 12.3192 29.7713 12.1829Q29.7984 12.0466 29.8388 11.9136Q29.8791 11.7805 29.9323 11.6521Q29.9855 11.5237 30.051 11.4012Q30.1166 11.2786 30.1938 11.163Q30.271 11.0474 30.3592 10.94Q30.4473 10.8326 30.5456 10.7343Q30.6439 10.636 30.7513 10.5478Q30.8588 10.4597 30.9743 10.3824Q31.0899 10.3052 31.2125 10.2397Q31.3351 10.1742 31.4635 10.121Q31.5919 10.0678 31.7249 10.0275Q31.8579 9.98711 31.9942 9.96Q32.1305 9.93288 32.2688 9.91926Q32.4072 9.90563 32.5462 9.90563Z"/></g><g id="Group-2-Copy-3" transform="translate(29.716965 169.81136)"><path id="Rectangle-2" fill="#917676" fill-rule="evenodd" stroke="none" d="M1.999 0L20.6425 0Q20.7407 0 20.8384 0.00962573Q20.9362 0.0192515 21.0325 0.0384102Q21.1288 0.057569 21.2228 0.0860763Q21.3168 0.114584 21.4075 0.152165Q21.4982 0.189746 21.5848 0.236039Q21.6714 0.282333 21.7531 0.336892Q21.8348 0.391452 21.9107 0.453752Q21.9866 0.516052 22.056 0.585494Q22.1255 0.654935 22.1878 0.730848Q22.2501 0.806761 22.3046 0.888415Q22.3592 0.970069 22.4055 1.05668Q22.4518 1.14329 22.4893 1.23402Q22.5269 1.32474 22.5554 1.41872Q22.5839 1.5127 22.6031 1.60901Q22.6223 1.70533 22.6319 1.80306Q22.6415 1.9008 22.6415 1.999L22.6415 17.8123Q22.6415 17.9105 22.6319 18.0083Q22.6223 18.106 22.6031 18.2023Q22.5839 18.2986 22.5554 18.3926Q22.5269 18.4866 22.4893 18.5773Q22.4518 18.668 22.4055 18.7546Q22.3592 18.8413 22.3046 18.9229Q22.2501 19.0046 22.1878 19.0805Q22.1255 19.1564 22.056 19.2258Q21.9866 19.2953 21.9107 19.3576Q21.8348 19.4199 21.7531 19.4744Q21.6714 19.529 21.5848 19.5753Q21.4982 19.6216 21.4075 19.6592Q21.3168 19.6967 21.2228 19.7252Q21.1288 19.7538 21.0325 19.7729Q20.9362 19.7921 20.8384 19.8017Q20.7407 19.8113 20.6425 19.8113L1.999 19.8113Q1.9008 19.8113 1.80306 19.8017Q1.70533 19.7921 1.60901 19.7729Q1.5127 19.7538 1.41872 19.7252Q1.32474 19.6967 1.23402 19.6592Q1.14329 19.6216 1.05668 19.5753Q0.970069 19.529 0.888415 19.4744Q0.806761 19.4199 0.730848 19.3576Q0.654935 19.2953 0.585494 19.2258Q0.516052 19.1564 0.453752 19.0805Q0.391452 19.0046 0.336892 18.9229Q0.282333 18.8413 0.236039 18.7546Q0.189746 18.668 0.152165 18.5773Q0.114584 18.4866 0.0860763 18.3926Q0.057569 18.2986 0.0384102 18.2023Q0.0192515 18.106 0.00962573 18.0083Q0 17.9105 0 17.8123L0 1.999Q0 1.9008 0.00962573 1.80306Q0.0192515 1.70533 0.0384102 1.60901Q0.057569 1.5127 0.0860763 1.41872Q0.114584 1.32474 0.152165 1.23402Q0.189746 1.14329 0.236039 1.05668Q0.282333 0.970069 0.336892 0.888415Q0.391452 0.806761 0.453752 0.730848Q0.516052 0.654935 0.585494 0.585494Q0.654935 0.516052 0.730848 0.453752Q0.806761 0.391452 0.888415 0.336892Q0.970069 0.282333 1.05668 0.236039Q1.14329 0.189746 1.23402 0.152165Q1.32474 0.114584 1.41872 0.0860763Q1.5127 0.057569 1.60901 0.0384102Q1.70533 0.0192515 1.80306 0.00962573Q1.9008 0 1.999 0Z"/><path id="Rectangle-3" fill="#917676" fill-rule="evenodd" stroke="none" d="M32.5462 0L107.548 0Q107.687 0 107.825 0.0136233Q107.964 0.0272466 108.1 0.0543621Q108.236 0.0814775 108.369 0.121824Q108.502 0.16217 108.631 0.215359Q108.759 0.268548 108.882 0.334067Q109.004 0.399586 109.12 0.476804Q109.236 0.554023 109.343 0.642196Q109.45 0.73037 109.549 0.82865Q109.647 0.92693 109.735 1.03437Q109.823 1.14181 109.901 1.25738Q109.978 1.37294 110.043 1.49552Q110.109 1.6181 110.162 1.74651Q110.215 1.87491 110.256 2.00792Q110.296 2.14092 110.323 2.27724Q110.35 2.41356 110.364 2.55188Q110.377 2.6902 110.377 2.82919L110.377 2.83119Q110.377 2.97018 110.364 3.1085Q110.35 3.24682 110.323 3.38314Q110.296 3.51945 110.256 3.65246Q110.215 3.78546 110.162 3.91387Q110.109 4.04228 110.043 4.16486Q109.978 4.28744 109.901 4.403Q109.823 4.51857 109.735 4.62601Q109.647 4.73345 109.549 4.83173Q109.45 4.93001 109.343 5.01818Q109.236 5.10636 109.12 5.18357Q109.004 5.26079 108.882 5.32631Q108.759 5.39183 108.631 5.44502Q108.502 5.49821 108.369 5.53855Q108.236 5.5789 108.1 5.60602Q107.964 5.63313 107.825 5.64676Q107.687 5.66038 107.548 5.66038L32.5462 5.66038Q32.4072 5.66038 32.2688 5.64676Q32.1305 5.63313 31.9942 5.60602Q31.8579 5.5789 31.7249 5.53855Q31.5919 5.49821 31.4635 5.44502Q31.3351 5.39183 31.2125 5.32631Q31.0899 5.26079 30.9743 5.18357Q30.8588 5.10636 30.7513 5.01818Q30.6439 4.93001 30.5456 4.83173Q30.4473 4.73345 30.3592 4.62601Q30.271 4.51857 30.1938 4.403Q30.1166 4.28744 30.051 4.16486Q29.9855 4.04228 29.9323 3.91387Q29.8791 3.78546 29.8388 3.65246Q29.7984 3.51945 29.7713 3.38314Q29.7442 3.24682 29.7306 3.1085Q29.717 2.97018 29.717 2.83119L29.717 2.82919Q29.717 2.6902 29.7306 2.55188Q29.7442 2.41356 29.7713 2.27724Q29.7984 2.14092 29.8388 2.00792Q29.8791 1.87491 29.9323 1.74651Q29.9855 1.6181 30.051 1.49552Q30.1166 1.37294 30.1938 1.25738Q30.271 1.14181 30.3592 1.03437Q30.4473 0.92693 30.5456 0.82865Q30.6439 0.73037 30.7513 0.642196Q30.8588 0.554023 30.9743 0.476804Q31.0899 0.399586 31.2125 0.334067Q31.3351 0.268548 31.4635 0.215359Q31.5919 0.16217 31.7249 0.121824Q31.8579 0.0814775 31.9942 0.0543621Q32.1305 0.0272466 32.2688 0.0136233Q32.4072 0 32.5462 0Z"/><path id="Rectangle-3-Copy" fill="#917676" fill-rule="evenodd" stroke="none" d="M32.5462 9.90563L107.548 9.90563Q107.687 9.90563 107.825 9.91926Q107.964 9.93288 108.1 9.96Q108.236 9.98711 108.369 10.0275Q108.502 10.0678 108.631 10.121Q108.759 10.1742 108.882 10.2397Q109.004 10.3052 109.12 10.3824Q109.236 10.4597 109.343 10.5478Q109.45 10.636 109.549 10.7343Q109.647 10.8326 109.735 10.94Q109.823 11.0474 109.901 11.163Q109.978 11.2786 110.043 11.4012Q110.109 11.5237 110.162 11.6521Q110.215 11.7805 110.256 11.9136Q110.296 12.0466 110.323 12.1829Q110.35 12.3192 110.364 12.4575Q110.377 12.5958 110.377 12.7348L110.377 12.7368Q110.377 12.8758 110.364 13.0141Q110.35 13.1524 110.323 13.2888Q110.296 13.4251 110.256 13.5581Q110.215 13.6911 110.162 13.8195Q110.109 13.9479 110.043 14.0705Q109.978 14.1931 109.901 14.3086Q109.823 14.4242 109.735 14.5316Q109.647 14.6391 109.549 14.7374Q109.45 14.8356 109.343 14.9238Q109.236 15.012 109.12 15.0892Q109.004 15.1664 108.882 15.2319Q108.759 15.2975 108.631 15.3506Q108.502 15.4038 108.369 15.4442Q108.236 15.4845 108.1 15.5116Q107.964 15.5388 107.825 15.5524Q107.687 15.566 107.548 15.566L32.5462 15.566Q32.4072 15.566 32.2688 15.5524Q32.1305 15.5388 31.9942 15.5116Q31.8579 15.4845 31.7249 15.4442Q31.5919 15.4038 31.4635 15.3506Q31.3351 15.2975 31.2125 15.2319Q31.0899 15.1664 30.9743 15.0892Q30.8588 15.012 30.7513 14.9238Q30.6439 14.8356 30.5456 14.7374Q30.4473 14.6391 30.3592 14.5316Q30.271 14.4242 30.1938 14.3086Q30.1166 14.1931 30.051 14.0705Q29.9855 13.9479 29.9323 13.8195Q29.8791 13.6911 29.8388 13.5581Q29.7984 13.4251 29.7713 13.2888Q29.7442 13.1524 29.7306 13.0141Q29.717 12.8758 29.717 12.7368L29.717 12.7348Q29.717 12.5958 29.7306 12.4575Q29.7442 12.3192 29.7713 12.1829Q29.7984 12.0466 29.8388 11.9136Q29.8791 11.7805 29.9323 11.6521Q29.9855 11.5237 30.051 11.4012Q30.1166 11.2786 30.1938 11.163Q30.271 11.0474 30.3592 10.94Q30.4473 10.8326 30.5456 10.7343Q30.6439 10.636 30.7513 10.5478Q30.8588 10.4597 30.9743 10.3824Q31.0899 10.3052 31.2125 10.2397Q31.3351 10.1742 31.4635 10.121Q31.5919 10.0678 31.7249 10.0275Q31.8579 9.98711 31.9942 9.96Q32.1305 9.93288 32.2688 9.91926Q32.4072 9.90563 32.5462 9.90563Z"/></g></g><g id="Group-5" artboard="3598960c-cbef-4a33-ae82-0f3c95fcc1f3" transform="translate(221.67355 212.1)"><g id="Group"><path id="Oval" fill="#B4053E" fill-rule="evenodd" stroke="none" d="M0 15.1132C0 6.76642 6.76642 0 15.1132 0C23.46 0 30.2264 6.76642 30.2264 15.1132C30.2264 23.46 23.46 30.2264 15.1132 30.2264C6.76642 30.2264 0 23.46 0 15.1132Z"/></g><g id="Group-4" transform="translate(8.605493 9.039309)"><path id="Line" fill="none" fill-rule="evenodd" stroke="#FFF" stroke-linecap="round" stroke-linejoin="round" stroke-width="3" d="M0 0L13.0155 12.1478"/><path id="Line-Copy" fill="none" fill-rule="evenodd" stroke="#FFF" stroke-linecap="round" stroke-linejoin="round" stroke-width="3" d="M13.0155 0L3.33786e-05 12.1478"/></g></g></g></svg>