<svg xmlns="http://www.w3.org/2000/svg" width="1294.667" height="1245.333" version="1.0" viewBox="0 0 971 934"><path d="M656.5 60.9c-14.6.7-24.9 4-32.1 10.4-9.3 8.2-10.3 13-11.4 56-.4 18.6-1 34-1.2 34.3-.3.2-6.3-.9-13.4-2.6-55-12.5-116.7-9.7-169.9 7.6-17.4 5.7-27.7 9.9-47 19.4-52.1 25.6-80.4 44.9-112.5 77-18.6 18.5-30.4 32.7-42.4 50.8-30.4 46-49.9 102-54.5 156.5-6 70.6 10.4 141.3 46.8 202.6l5.9 9.9-51.2.5c-36.7.3-52.1.7-54.6 1.6-1.9.7-6.2 1.6-9.6 2.1-15.3 2-24.2 11.8-29.9 33-3.9 14.9-4.8 25.8-4.2 51.9.9 36.9 5 64.6 11.8 78.8 3.9 8.1 12.2 16.8 19.4 20.3 4 2 6.9 2.5 15.2 2.8 5.7.2 10.3.8 10.3 1.2 0 .5-1.4 8.7-3 18.4-2.1 12.4-2.7 18.2-2.1 19.9 1.2 3 5.7 6.7 8.3 6.7 6.5 0 36.8-21.1 56.4-39.4l7.2-6.6 50.8-.1c28 0 59.1-.4 69.1-.8 17.6-.7 18.3-.8 24.6-3.9 8-4 15.8-12 19.7-20.4 2.9-6.2 3-6.8 3.6-28.1.4-11.9 1.1-21.7 1.6-21.7s2.1.6 3.6 1.4c11.8 6 46.8 16.8 68.2 21 24.5 4.9 36.6 5.9 65.5 5.9 37.1 0 55.6-2.1 86.8-9.9 71-17.9 128.8-54.8 183-116.8 44.9-51.5 73.1-118 79.7-188.1 1.5-16.1 1.2-48.4-.5-65.3-7.1-68.3-35.6-133.5-80.1-183.5-4.4-4.9-9.6-10.9-11.8-13.3l-3.8-4.4H881.1l4.7-2.4c5.7-2.9 12.6-10.1 15.3-15.9 1.8-4 1.9-7.6 1.9-74.5V82.9l-2.4-4.7c-3-5.8-9.7-12.6-15.1-15.1-3.8-1.8-8.8-1.9-110.5-2.3-58.6-.3-111.9-.2-118.5.1zm224.2 22.4 2.8 2.7.3 66.3c.2 64.8.2 66.3-1.8 69.5-1.1 1.8-3.2 3.7-4.6 4.2-1.5.6-30.9 1-76.7 1-68.8 0-74.5.1-77.5 1.7-1.7 1-8.6 6.7-15.3 12.8-6.7 6-12.8 11.4-13.6 11.9-1.4.7-1.5-.1-.9-6.5.7-8.5-.4-14.3-3.2-17.2-1.8-1.8-3.9-2-22.1-2.6l-20.1-.6-2.7-2.8-2.8-2.7V85.8l3.3-2.9 3.3-2.9 114.4.2 114.5.3 2.7 2.8zm-333.2 88.4c2.1.7 24.2 45.1 33.8 67.6 11.6 27.3 30.2 82 32.3 94.8l.6 3.6-5.3.6c-31.6 3.7-43.5 4.2-94.4 4.2-34.5 0-56.9-.4-66.5-1.3-19.1-1.7-48.8-5.1-52.1-6l-2.7-.7 3.8-11c8.5-24.9 23.7-58.6 37.9-84 14.8-26.3 41.1-64 45.6-65.1 10.2-2.6 62-4.7 67-2.7zm46.5 6.5c7.4 1.7 14.4 3.4 15.6 3.8 2 .8 2.1 1.8 2.8 18.6.5 14.6 1 18.5 2.7 22.5 2.9 6.6 10.8 13.8 20.1 18.2 8.8 4.2 16.6 5.7 29.6 5.7 8.2 0 9.2.2 9.2 1.8 0 1-1.1 8.6-2.5 17s-2.5 15.4-2.5 15.7c0 .2 1.4 2 3.1 4 4.5 5.1 8.2 4.8 15.6-1.2 10-8.1 24.5-20.4 33.4-28.5 4.8-4.3 9.2-7.8 9.9-7.8 2.9 0 34.7 34.4 44.8 48.4 3.1 4.3 3.2 4.5 1.3 5.5-2.8 1.5-44.1 13.3-61.1 17.5-29.9 7.2-79 16.3-81.2 15-.4-.3-1.2-2.4-1.8-4.7-3.6-13.8-14.3-47.2-21.1-65.3-9.3-25.2-18-45.4-30-70.3-4.9-10.1-8.9-18.8-8.9-19.3 0-1.1 3.4-.5 21 3.4zm-152.8 14c-18 26.9-36.9 61.1-48 87.3-4.6 10.9-17.4 44.1-19.7 51.1-.8 2.7-58.6-9.9-99.7-21.6-2.1-.6-3.8-1.5-3.8-2.1 0-3.1 20.4-27.5 35.9-43 35.7-35.5 77.7-61.7 124.2-77.2 13.4-4.5 17.1-5.5 17.7-5.1.2.1-2.8 4.9-6.6 10.6zm356.4 138.1c18.7 32.7 32.1 74.1 37 114.2 2.2 18.6 2.3 55.1.1 73.1-4.3 34.4-15.2 73.3-27.8 98.5l-2.8 5.6-12.8-3.8c-27.5-8.4-71.7-18.3-110.1-24.9-9.7-1.7-18.6-3.3-19.8-3.5l-2.1-.5.5-40.7c.7-64.7-3.6-112.6-15.4-171.2-2.5-12.3-4.4-22.5-4.2-22.7.2-.1 7.3-1.5 15.8-2.9 42.1-7.1 101.2-21.4 126-30.4 3-1.1 6.4-1.9 7.5-1.8 1.4.1 3.8 3.4 8.1 11zm-526.8-1.8c18.3 5.4 46.6 12.2 72 17.5 12.8 2.6 23.6 5.1 23.9 5.4.3.3-.8 6.5-2.6 13.8-11.1 46.6-14.6 76.5-14.6 124.8 0 38.4 1.3 54.3 7.8 94.8l1.4 8.2-3.6.9c-2 .5-11 2.3-20.1 4-17.7 3.4-61.9 14.1-79 19-5.7 1.7-10.8 2.7-11.2 2.3-.4-.4-2.8-5.7-5.4-11.7-16.6-38.8-24.5-73.9-26-115.5-1.6-41.1 5.7-81.6 21.8-122.5 6.6-16.7 21-44.5 23-44.5.5 0 6.1 1.6 12.6 3.5zm145.7 29c33.1 3.8 52.9 4.7 99.5 4.8 42.5.1 50.8-.3 87.3-3.9 8.7-.9 16.1-1.3 16.4-1 1.8 1.7 9.8 43.2 13.8 70.6 5.6 39.3 8 80.9 7.2 122-.4 15.7-1 30.2-1.3 32.4l-.7 3.9-8.1-.6c-4.5-.4-15.3-1.3-24.1-2.1-65.2-6.1-140.5-4.6-208.4 4-10.7 1.3-19.6 2.3-19.8 2-.6-.6-4-20.4-6.4-38.1-3-21.8-3.9-83.9-1.5-107.5 2.7-26.8 8.9-61.2 15.6-85.9l1.1-4.3 4.2.6c2.3.4 13.7 1.8 25.2 3.1zm171 244c21.3 1.6 38.3 3.2 45.3 4.1 4.1.6 4.2.7 4.2 4.4 0 5-3.3 30.4-6.4 49.5-5.5 33.1-13.8 68-23.6 99.5-8.6 27.2-7.5 25.4-16.2 27.3-22.6 4.9-35.2 6.1-66.8 6.1-24 0-33.1-.4-42.5-1.7-17.2-2.6-19.2-3.2-21.1-6.9-.9-1.7-5.1-8.6-9.4-15.2-25.4-39.7-44.1-79.1-57.8-121.6-5.7-17.9-10.7-36.8-10-37.6 1.6-1.6 61.3-7.6 93.3-9.4 22.1-1.2 86.8-.4 111 1.5zm92.3 11c27.3 4.7 49.4 9.5 75.1 16 26.5 6.8 39.1 10.6 39.1 11.7 0 1.6-11.6 19.5-19.5 30-28 37.2-63 66.6-104.6 87.8-16.4 8.4-47.9 21-47.9 19.3 0-.3 2.2-8.1 5-17.2 13.4-44.9 21.8-84.5 27.5-129.4 1.4-10.9 2.5-20.2 2.5-20.7 0-1.4.4-1.4 22.8 2.5zm-316.4 2.2c.3 1 2.1 7.6 4.1 14.8 13.6 48.6 32.5 92.8 57.7 134.9 4.9 8.1 8.7 15 8.4 15.3-1.5 1.5-34.9-11.7-53.8-21.4l-12.8-6.4-.1-11.7c-.1-26.7-2.2-34.1-12.6-44.5-10.8-10.8-18.3-12.7-50.8-12.7h-18l-9.1-12.3c-11.8-15.7-21.8-31.7-20.7-32.8 1.5-1.5 35.7-10.4 61.9-16.2 42.6-9.4 44.9-9.8 45.8-7zm-26.6 91.6c2.3 1.5 5.4 4.6 6.9 6.9l2.8 4.2.3 58.5c.2 40.9 0 59.8-.8 62.4-.6 2.1-2.7 5.6-4.7 7.8-7.1 7.9-1.6 7.3-80 7.9l-70.2.5-2.8 2.6c-1.5 1.4-6.6 6-11.3 10.4-9.4 8.7-26 21.8-26.7 21.1-.3-.2 0-3.7.6-7.8 1.4-8.9 1.7-18.5.7-21.6-1.2-3.5-4.3-4.5-16.3-5.3-9.6-.6-11.9-1.1-15.8-3.3-2.5-1.5-5.8-4.6-7.3-6.8l-2.7-4.2-.3-60.3c-.2-58.4-.2-60.4 1.7-64.2 2.2-4.3 7-8.7 11.6-10.7 2.4-1.1 22.6-1.3 106.6-1.1l103.5.2 4.2 2.8z"/><path d="M758.3 88c-3.4 1.4-5.7 5.8-9.3 17.9l-3.3 10.8-20.5.7c-11.3.4-21.3 1.1-22.3 1.6-1.8 1-4.9 6.9-4.9 9.4 0 .8 1.4 3.1 3.1 5.1l3.1 3.5h16.4c11.4 0 16.4.3 16.4 1.1 0 .6-2.2 6.1-4.8 12.3-6.9 15.8-7 16-2.9 20.1 2.4 2.4 5.4 4 11 5.6 4.2 1.2 7.7 2.5 7.7 3 0 1.3-14.4 5.9-21.8 6.9-4.1.6-8.2 1.5-9.2 2-5.3 2.8-6.6 10.1-2.6 14.7 2.3 2.7 2.8 2.8 10.3 2.6 12.8-.3 31.8-6.9 42.2-14.7 1.9-1.4 4-2.6 4.5-2.6.6 0 7.1 3.6 14.5 7.9 7.3 4.4 14.4 8.2 15.6 8.5 4.9 1.2 9.4-2.4 10.9-8.6.9-4-4.1-9-16.1-16.2-5.4-3.3-10-6.1-10.2-6.3-.2-.1.7-2 2.1-4.1 4.3-6.4 7.8-13.9 10.7-23l2.9-8.7 7.1-.6c8.4-.6 11-2.5 11.8-8.6.4-3.2.1-4.5-2-6.9-2.4-2.7-3.2-2.9-11.9-3.6-5.1-.3-16.4-.7-25-.7-8.7-.1-15.8-.4-15.8-.9 0-.4 1.1-4.2 2.5-8.5s2.5-9.3 2.5-11.2c0-6.3-6.9-11-12.7-8.5zm22.3 51.7c-.9 4-8.2 18.3-11 21.7l-2.4 2.9-8.1-2.9c-4.5-1.6-8.1-3.2-8.1-3.6 0-.4 1.4-4.2 3.1-8.5 1.7-4.3 3.5-8.8 4-10.1.8-2.1 1.4-2.2 12-2.2h11.1l-.6 2.7zM216.3 733.2c-1.7 1.8-11.7 15.4-22.4 30.3-33.7 47-33.9 47.3-33.9 51.4 0 6.1 4.8 9.7 11.6 8.9 2.9-.3 6.5-4.1 15.5-16.9l4.5-6.4 23.7.3 23.7.3 5.4 11.3c5.5 11.7 8.1 14.6 12.7 14.6 3.4 0 8.5-4.1 9.3-7.5.7-2.8-1.9-9.5-17.7-46.5-18.6-43.3-18.4-43-25.7-43-2.8 0-4.3.8-6.7 3.2zm9.6 36.7c2.2 5.5 4.1 10.2 4.1 10.5 0 .3-5.4.6-12.1.6h-12l2.2-3.3c4.9-7 12.9-17.7 13.3-17.7.2 0 2.2 4.5 4.5 9.9zM309.1 145.3c-1.3.6-3.3 2.4-4.4 3.9-2 2.7-2 2.9-.3 16 3 22.7 4.2 28 7.1 30.5 6 5.3 15.5.7 15.5-7.4 0-7.4-4.9-37.5-6.5-40-1.5-2.3-5.2-4.3-7.8-4.3-.7 0-2.3.6-3.6 1.3zM251.4 150c-1.2.5-2.9 1.9-3.8 3.2-3 4.3-2 8.3 6 23.7 13.4 25.5 21.4 39.5 24 41.8 4.4 4 11.2 2.4 13.9-3.3 1.5-3.2 1.4-3.6-1.1-9.6-2.7-6.6-10.4-21.5-21.1-41-8.2-14.9-11.3-17.5-17.9-14.8zM215.2 212.5c-4.3 1.9-6.6 7-5.1 11.5.7 1.9 6.1 7.7 14.6 15.5 11.8 10.9 14 12.5 16.9 12.5 1.9 0 4.6-.7 5.9-1.6 2.7-1.8 4.9-7.4 4.1-10.2-.7-2.1-22.7-24-26.6-26.4-4-2.5-6.3-2.8-9.8-1.3z"/></svg>