<svg xmlns="http://www.w3.org/2000/svg" width="112" height="24" fill="none" viewBox="0 0 112 24"><path fill="#000" d="M20.207 5.87755C20.4045 5.87755 20.6442 6.0068 20.9263 6.26531C21.2225 6.5102 21.3706 6.72109 21.3706 6.89796C21.3706 7.72789 21.3424 8.86395 21.286 10.3061C21.2719 10.6599 21.2578 11.0884 21.2437 11.5918C21.2296 12.0816 21.2225 12.6531 21.2225 13.3061C21.2225 15.3741 21.3494 16.898 21.6033 17.8776C21.5892 18.2041 21.4552 18.4422 21.2014 18.5918C20.9475 18.7279 20.6936 18.7959 20.4397 18.7959C19.8756 18.7959 19.5018 18.6054 19.3185 18.2245C19.1492 17.8435 19.0646 17.2993 19.0646 16.5918C19.0646 13.966 19.0928 11.551 19.1492 9.34694C17.5273 11.0884 16.265 12.551 15.3623 13.7347C15.3623 13.7347 15.2354 13.8163 14.9815 13.9796C14.7417 14.1837 14.5443 14.2857 14.3891 14.2857C14.0224 14.2857 13.7192 14.1973 13.4794 14.0204C13.2396 13.8435 13.0069 13.585 12.7813 13.2449L11.7658 11.8571C11.0606 10.9048 10.5458 10.1837 10.2214 9.69388C10.2214 10.9456 10.2849 12.6463 10.4118 14.7959C10.5105 16.034 10.5599 16.966 10.5599 17.5918C10.5599 17.9184 10.4753 18.1973 10.306 18.4286C10.1368 18.6463 9.86878 18.7551 9.50208 18.7551C9.13537 18.7551 8.83214 18.6871 8.59237 18.551C8.3667 18.415 8.24682 18.2109 8.23272 17.9388C8.24682 17.7075 8.25387 17.3265 8.25387 16.7959C8.25387 15.7347 8.21861 14.4422 8.14809 12.9184L8.10578 11.8163L8.06347 10.3878C8.04936 9.96599 8.03526 9.47619 8.02116 8.91837C8.00705 8.34694 8 7.72789 8 7.06122C8 6.2449 8.45838 5.83674 9.37514 5.83674C9.65722 5.83674 9.9393 5.90476 10.2214 6.04082C10.5176 6.17687 10.7362 6.37415 10.8772 6.63265C10.9901 7.10884 11.4061 7.89796 12.1254 9C12.8447 10.102 13.5499 11.1361 14.241 12.102C14.8616 11.3401 15.3693 10.7687 15.7643 10.3878C16.4413 9.72109 16.9984 9.10204 17.4356 8.53061C17.8869 7.95918 18.3735 7.27211 18.8953 6.46939C19.0223 6.30612 19.2056 6.17007 19.4454 6.06122C19.6852 5.93878 19.939 5.87755 20.207 5.87755Z"/><path fill="#000" d="M33.8555 17.7959C33.8555 18.0952 33.6862 18.3469 33.3477 18.551C33.0233 18.7551 32.7201 18.8571 32.438 18.8571C31.9021 18.8571 31.4719 18.7959 31.1475 18.6735C30.8372 18.5374 30.5481 18.2925 30.2801 17.9388C29.9134 18.2517 29.4127 18.4898 28.778 18.6531C28.1433 18.8027 27.558 18.8776 27.0221 18.8776C26.1476 18.8776 25.4283 18.6531 24.8642 18.2041C24.3 17.7415 24.0179 17.068 24.0179 16.1837C24.0179 15.8027 24.1237 15.4558 24.3353 15.1429C24.5468 14.8163 24.8359 14.5306 25.2027 14.2857C25.6117 14.0272 26.0771 13.8299 26.5989 13.6939C27.1208 13.5442 27.6638 13.4694 28.228 13.4694C28.5241 13.4694 28.8767 13.5238 29.2858 13.6327C29.6948 13.7415 30.0121 13.8571 30.2378 13.9796V13.6531C30.2378 12.9184 30.0544 12.415 29.6877 12.1429C29.321 11.8571 28.7287 11.7143 27.9106 11.7143C27.6709 11.7143 27.4311 11.7619 27.1913 11.8571C26.9657 11.9524 26.7047 12.0816 26.4085 12.2449C26.0136 12.449 25.6399 12.551 25.2873 12.551C25.1603 12.551 25.0405 12.4694 24.9276 12.3061C24.8148 12.1293 24.7584 11.9728 24.7584 11.8367C24.7584 11.4422 24.9488 11.102 25.3296 10.8163C25.7245 10.5306 26.1899 10.3197 26.7259 10.1837C27.2618 10.034 27.7414 9.95918 28.1645 9.95918C28.5876 9.95918 29.0742 10.0408 29.6243 10.2041C30.1743 10.3537 30.6256 10.5646 30.9782 10.8367C31.4014 11.1905 31.7258 11.6054 31.9514 12.0816C32.1912 12.5442 32.3111 13.0544 32.3111 13.6122C32.3111 13.7891 32.297 14.0544 32.2688 14.4082C32.2406 14.7891 32.2265 15.1156 32.2265 15.3878C32.2265 15.5102 32.2123 15.6939 32.1841 15.9388C32.1559 16.2381 32.1418 16.4762 32.1418 16.6531C32.1418 16.8163 32.2053 16.9592 32.3322 17.0816C32.4592 17.1905 32.6073 17.2449 32.7765 17.2449L33.3689 17.2245C33.524 17.2245 33.6439 17.2789 33.7285 17.3878C33.8131 17.4966 33.8555 17.6327 33.8555 17.7959ZM27.0432 17.2653C27.6497 17.2653 28.1574 17.2041 28.5665 17.0816C28.9755 16.9592 29.4691 16.7347 30.0474 16.4082C30.1038 16.1769 30.1391 15.8707 30.1532 15.4898C29.3774 15.1361 28.7357 14.9592 28.228 14.9592C27.6497 14.9592 27.1349 15.0612 26.6836 15.2653C26.2322 15.4694 26.0066 15.8299 26.0066 16.3469C26.0066 16.6054 26.1194 16.8231 26.3451 17C26.5707 17.1769 26.8035 17.2653 27.0432 17.2653Z"/><path fill="#000" d="M42.4127 9.77551C42.6948 9.77551 42.9134 9.84354 43.0686 9.97959C43.2378 10.102 43.3224 10.2585 43.3224 10.449C43.3224 10.585 43.2942 10.7279 43.2378 10.8776C43.1955 11.0136 43.1461 11.1565 43.0897 11.3061C42.7653 12.0408 42.0813 13.068 41.0376 14.3878C42.1095 15.7211 42.9769 16.5782 43.6398 16.9592C43.6962 16.9864 43.802 17.034 43.9571 17.102C44.1123 17.1701 44.2322 17.2517 44.3168 17.3469C44.4155 17.4422 44.4649 17.551 44.4649 17.6735C44.4649 17.9728 44.345 18.2177 44.1052 18.4082C43.8796 18.585 43.6045 18.6735 43.2801 18.6735C42.7301 18.6735 42.1307 18.381 41.4819 17.7959C40.8331 17.1973 40.283 16.5714 39.8317 15.9184C39.5073 16.3946 39.1336 16.8707 38.7104 17.3469C38.3014 17.8095 37.9206 18.2041 37.568 18.5306C37.427 18.6803 37.2577 18.7959 37.0603 18.8776C36.8769 18.9592 36.6936 19 36.5102 19C36.2563 19 36.0307 18.9456 35.8332 18.8367C35.6358 18.7279 35.537 18.5374 35.537 18.2653C35.537 18.1973 35.5864 18.0884 35.6851 17.9388C35.7839 17.7755 35.8403 17.6803 35.8544 17.6531C36.0236 17.3673 36.2493 17.0748 36.5314 16.7755C36.8134 16.4626 36.9897 16.2653 37.0603 16.1837C37.2295 15.9796 37.4129 15.7823 37.6103 15.5918C37.7232 15.4694 37.8924 15.2789 38.1181 15.0204C38.3437 14.7619 38.4989 14.5578 38.5835 14.4082L37.843 13.4286C37.4904 13.034 37.1872 12.7211 36.9333 12.4898C36.6795 12.2449 36.475 12.1224 36.3198 12.1224C36.0941 12.1224 35.8826 12.1837 35.6851 12.3061C35.5159 12.415 35.3466 12.4694 35.1774 12.4694C34.994 12.4694 34.853 12.4286 34.7543 12.3469C34.6555 12.2517 34.6062 12.1497 34.6062 12.0408C34.6062 11.5782 34.7966 11.1837 35.1774 10.8571C35.5582 10.517 36.0377 10.3469 36.616 10.3469C37.166 10.3469 37.6526 10.5306 38.0758 10.898C38.513 11.2517 38.9432 11.7279 39.3663 12.3265C39.4227 12.381 39.4862 12.4694 39.5567 12.5918C39.6272 12.7143 39.6977 12.8163 39.7682 12.898C39.9234 12.6803 40.2055 12.2585 40.6145 11.6327C41.0517 10.8844 41.3126 10.4558 41.3973 10.3469C41.6934 9.96599 42.0319 9.77551 42.4127 9.77551Z"/><path fill="#000" d="M53.776 18.8571C53.2965 18.8571 52.9298 18.7891 52.6759 18.6531C52.422 18.5034 52.147 18.2313 51.8508 17.8367C51.4841 18.1497 50.934 18.4014 50.2006 18.5918C49.4813 18.7823 48.8608 18.8776 48.3389 18.8776C47.4786 18.8776 46.7804 18.6531 46.2445 18.2041C45.7226 17.7415 45.4617 17.068 45.4617 16.1837C45.4617 15.8027 45.5675 15.4558 45.779 15.1429C46.0047 14.8163 46.2938 14.5306 46.6464 14.2857C47.0413 14.0272 47.5068 13.8231 48.0427 13.6735C48.5928 13.5238 49.0935 13.449 49.5448 13.449C50.3064 13.449 50.9834 13.517 51.5758 13.6531V13.6327C51.5758 12.898 51.3854 12.3946 51.0046 12.1224C50.6379 11.8367 50.0455 11.6939 49.2275 11.6939C48.7056 11.6939 48.2543 11.9184 47.8735 12.3673C47.7324 12.5442 47.4362 12.6327 46.9849 12.6327C46.7593 12.6327 46.59 12.5442 46.4772 12.3673C46.3784 12.1769 46.3291 11.9864 46.3291 11.7959C46.3291 11.4014 46.4983 11.0612 46.8368 10.7755C47.1894 10.4898 47.6125 10.2789 48.1062 10.1429C48.5998 9.9932 49.0582 9.91837 49.4813 9.91837C49.8903 9.91837 50.3769 10 50.9411 10.1633C51.5053 10.3265 51.9636 10.5442 52.3162 10.8163C52.7394 11.1701 53.0637 11.585 53.2894 12.0612C53.5292 12.5238 53.6491 13.034 53.6491 13.5918C53.6491 13.7687 53.635 14.034 53.6068 14.3878C53.5785 14.7959 53.5644 15.1293 53.5644 15.3878C53.5644 15.5102 53.5503 15.6667 53.5221 15.8571C53.4939 16.102 53.4798 16.3061 53.4798 16.4694C53.4798 16.6463 53.5362 16.8163 53.6491 16.9796C53.7619 17.1429 53.917 17.2789 54.1145 17.3878C54.2978 17.483 54.4177 17.585 54.4741 17.6939C54.5306 17.8027 54.5588 17.9252 54.5588 18.0612C54.5588 18.1973 54.4671 18.3673 54.2837 18.5714C54.1145 18.7619 53.9452 18.8571 53.776 18.8571ZM49.5448 14.9592C48.9947 14.9592 48.5082 15.0612 48.085 15.2653C47.6619 15.4694 47.4503 15.8299 47.4503 16.3469C47.4503 16.6054 47.542 16.8231 47.7254 17C47.9228 17.1769 48.1344 17.2653 48.3601 17.2653C48.9665 17.2653 49.4743 17.2041 49.8833 17.0816C50.2923 16.9592 50.7859 16.7347 51.3642 16.4082C51.4347 16.1905 51.477 15.8844 51.4911 15.4898C51.4911 15.3401 51.4982 15.2245 51.5123 15.1429C50.7507 15.0204 50.0949 14.9592 49.5448 14.9592Z"/><path fill="#000" d="M56.6572 15.102C56.6572 14.3401 56.6642 13.7619 56.6783 13.3673L56.6995 11.4286C56.6995 10.6395 56.6783 9.77551 56.636 8.83674C56.6219 8.55102 56.5726 8.15646 56.4879 7.65306C56.3751 6.89116 56.3187 6.31973 56.3187 5.93878C56.3187 5.31293 56.6431 5 57.2919 5C57.7009 5 57.99 5.10884 58.1593 5.32653C58.3426 5.53061 58.4696 5.85714 58.5401 6.30612C58.6811 7.2449 58.7516 8.34694 58.7516 9.61225C58.7516 9.9932 58.7375 10.5646 58.7093 11.3265C58.9773 10.9184 59.3228 10.5986 59.746 10.3673C60.1832 10.1361 60.6134 10.0204 61.0365 10.0204C62.2635 10.0204 63.3213 10.5102 64.2099 11.4898C64.4496 11.8299 64.6612 12.2381 64.8446 12.7143C65.042 13.1769 65.1407 13.5782 65.1407 13.9184C65.1407 14.517 65.0702 15.068 64.9292 15.5714C64.8022 16.0748 64.5695 16.5646 64.231 17.0408C63.8925 17.517 63.4624 17.9048 62.9405 18.2041C62.4328 18.5034 61.8404 18.6531 61.1634 18.6531C60.571 18.6531 60.0351 18.5374 59.5556 18.3061C59.0901 18.0748 58.7164 17.7687 58.4343 17.3878C58.3638 17.7279 58.2086 18.068 57.9689 18.4082C57.7291 18.7347 57.4541 18.898 57.1438 18.898C56.8899 18.898 56.6783 18.8367 56.5091 18.7143C56.3398 18.5782 56.2552 18.381 56.2552 18.1225C56.2552 17.932 56.2975 17.6939 56.3822 17.4082C56.4668 17.0136 56.5302 16.6531 56.5726 16.3265C56.629 15.9864 56.6572 15.5782 56.6572 15.102ZM60.6345 16.9592C61.3256 16.9592 61.9039 16.7279 62.3693 16.2653C62.8347 15.7891 63.0675 15.1497 63.0675 14.3469C63.0675 13.6122 62.8629 12.9796 62.4539 12.449C62.3129 12.2721 62.1084 12.1293 61.8404 12.0204C61.5865 11.9116 61.3327 11.8571 61.0788 11.8571C60.4864 11.8571 59.9857 12.0272 59.5767 12.3673C59.1677 12.6939 58.935 13.1497 58.8786 13.7347C58.8222 14.5238 58.7939 15.2041 58.7939 15.7755C58.9632 16.0884 59.2171 16.3673 59.5556 16.6122C59.9082 16.8435 60.2678 16.9592 60.6345 16.9592Z"/><path fill="#000" d="M75.4761 12.2245C75.589 12.415 75.6806 12.6939 75.7511 13.0612C75.8217 13.415 75.8569 13.7347 75.8569 14.0204C75.8569 14.4014 75.7935 14.8776 75.6665 15.449C75.5396 16.0068 75.4338 16.381 75.3492 16.5714C74.5876 18.0952 73.1207 18.8571 70.9487 18.8571C70.2576 18.8571 69.5806 18.6395 68.9178 18.2041C68.2549 17.7551 67.7824 17.2313 67.5003 16.6327L67.3522 16.2245C67.3381 16.1701 67.2605 15.966 67.1195 15.6122C66.9926 15.2449 66.9291 14.966 66.9291 14.7755C66.9291 14.2177 67.0701 13.5714 67.3522 12.8367C67.6343 12.102 67.9587 11.517 68.3254 11.0816C68.5652 10.7687 69.0235 10.5034 69.7005 10.2857C70.3775 10.0544 70.9769 9.93878 71.4988 9.93878C72.472 9.93878 73.2547 10.1156 73.8471 10.4694C74.4536 10.8231 74.9966 11.4082 75.4761 12.2245ZM73.5298 15.5102C73.5862 15.415 73.6355 15.2449 73.6779 15C73.7202 14.7551 73.7413 14.4694 73.7413 14.1429C73.7413 13.7483 73.6638 13.3605 73.5086 12.9796C73.3676 12.5986 73.156 12.2721 72.8739 12C72.8598 11.9728 72.8105 11.932 72.7258 11.8776C72.6412 11.8095 72.5072 11.7483 72.3239 11.6939C72.1405 11.6259 71.9078 11.5918 71.6257 11.5918C71.0757 11.5918 70.6102 11.7483 70.2294 12.0612C69.8486 12.3741 69.5595 12.7619 69.362 13.2245C69.1787 13.6871 69.087 14.1429 69.087 14.5918C69.087 14.7143 69.1293 14.966 69.2139 15.3469C69.2986 15.7279 69.362 15.9728 69.4043 16.0816C69.5172 16.2721 69.7358 16.4966 70.0602 16.7551C70.3846 17 70.7513 17.1224 71.1603 17.1224C71.795 17.1224 72.2886 16.9796 72.6412 16.6939C73.0079 16.4082 73.3041 16.0136 73.5298 15.5102Z"/><path fill="#000" d="M86.2617 12.2245C86.3746 12.415 86.4662 12.6939 86.5368 13.0612C86.6073 13.415 86.6425 13.7347 86.6425 14.0204C86.6425 14.551 86.5226 15.3061 86.2829 16.2857C85.3097 18 83.8711 18.8571 81.9671 18.8571C81.2618 18.8571 80.5425 18.6327 79.8091 18.1837C79.0757 17.7347 78.568 17.2177 78.2859 16.6327C77.9051 15.4626 77.7147 14.7211 77.7147 14.4082C77.7147 13.8639 77.8346 13.2857 78.0743 12.6735C78.3282 12.0612 78.6456 11.5306 79.0264 11.0816C79.2661 10.7687 79.6963 10.5034 80.3169 10.2857C80.9375 10.0544 81.5016 9.93878 82.0094 9.93878C82.9966 9.93878 83.8358 10.1224 84.5269 10.4898C85.218 10.8435 85.7963 11.4218 86.2617 12.2245ZM84.4211 15.5102C84.4917 15.3333 84.5269 14.8776 84.5269 14.1429C84.5269 13.7483 84.4494 13.3605 84.2942 12.9796C84.1532 12.5986 83.9416 12.2721 83.6595 12C83.6313 11.9728 83.5537 11.932 83.4268 11.8776C83.2999 11.8095 83.1236 11.7483 82.8979 11.6939C82.6864 11.6259 82.4395 11.5918 82.1575 11.5918C81.3676 11.5918 80.7894 11.898 80.4227 12.5102C80.056 13.1224 79.8726 13.8163 79.8726 14.5918C79.8726 14.7279 79.9079 14.9864 79.9784 15.3673C80.063 15.7483 80.1335 15.9864 80.1899 16.0816C80.2323 16.1769 80.338 16.3129 80.5073 16.4898C80.6906 16.6531 80.9092 16.8027 81.1631 16.9388C81.4311 17.0612 81.7061 17.1224 81.9882 17.1224C82.6229 17.1224 83.1306 16.9796 83.5114 16.6939C83.8922 16.3946 84.1955 16 84.4211 15.5102Z"/><path fill="#000" d="M101.509 15.1837L101.594 13.6122C101.594 13.0408 101.523 12.619 101.382 12.3469C101.255 12.0748 100.959 11.9388 100.494 11.9388C99.6052 11.9388 98.9353 12.4218 98.4839 13.3878C98.0326 14.3401 97.807 15.7347 97.807 17.5714C97.807 17.6531 97.807 17.8231 97.807 18.0816C97.8211 18.3265 97.7787 18.517 97.68 18.6531C97.5954 18.7891 97.4403 18.8571 97.2146 18.8571C96.6504 18.8571 96.2696 18.7075 96.0722 18.4082C95.8747 18.1088 95.776 17.6667 95.776 17.0816C95.776 16.7823 95.8183 16.1701 95.9029 15.2449C95.9734 14.5918 96.0087 14.1361 96.0087 13.8776C96.0087 13.1973 95.9029 12.7007 95.6914 12.3878C95.4798 12.0748 95.1131 11.9184 94.5912 11.9184C93.9848 11.9184 93.4841 12.2109 93.0892 12.7959C92.6943 13.381 92.4051 14.1088 92.2218 14.9796C92.0384 15.8367 91.9467 16.6871 91.9467 17.5306C91.9467 17.9252 91.8762 18.2449 91.7352 18.4898C91.6082 18.7347 91.3614 18.8571 90.9947 18.8571C90.7267 18.8571 90.4588 18.7891 90.1908 18.6531C89.9228 18.5034 89.7888 18.3061 89.7888 18.0612C89.7888 17.8027 89.817 17.5442 89.8734 17.2857C89.944 16.8639 90.0004 16.2449 90.0427 15.4286C90.085 14.6122 90.1062 13.8435 90.1062 13.1224C90.1062 12.7959 90.0215 12.483 89.8523 12.1837C89.6972 11.8707 89.5067 11.7143 89.2811 11.7143C89.2247 11.7143 89.1189 11.7415 88.9637 11.7959C88.8227 11.8503 88.7169 11.8776 88.6464 11.8776C88.463 11.8776 88.2938 11.7959 88.1387 11.6327C87.9976 11.4694 87.9271 11.3333 87.9271 11.2245C87.9271 10.8844 88.0963 10.5986 88.4348 10.3673C88.7874 10.1224 89.1541 10 89.535 10C90.0568 10 90.5081 10.1701 90.8889 10.5102C91.2839 10.8503 91.58 11.3061 91.7775 11.8776C92.116 11.2925 92.5109 10.8367 92.9622 10.5102C93.4277 10.1701 93.9918 10 94.6547 10C95.8677 10 96.7492 10.5238 97.2992 11.5714C97.6236 11.068 98.1243 10.6803 98.8013 10.4082C99.4924 10.1361 100.169 10 100.832 10C101.312 10 101.77 10.1429 102.207 10.4286C102.645 10.7007 102.99 11.068 103.244 11.5306C103.512 11.9796 103.646 12.449 103.646 12.9388C103.646 13.2517 103.611 13.9388 103.54 15C103.526 15.1769 103.512 15.3742 103.498 15.5918C103.484 15.7959 103.477 16.0136 103.477 16.2449C103.477 16.5306 103.547 16.7619 103.688 16.9388C103.843 17.1156 104.041 17.2245 104.281 17.2653C104.76 17.3741 105 17.5646 105 17.8367C105 18.1497 104.852 18.4014 104.556 18.5918C104.26 18.7687 103.928 18.8571 103.561 18.8571C102.87 18.8571 102.341 18.6667 101.975 18.2857C101.622 17.8912 101.446 17.3265 101.446 16.5918L101.509 15.1837Z"/></svg>