<svg xmlns="http://www.w3.org/2000/svg" width="24" height="24" fill="none" viewBox="0 0 24 24"><path fill="#000" fill-rule="evenodd" d="M20.8453 3.49692L22.4264 2.54688L22.9564 3.4288L22.3569 3.78901L22.0036 3.20106L20.5049 4.10157C20.1737 4.30058 19.7473 4.19866 19.5521 3.87382C19.357 3.54898 19.4671 3.12468 19.7983 2.92566C20.1296 2.72665 20.5559 2.82857 20.7511 3.15341C20.8156 3.26071 20.8442 3.37957 20.8453 3.49692ZM23.6497 4.16057L22.8108 4.77009C22.8044 4.70443 22.7825 4.63927 22.7412 4.58233C22.616 4.40997 22.3722 4.37379 22.1964 4.50147C22.0207 4.62915 21.9798 4.87217 22.105 5.04453C22.2302 5.21688 22.474 5.25307 22.6498 5.12539L23.4449 4.54765L23.6716 4.85961L23.9897 4.62851L23.6497 4.16057ZM15.9304 5.04103L15.2844 5.67961L14.6914 5.4211C14.3646 5.27665 13.7641 5.07142 13.3537 4.96506C12.7153 4.79793 12.4416 4.76754 11.4307 4.75984C10.1841 4.75235 9.77366 4.81312 8.73234 5.1476C7.40982 5.57325 6.31542 6.2649 5.29678 7.32142C4.52146 8.12713 4.19468 8.59836 3.71596 9.5941C3.00912 11.0531 2.74312 12.9685 3.02431 14.5724C3.59441 17.8406 6.02652 20.501 9.21127 21.3369C10.1918 21.5952 11.7651 21.656 12.7761 21.4814C17.8002 20.6072 20.9316 15.4844 19.3964 10.6429C19.2671 10.2477 19.0848 9.76123 18.9859 9.5712L18.8111 9.22153L19.4572 8.58295C19.9361 8.11172 20.0955 7.89879 20.0955 7.74685C20.0955 7.54162 19.8447 7.14636 19.2746 6.47761C18.9553 6.09755 18.9401 6.06716 19.0769 5.96829C19.6318 5.54265 20.445 5.38301 21.0076 5.58053C21.6081 5.79346 21.8437 5.70978 21.8437 5.30704C21.8437 5.117 21.7904 5.06372 21.4484 4.90429C20.6579 4.53942 19.5102 4.68387 18.7199 5.26145C18.507 5.41339 18.3628 5.47417 18.3018 5.42859C18.2485 5.3905 17.9294 5.14739 17.5872 4.88139C17.1995 4.585 16.8956 4.41016 16.774 4.41016C16.6296 4.41016 16.4017 4.57751 15.9304 5.04103ZM11.3547 6.46242C11.7196 6.82729 11.4384 7.10849 10.625 7.16926C9.48476 7.26043 8.36768 7.72416 7.4783 8.47659C6.96897 8.91743 6.80184 8.97072 6.61181 8.77298C6.38369 8.55256 6.46736 8.32465 6.9159 7.90649C7.94203 6.97153 9.45459 6.37875 10.9594 6.31797C11.1116 6.31027 11.2558 6.36355 11.3547 6.46242ZM15.3775 9.7369C15.4951 9.7369 15.6379 9.8167 15.8059 9.9763C15.9823 10.1275 16.0705 10.2577 16.0705 10.3669C16.0705 10.8793 16.0537 11.5807 16.0201 12.4711C16.0117 12.6895 16.0033 12.9541 15.9949 13.2649C15.9865 13.5673 15.9823 13.9201 15.9823 14.3233C15.9823 15.6001 16.0579 16.5409 16.2091 17.1457C16.2007 17.3473 16.1209 17.4943 15.9697 17.5867C15.8185 17.6707 15.6673 17.7127 15.5161 17.7127C15.1801 17.7127 14.9575 17.5951 14.8483 17.3599C14.7475 17.1247 14.6971 16.7887 14.6971 16.3519C14.6971 14.7307 14.7139 13.2397 14.7475 11.8789C13.7815 12.9541 13.0297 13.8571 12.4921 14.5879L12.2653 14.7391C12.1225 14.8651 12.0049 14.9281 11.9125 14.9281C11.6941 14.9281 11.5135 14.8735 11.3707 14.7643C11.2279 14.6551 11.0893 14.4955 10.9549 14.2855L10.3501 13.4287C9.93007 12.8407 9.62347 12.3955 9.43027 12.0931C9.43027 12.8659 9.46807 13.9159 9.54367 15.2431C9.60247 16.0075 9.63188 16.5829 9.63188 16.9693C9.63188 17.1709 9.58147 17.3431 9.48067 17.4859C9.37987 17.6203 9.22028 17.6875 9.00187 17.6875C8.78348 17.6875 8.60287 17.6455 8.46008 17.5615C8.32568 17.4775 8.25427 17.3515 8.24587 17.1835C8.25427 17.0407 8.25847 16.8055 8.25847 16.4779C8.25847 15.8227 8.23747 15.0247 8.19547 14.0839L8.17027 13.4035L8.14507 12.5215C8.13667 12.2611 8.12827 11.9587 8.11987 11.6143C8.11147 11.2615 8.10727 10.8793 8.10727 10.4677C8.10727 9.9637 8.38028 9.7117 8.92627 9.7117C9.09427 9.7117 9.26228 9.7537 9.43027 9.8377C9.60667 9.9217 9.73688 10.0435 9.82087 10.2031C9.88807 10.4971 10.1359 10.9843 10.5643 11.6647C10.9927 12.3451 11.4127 12.9835 11.8243 13.5799C12.1939 13.1095 12.4963 12.7567 12.7315 12.5215C13.1347 12.1099 13.4665 11.7277 13.7269 11.3749C13.9957 11.0221 14.2855 10.5979 14.5963 10.1023C14.6719 10.0015 14.7811 9.9175 14.9239 9.8503C15.0667 9.7747 15.2179 9.7369 15.3775 9.7369ZM21.7587 6.81672L23.251 5.73249L23.8558 6.56488L23.29 6.97596L22.8868 6.42103L21.4723 7.44874C21.1597 7.67586 20.726 7.61149 20.5033 7.3049C20.2805 6.9983 20.3533 6.56601 20.6659 6.33889C20.9785 6.11177 21.4121 6.17614 21.6349 6.48273C21.7085 6.58401 21.7473 6.69993 21.7587 6.81672Z" clip-rule="evenodd"/></svg>